<?xml version="1.0" encoding="UTF-8" standalone="no"?>
<!-- Created with Inkscape (http://www.inkscape.org/) -->

<svg
   xmlns:dc="http://purl.org/dc/elements/1.1/"
   xmlns:cc="http://creativecommons.org/ns#"
   xmlns:rdf="http://www.w3.org/1999/02/22-rdf-syntax-ns#"
   xmlns:svg="http://www.w3.org/2000/svg"
   xmlns="http://www.w3.org/2000/svg"
   xmlns:sodipodi="http://sodipodi.sourceforge.net/DTD/sodipodi-0.dtd"
   xmlns:inkscape="http://www.inkscape.org/namespaces/inkscape"
   width="194.69864mm"
   height="11.493884mm"
   viewBox="0 0 194.69864 11.493884"
   version="1.1"
   id="svg8"
   inkscape:version="0.92.4 (5da689c313, 2019-01-14)"
   sodipodi:docname="NEONTGUPS2.svg">
  <defs
     id="defs2">
    <filter
       inkscape:collect="always"
       style="color-interpolation-filters:sRGB"
       id="filter1359"
       x="-0.012427753"
       width="1.0248555"
       y="-0.34864315"
       height="1.6972862">
      <feGaussianBlur
         inkscape:collect="always"
         stdDeviation="0.98374295"
         id="feGaussianBlur1361" />
    </filter>
  </defs>
  <sodipodi:namedview
     id="base"
     pagecolor="#ffffff"
     bordercolor="#666666"
     borderopacity="1.0"
     inkscape:pageopacity="0.0"
     inkscape:pageshadow="2"
     inkscape:zoom="1.979899"
     inkscape:cx="539.28922"
     inkscape:cy="0.17981387"
     inkscape:document-units="mm"
     inkscape:current-layer="text1437"
     showgrid="false"
     fit-margin-top="0"
     fit-margin-left="0"
     fit-margin-right="0"
     fit-margin-bottom="0"
     inkscape:window-width="1920"
     inkscape:window-height="986"
     inkscape:window-x="-11"
     inkscape:window-y="-11"
     inkscape:window-maximized="1" />
  <metadata
     id="metadata5">
    <rdf:RDF>
      <cc:Work
         rdf:about="">
        <dc:format>image/svg+xml</dc:format>
        <dc:type
           rdf:resource="http://purl.org/dc/dcmitype/StillImage" />
        <dc:title></dc:title>
      </cc:Work>
    </rdf:RDF>
  </metadata>
  <g
     inkscape:label="Layer 1"
     inkscape:groupmode="layer"
     id="layer1"
     transform="translate(-252.44411,-185.78698)">
    <g
       transform="translate(564.52762,396.65995)"
       id="g1447">
      <g
         transform="translate(-364.68129,-199.31248)"
         id="g1433"
         style="opacity:0.9;fill:#052fff;fill-opacity:1;filter:url(#filter1359)">
        <g
           aria-label="THE GLASGOW UNIVERSITY PHYSICS SOCIETY"
           style="font-style:normal;font-variant:normal;font-weight:normal;font-stretch:normal;font-size:9.40901566px;line-height:1.25;font-family:Clip;-inkscape-font-specification:Clip;letter-spacing:0px;word-spacing:0px;fill:#052fff;fill-opacity:1;stroke:none;stroke-width:0.26458332"
           id="text1431">
          <path
             d="m 55.427378,-9.1076203 h 4.029153 q 0.468613,0.1056677 0.468613,0.4548303 v 0.1562044 q 0,0.2848433 -0.39051,0.4364534 -0.06432,0.013783 -0.128639,0.013783 h -1.37368 v 5.3568908 q -0.03216,0.1699871 -0.169987,0.1699871 h -0.04594 q -0.142422,0 -0.174582,-0.2021469 v -5.4947181 q 0,-0.2205238 0.220524,-0.2205238 h 1.543667 q 0.11945,0 0.142421,-0.1378274 -0.0092,-0.1424216 -0.124044,-0.1424216 h -3.964835 q -0.114856,0 -0.124044,0.1424216 0.01838,0.1378274 0.137827,0.1378274 h 1.562044 q 0.160798,0 0.188364,0.2021468 v 0.018377 q 0,0.1286389 -0.174581,0.1699871 H 55.47332 q -0.372134,0 -0.514555,-0.4042936 V -8.65279 q 0,-0.3491626 0.468613,-0.4548303 z"
             style="fill:#052fff;fill-opacity:1;stroke-width:0.26458332"
             id="path821" />
          <path
             d="m 60.995604,-9.1076203 h 0.05973 q 0.174581,0 0.174581,0.298626 v 5.7152419 q 0,0.1837699 0.156205,0.1837699 H 61.478 q 0.169987,0 0.169987,-0.2802491 v -2.4257618 q 0,-0.4410476 0.592657,-0.6248174 0.124045,-0.03216 0.266467,-0.03216 h 0.156204 q 0.271061,0 1.166939,0.2021469 0.07351,0.018377 0.202146,0.018377 h 0.156205 q 0.385916,0 0.450236,-0.2664662 v -2.053628 q 0,-0.5834692 0.42267,-0.7167023 l 0.09189,-0.018377 h 0.137828 q 0.45483,0 0.546715,0.560498 v 5.8714463 q -0.03216,0.1562044 -0.156204,0.1562044 h -0.05973 q -0.174581,0 -0.174581,-0.2940318 v -5.7152419 q 0,-0.1883641 -0.156204,-0.1883641 h -0.09189 q -0.169987,0 -0.169987,0.280249 v 2.1179474 q 0,0.5099613 -0.748862,0.6523829 h -0.234307 q -0.284843,0 -1.166938,-0.2021468 l -0.294032,-0.03216 q -0.473207,0 -0.546715,0.2848432 v 2.3200942 q 0,0.6431944 -0.422671,0.7626448 l -0.09189,0.013783 h -0.137827 q -0.454831,0 -0.546716,-0.560498 v -5.8714463 q 0.03216,-0.1562044 0.156205,-0.1562044 z"
             style="fill:#052fff;fill-opacity:1;stroke-width:0.26458332"
             id="path823" />
          <path
             d="M 66.912992,-9.1076203 H 70.3403 q 0.137827,0 0.169987,0.2021468 0,0.1653929 -0.280249,0.1883641 h -3.082739 v 5.8071269 h 2.990854 q 0.0827,0 0.105668,-0.059725 v -0.1424217 q 0,-0.055131 -0.169988,-0.078102 h -2.333876 q -0.174582,-0.022971 -0.174582,-0.169987 v -2.2741518 q 0,-0.523744 0.794805,-0.7029196 0.133233,-0.027565 0.344568,-0.027565 h 0.105668 q 0.60644,0 1.465564,0.2480893 0.0781,0.087291 0.0781,0.1562044 -0.01378,0.2021468 -0.202146,0.2021468 -0.868313,-0.2205238 -1.323143,-0.2205238 h -0.169987 q -0.70292,0.059725 -0.70292,0.3445684 v 2.0536279 h 2.058222 q 0.459425,0 0.588064,0.3307858 0.03216,0.059725 0.03216,0.1699871 v 0.078102 q 0,0.4134822 -0.496178,0.4823959 h -3.225161 q -0.156204,-0.03216 -0.156204,-0.1562044 v -6.2757399 q 0.03216,-0.1562044 0.156204,-0.1562044 z"
             style="fill:#052fff;fill-opacity:1;stroke-width:0.26458332"
             id="path825" />
          <path
             d="m 77.052493,-9.1076203 h 0.303221 q 0.781021,0 1.667711,0.2894375 0.0781,0.091885 0.0781,0.1699871 0,0.1378274 -0.21593,0.1837698 -0.914254,-0.2756547 -1.681494,-0.2756547 -2.021468,0 -2.692228,1.7274364 -0.257277,0.6799484 -0.257277,1.2817947 0,1.0750535 0.702919,1.9755257 0.882095,0.8683125 2.246586,0.8683125 0.725891,0 1.695277,-0.2894375 v -2.4165734 q 0,-0.1975525 -0.137827,-0.1975525 h -1.37368 q -0.124044,0 -0.124044,0.1240446 0,0.1194504 0.110262,0.1194504 h 0.900472 q 0.229712,0.018377 0.229712,0.2297123 v 1.7595962 q -0.02757,0.2113353 -0.169987,0.2113353 h -0.04594 q -0.165392,-0.022971 -0.165392,-0.1653929 v -1.6539285 h -0.781022 q -0.445642,-0.096479 -0.445642,-0.4410476 -0.01378,0 -0.01378,-0.059725 0,-0.4410476 0.51915,-0.5053671 h 1.346114 q 0.36754,0 0.505367,0.3491627 0.01378,0.059725 0.01378,0.1240447 v 2.6738511 q 0,0.2894375 -1.741219,0.5053671 h -0.473208 q -1.653928,0 -2.660068,-1.3598968 -0.505367,-0.914255 -0.505367,-1.7274365 v -0.261872 q 0,-1.176127 0.886689,-2.3063115 0.900473,-0.9326319 2.278746,-0.9326319 z"
             style="fill:#052fff;fill-opacity:1;stroke-width:0.26458332"
             id="path827" />
          <path
             d="m 80.346569,-9.1076203 h 0.05973 q 0.156204,0.03216 0.156204,0.1562044 v 6.0414334 h 2.958695 q 0.128639,-0.00459 0.128639,-0.1240447 0,-0.1562044 -0.188364,-0.1562044 h -2.287935 q -0.105668,0 -0.174581,-0.1240446 v -0.091885 q 0,-0.1470159 0.220524,-0.1745814 h 2.177672 q 0.464019,0 0.592658,0.3307858 0.03216,0.059725 0.03216,0.1699871 v 0.078102 q 0,0.4134822 -0.500773,0.4823959 h -3.174624 q -0.156205,-0.03216 -0.156205,-0.1562044 v -6.2757399 q 0.03216,-0.1562044 0.156205,-0.1562044 z"
             style="fill:#052fff;fill-opacity:1;stroke-width:0.26458332"
             id="path829" />
          <path
             d="m 87.646825,-9.0708663 h 0.15161 q 0.647788,0 0.914255,1.1301845 1.410433,4.0796903 1.626363,4.800987 v 0.1699871 q 0,0.3721339 -0.523744,0.4502361 h -0.110262 q -0.491584,0 -0.679949,-0.8683125 -0.30322,-0.914255 -0.418076,-0.914255 -0.330786,-0.3215972 -0.946415,-0.3215972 -0.339974,0 -1.084242,0.1699871 -0.128639,0 -0.169987,-0.1883641 v -0.013783 q 0,-0.2113353 0.601846,-0.280249 0.225119,-0.059725 0.542121,-0.059725 h 0.234307 q 0.849936,0 1.300172,0.6799484 0.06891,0.1286389 0.464018,1.3001716 0.0781,0.1102619 0.156205,0.1102619 h 0.124044 q 0.124045,0 0.137828,-0.1424216 -1.686088,-5.0536705 -1.874452,-5.4671527 -0.124045,-0.1699871 -0.339975,-0.1699871 h -0.09189 q -0.353757,0 -0.528338,0.7304851 l -1.842293,5.3752678 q -0.06432,0.059725 -0.124044,0.059725 h -0.05973 q -0.156205,-0.03216 -0.156205,-0.1562044 v -0.045942 q 0.09189,-0.3170029 1.906612,-5.6371397 0.271061,-0.7121081 0.790211,-0.7121081 z"
             style="fill:#052fff;fill-opacity:1;stroke-width:0.26458332"
             id="path831" />
          <path
             d="m 93.486112,-9.1995052 h 0.271061 q 0.730485,0 1.373679,0.3721339 l 0.02757,0.1102619 v 0.013783 q 0,0.1607986 -0.206741,0.1883641 -0.712108,-0.3124087 -1.323143,-0.3124087 -1.415028,0 -1.833104,0.9923571 -0.09648,0.298626 -0.09648,0.542121 v 0.064319 q 0,0.8545297 0.90966,1.1439672 0.275655,0.045942 1.116402,0.078102 0.928038,0.1745813 1.212881,0.4961786 0.477802,0.4456418 0.477802,1.0199226 v 0.1745813 q 0,0.9510089 -1.0383,1.6079861 -0.624817,0.280249 -1.208287,0.280249 h -0.289437 q -0.730485,0 -1.433405,-0.3399742 -0.192958,-0.2021468 -0.192958,-0.3583512 v -0.1056677 q 0,-0.3675396 0.399699,-0.4823958 0.05973,-0.013783 0.142422,-0.013783 0.05513,0 0.735079,0.2021468 0.243495,0.045943 0.491585,0.045943 h 0.0827 q 0.932632,0 1.084242,-0.7626449 0,-0.2940317 0.174581,-0.2940317 h 0.03216 q 0.160799,0 0.188364,0.2021468 0,0.8453413 -0.937226,1.1623442 -0.275655,0.078102 -0.574281,0.078102 h -0.06432 q -0.546715,0 -1.212881,-0.2480893 h -0.03216 q -0.128639,0 -0.128639,0.1562044 0,0.2526835 1.30936,0.3859167 1.534479,0 1.993903,-1.0704593 0.06432,-0.1929584 0.09648,-0.5421211 0,-1.0107341 -1.387462,-1.2082866 -0.937226,-0.027565 -1.245041,-0.1240447 -1.102619,-0.4272649 -1.102619,-1.4839414 v -0.050537 q 0,-0.9877629 0.845342,-1.5620436 0.615629,-0.3583512 1.341519,-0.3583512 z"
             style="fill:#052fff;fill-opacity:1;stroke-width:0.26458332"
             id="path833" />
          <path
             d="m 99.509168,-9.1076203 h 0.30322 q 0.781022,0 1.667712,0.2894375 0.0781,0.091885 0.0781,0.1699871 0,0.1378274 -0.21593,0.1837698 -0.91425,-0.2756547 -1.681492,-0.2756547 -2.021468,0 -2.692228,1.7274364 -0.257278,0.6799484 -0.257278,1.2817947 0,1.0750535 0.70292,1.9755257 0.882095,0.8683125 2.246586,0.8683125 0.725892,0 1.695272,-0.2894375 v -2.4165734 q 0,-0.1975525 -0.13782,-0.1975525 h -1.373682 q -0.124045,0 -0.124045,0.1240446 0,0.1194504 0.110262,0.1194504 h 0.900475 q 0.22971,0.018377 0.22971,0.2297123 v 1.7595962 q -0.0276,0.2113353 -0.16999,0.2113353 h -0.0459 q -0.16539,-0.022971 -0.16539,-0.1653929 v -1.6539285 h -0.781025 q -0.445641,-0.096479 -0.445641,-0.4410476 -0.01378,0 -0.01378,-0.059725 0,-0.4410476 0.51915,-0.5053671 h 1.346109 q 0.36754,0 0.50537,0.3491627 0.0138,0.059725 0.0138,0.1240447 v 2.6738511 q 0,0.2894375 -1.741215,0.5053671 h -0.473207 q -1.653929,0 -2.660068,-1.3598968 -0.505368,-0.914255 -0.505368,-1.7274365 v -0.261872 q 0,-1.176127 0.88669,-2.3063115 0.900472,-0.9326319 2.278746,-0.9326319 z"
             style="fill:#052fff;fill-opacity:1;stroke-width:0.26458332"
             id="path835" />
          <path
             d="m 105.47709,-9.1076203 h 0.27566 q 1.55285,0 2.36144,1.4701587 0.39511,0.8729067 0.39511,1.6355515 v 0.1516102 q -0.0965,0.5742807 -0.5605,0.5742807 h -0.0597 q -0.3997,0 -0.56049,-0.4823958 0,-1.2955774 -0.73049,-2.0030912 -0.42726,-0.3445685 -0.99695,-0.3445685 -1.13937,0 -1.56204,1.2082867 -0.21134,0.6477887 -0.21134,1.1990982 -0.0919,0.1056676 -0.16539,0.1056676 -0.19756,-0.027565 -0.19756,-0.1653928 v -0.03216 q 0,-1.1807212 0.67995,-2.0582222 0.58347,-0.6386002 1.4426,-0.6386002 1.53447,0 2.01228,1.8009444 0.0735,0.3537569 0.10566,0.895878 0.0781,0.1378273 0.1654,0.1378273 h 0.0597 q 0.17458,0 0.21593,-0.2297123 0,-1.1301845 -0.66616,-2.0582221 -0.68914,-0.7902103 -1.74582,-0.7902103 h -0.10567 q -0.0138,0 -0.0138,-0.013783 l -0.0276,0.013783 h -0.11027 q -1.53907,0 -2.20983,1.6539285 -0.25728,0.803993 -0.25728,1.3461141 0,0.9556031 0.51456,1.8468868 0.69833,0.9877629 1.86526,0.9877629 h 0.0873 q 0.0368,0 0.0643,0.013783 0.023,-0.013783 0.0597,-0.013783 h 0.0459 q 1.38746,0 2.11795,-1.3047659 0.11486,-0.1837698 0.27565,-0.6799484 0.0919,-0.059725 0.15161,-0.059725 0.17918,0.041348 0.17918,0.1791755 v 0.013783 q -0.27566,1.0474881 -0.98317,1.6079861 -0.77643,0.6202232 -1.72744,0.6202232 h -0.25727 q -1.50232,0 -2.30172,-1.3461141 -0.45483,-0.8866895 -0.45483,-1.7733789 v -0.1975526 q 0,-1.084242 0.67995,-2.1638898 0.84534,-1.1072133 2.1501,-1.1072133 z"
             style="fill:#052fff;fill-opacity:1;stroke-width:0.26458332"
             id="path837" />
          <path
             d="m 110.0208,-9.1076203 q 0.38132,0 0.54212,0.3445684 0.0505,0.059725 0.99695,4.29562 h 0.0184 q 1.01074,-4.1210386 1.08884,-4.2680545 0.25728,-0.3721339 0.54671,-0.3721339 h 0.16999 q 0.59725,0 0.74886,1.0107341 0.13783,0.4915843 1.18072,4.6264056 h 0.0184 l 1.57123,-5.5590375 q 0.0827,-0.078102 0.14242,-0.078102 h 0.0597 q 0.1562,0.03216 0.1562,0.1562044 v 0.013783 q -0.0138,0.1470159 -1.18072,4.2680545 -0.5605,1.98012 -0.61103,2.0857876 -0.0643,0.064319 -0.12405,0.064319 h -0.0919 q -0.12405,0 -0.26647,-0.7167024 l -1.36908,-5.324731 q -0.11027,-0.1562044 -0.24809,-0.1562044 h -0.12405 q -0.27106,0 -0.39051,0.7626448 -1.10721,4.3783164 -1.13937,4.4518243 -0.0827,0.064319 -0.13783,0.064319 h -0.0322 q -0.20215,0 -0.24809,-0.5145556 l -1.08883,-4.6861308 q -0.0919,-0.078102 -0.15621,-0.078102 h -0.0643 q -0.13783,0 -0.18836,0.2021468 1.34152,5.2512231 1.46556,5.8392866 0,0.1240446 -0.16998,0.1562044 h -0.046 q -0.17917,0 -0.2343,-0.4502361 -1.38747,-5.3890505 -1.38747,-5.4993124 v -0.078102 q 0,-0.4134821 0.49618,-0.560498 z"
             style="fill:#052fff;fill-opacity:1;stroke-width:0.26458332"
             id="path839" />
          <path
             d="m 121.05159,-9.0892433 h 0.14242 q 0.50996,0.091885 0.50996,0.6845426 v 3.3262341 q 0,1.1439672 0.78103,1.5206954 0.12404,0.073508 0.5559,0.1102619 0.0965,0.091885 0.0965,0.1562043 v 0.027566 q 0,0.1883641 -0.23431,0.1883641 -0.9602,0 -1.42881,-1.0704593 -0.1562,-0.4961786 -0.1562,-0.9969514 v -3.2619146 q 0,-0.2940317 -0.15621,-0.2940317 h -0.11026 q -0.13323,0 -0.15161,0.2021468 v 3.0138253 q 0,0.1929584 -0.0184,0.4823959 0,0.7304851 0.41808,1.4425932 0.56509,0.7304851 1.46097,0.7304851 h 0.31241 q 1.04749,0 1.64933,-0.9785744 0.33998,-0.6615714 0.33998,-1.6768998 V -8.933039 q 0.0322,-0.1562043 0.1562,-0.1562043 h 0.0597 q 0.1562,0.03216 0.1562,0.1562043 v 3.7580932 q 0,1.2036924 -0.76264,2.0674107 -0.67536,0.6707599 -1.64474,0.6707599 h -0.21593 q -1.52989,0 -2.11336,-1.4931299 -0.18836,-0.5283383 -0.18836,-1.0245169 v -3.5605406 q 0.0827,-0.5742807 0.54212,-0.5742807 z"
             style="fill:#052fff;fill-opacity:1;stroke-width:0.26458332"
             id="path841" />
          <path
             d="m 126.83575,-9.1076203 h 0.1562 q 0.37673,0 0.49618,0.5467153 0.12864,0.9785743 0.43645,1.5069126 1.23126,2.0214682 2.54062,4.0980674 l 0.20215,0.064319 q 0.24349,0 0.34456,-0.3307857 v -5.2144691 q -0.0138,-0.280249 -0.11026,-0.280249 h -0.12404 q -0.11945,0 -0.14242,0.1562044 l 0.0643,4.8285524 q 0,0.1286389 -0.18837,0.1699871 h -0.0138 q -0.18836,-0.036754 -0.18836,-0.1883641 0,-0.6523829 -0.0597,-4.8423352 0,-0.261872 0.32619,-0.4823958 0.13783,-0.03216 0.20215,-0.03216 h 0.0919 q 0.35835,0 0.51456,0.4364534 v 5.4809353 q 0,0.4134822 -0.51456,0.6569772 -0.0827,0.013783 -0.13782,0.013783 h -0.12864 q -0.41349,0 -0.69833,-0.6064405 -2.09497,-3.3124513 -2.46251,-4.0337479 -0.3262,-0.840747 -0.3262,-1.3553026 -0.0551,-0.2205238 -0.18836,-0.2205238 -0.20215,0 -0.20215,0.3124087 v 5.7795614 q -0.0643,0.1240447 -0.1562,0.1240447 h -0.0597 q -0.1562,-0.03216 -0.1562,-0.1562044 v -5.9173888 q 0.12864,-0.5145555 0.4824,-0.5145555 z"
             style="fill:#052fff;fill-opacity:1;stroke-width:0.26458332"
             id="path843" />
          <path
             d="m 132.46369,-9.1259973 h 0.0643 q 0.15621,0.03216 0.15621,0.1562044 v 5.7474016 q 0,0.3124088 0.16998,0.3124088 h 0.0919 q 0.17458,0 0.17458,-0.3124088 v -5.7474016 q 0.0322,-0.1562044 0.1562,-0.1562044 h 0.0597 q 0.1562,0.03216 0.1562,0.1562044 v 5.8898233 q -0.0919,0.560498 -0.54671,0.560498 h -0.0919 q -0.45483,0 -0.54671,-0.560498 v -5.8898233 q 0.0322,-0.1562044 0.1562,-0.1562044 z"
             style="fill:#052fff;fill-opacity:1;stroke-width:0.26458332"
             id="path845" />
          <path
             d="m 134.98134,-9.1259973 h 0.12864 q 0.32159,0 0.49617,0.4364534 1.54827,5.0720475 1.54827,5.1409612 v 0.027565 q -0.0322,0.1745814 -0.16999,0.1745814 h -0.0322 q -0.17458,0 -0.28025,-0.4686131 -1.37827,-4.6309999 -1.48394,-4.8744949 l -0.15621,-0.059725 q -0.2343,0.050537 -0.2343,0.2343065 1.66771,5.136367 1.79635,5.434993 0.1562,0.1699871 0.29403,0.1699871 h 0.11026 q 0.32619,0 0.4824,-0.6891369 l 1.97093,-5.4625584 q 0.0643,-0.064319 0.12404,-0.064319 h 0.0597 q 0.1562,0.03216 0.1562,0.1562044 v 0.045942 q 0,0.045943 -1.71825,4.856118 -0.42267,1.2496349 -0.51455,1.2496349 -0.22971,0.298626 -0.54672,0.298626 h -0.13782 q -0.51915,0 -0.76724,-0.7350794 -1.68609,-5.1363669 -1.68609,-5.2006864 v -0.1378274 q 0,-0.3170029 0.43645,-0.5191497 0.0597,-0.013783 0.12405,-0.013783 z"
             style="fill:#052fff;fill-opacity:1;stroke-width:0.26458332"
             id="path847" />
          <path
             d="m 140.86198,-9.1076203 h 3.42731 q 0.13782,0 0.16998,0.2021468 0,0.1653929 -0.28025,0.1883641 h -3.08274 v 5.8071269 h 2.99086 q 0.0827,0 0.10567,-0.059725 v -0.1424217 q 0,-0.055131 -0.16999,-0.078102 h -2.33388 q -0.17458,-0.022971 -0.17458,-0.169987 v -2.2741518 q 0,-0.523744 0.79481,-0.7029196 0.13323,-0.027565 0.34456,-0.027565 h 0.10567 q 0.60644,0 1.46557,0.2480893 0.0781,0.087291 0.0781,0.1562044 -0.0138,0.2021468 -0.20215,0.2021468 -0.86831,-0.2205238 -1.32314,-0.2205238 h -0.16999 q -0.70292,0.059725 -0.70292,0.3445684 v 2.0536279 h 2.05822 q 0.45943,0 0.58807,0.3307858 0.0322,0.059725 0.0322,0.1699871 v 0.078102 q 0,0.4134822 -0.49618,0.4823959 h -3.22516 q -0.15621,-0.03216 -0.15621,-0.1562044 v -6.2757399 q 0.0322,-0.1562044 0.15621,-0.1562044 z"
             style="fill:#052fff;fill-opacity:1;stroke-width:0.26458332"
             id="path849" />
          <path
             d="m 146.97691,-9.194911 h 0.37214 q 1.36908,0 2.03984,0.8177758 0.32619,0.4502361 0.32619,1.0015456 v 0.1883641 q 0,1.3001716 -1.61258,1.7871617 h -0.0322 v 0.013783 q 0.38592,0.243495 0.5651,0.9096607 0.22052,0.8315585 0.45483,1.2036924 0.2389,0.3767282 0.73508,0.3767282 0.11026,0.078102 0.11026,0.1562044 v 0.064319 q -0.0322,0.1562044 -0.15621,0.1562044 h -0.0781 q -1.04289,0 -1.45637,-1.9433661 -0.21134,-0.7534563 -1.00614,-0.7534563 -0.15621,0 -0.18377,-0.2021468 0,-0.1975526 0.56049,-0.2480893 1.70906,-0.3813224 1.70906,-1.5069127 v -0.2021468 q 0,-0.9693859 -1.09802,-1.3001716 -0.50077,-0.1424216 -1.04749,-0.1424216 -0.80399,0.03216 -1.30017,0.1286389 v 5.4809354 q 0,0.3124087 0.22052,0.3124087 0.20215,0 0.20215,-0.2343066 V -8.299033 q 0.0413,-0.1883641 0.18836,-0.1883641 0.20215,0.055131 0.20215,0.2021468 v 5.0904245 q 0,0.4915843 -0.37673,0.6431944 -0.0597,0.03216 -0.16998,0.03216 h -0.14243 q -0.35375,0 -0.50077,-0.4869901 V -8.877908 q 0,-0.1929583 0.59725,-0.2389008 0.42267,-0.078102 0.8775,-0.078102 z"
             style="fill:#052fff;fill-opacity:1;stroke-width:0.26458332"
             id="path851" />
          <path
             d="m 153.08267,-9.1995052 h 0.27106 q 0.73048,0 1.37368,0.3721339 l 0.0276,0.1102619 v 0.013783 q 0,0.1607986 -0.20674,0.1883641 -0.71211,-0.3124087 -1.32314,-0.3124087 -1.41503,0 -1.83311,0.9923571 -0.0965,0.298626 -0.0965,0.542121 v 0.064319 q 0,0.8545297 0.90967,1.1439672 0.27565,0.045942 1.1164,0.078102 0.92803,0.1745813 1.21288,0.4961786 0.4778,0.4456418 0.4778,1.0199226 v 0.1745813 q 0,0.9510089 -1.0383,1.6079861 -0.62482,0.280249 -1.20829,0.280249 h -0.28943 q -0.73049,0 -1.43341,-0.3399742 -0.19296,-0.2021468 -0.19296,-0.3583512 v -0.1056677 q 0,-0.3675396 0.3997,-0.4823958 0.0597,-0.013783 0.14242,-0.013783 0.0551,0 0.73508,0.2021468 0.2435,0.045943 0.49159,0.045943 h 0.0827 q 0.93264,0 1.08425,-0.7626449 0,-0.2940317 0.17458,-0.2940317 h 0.0322 q 0.1608,0 0.18836,0.2021468 0,0.8453413 -0.93723,1.1623442 -0.27565,0.078102 -0.57428,0.078102 h -0.0643 q -0.54671,0 -1.21288,-0.2480893 h -0.0322 q -0.12863,0 -0.12863,0.1562044 0,0.2526835 1.30936,0.3859167 1.53447,0 1.9939,-1.0704593 0.0643,-0.1929584 0.0965,-0.5421211 0,-1.0107341 -1.38747,-1.2082866 -0.93722,-0.027565 -1.24504,-0.1240447 -1.10261,-0.4272649 -1.10261,-1.4839414 v -0.050537 q 0,-0.9877629 0.84534,-1.5620436 0.61563,-0.3583512 1.34152,-0.3583512 z"
             style="fill:#052fff;fill-opacity:1;stroke-width:0.26458332"
             id="path853" />
          <path
             d="m 156.0965,-9.1259973 h 0.0643 q 0.1562,0.03216 0.1562,0.1562044 v 5.7474016 q 0,0.3124088 0.16999,0.3124088 h 0.0919 q 0.17459,0 0.17459,-0.3124088 v -5.7474016 q 0.0322,-0.1562044 0.1562,-0.1562044 h 0.0597 q 0.15621,0.03216 0.15621,0.1562044 v 5.8898233 q -0.0919,0.560498 -0.54672,0.560498 h -0.0919 q -0.45483,0 -0.54672,-0.560498 v -5.8898233 q 0.0322,-0.1562044 0.15621,-0.1562044 z"
             style="fill:#052fff;fill-opacity:1;stroke-width:0.26458332"
             id="path855" />
          <path
             d="m 158.52226,-9.1076203 h 4.02915 q 0.46861,0.1056677 0.46861,0.4548303 v 0.1562044 q 0,0.2848433 -0.39051,0.4364534 -0.0643,0.013783 -0.12864,0.013783 h -1.37368 v 5.3568908 q -0.0322,0.1699871 -0.16998,0.1699871 h -0.046 q -0.14242,0 -0.17458,-0.2021469 v -5.4947181 q 0,-0.2205238 0.22053,-0.2205238 h 1.54366 q 0.11945,0 0.14243,-0.1378274 -0.009,-0.1424216 -0.12405,-0.1424216 h -3.96483 q -0.11486,0 -0.12405,0.1424216 0.0184,0.1378274 0.13783,0.1378274 h 1.56204 q 0.1608,0 0.18837,0.2021468 v 0.018377 q 0,0.1286389 -0.17458,0.1699871 h -1.57583 q -0.37213,0 -0.51456,-0.4042936 V -8.65279 q 0,-0.3491626 0.46862,-0.4548303 z"
             style="fill:#052fff;fill-opacity:1;stroke-width:0.26458332"
             id="path857" />
          <path
             d="m 164.5545,-9.0892433 q 0.41807,0 0.69832,0.7304851 1.34612,2.558995 1.38287,2.6095317 1.77797,-3.082739 1.92499,-3.3078571 0.0551,-0.03216 0.0965,-0.03216 h 0.0597 q 0.15621,0.03216 0.15621,0.1562043 v 0.059725 q 0,0.050537 -1.61718,2.8116785 -0.48239,0.8637183 -0.5559,0.9004722 -0.0551,0 -0.0781,0.018377 -0.16999,0 -0.41808,-0.6064404 L 164.66476,-8.65279 q -0.0597,-0.045942 -0.1562,-0.064319 -0.14243,0 -0.20215,0.2159296 0.0505,0.1470158 1.64474,3.0322023 0.0505,0.1975525 0.0505,0.2940317 v 2.4854871 q 0,0.1010734 -0.12404,0.1699871 h -0.0965 q -0.14701,0 -0.16999,-0.2159296 v -2.4257619 q 0,-0.2113353 -0.45023,-0.9326319 l -1.21288,-2.2328035 q -0.0138,-0.087291 -0.0138,-0.1424216 v -0.1056677 q 0,-0.3170029 0.43646,-0.5145555 z"
             style="fill:#052fff;fill-opacity:1;stroke-width:0.26458332"
             id="path859" />
          <path
             d="m 173.51787,-9.1076203 h 0.35835 q 1.60799,0 2.15011,0.9785744 0.24809,0.4502361 0.24809,0.9188492 v 0.280249 q 0,1.3507083 -1.60339,1.888235 -0.44564,0.1056677 -0.84075,0.1056677 h -0.37673 q -0.52833,-0.082696 -0.52833,-0.4502361 v -2.8668095 q 0,-0.1378273 0.20214,-0.1699871 0.16539,0 0.18837,0.280249 0,0.3215973 -0.0184,0.4364534 0.0184,0.6477887 0.0184,1.1853155 v 0.8866894 q 0,0.064319 -0.0184,0.1699871 0,0.1424216 0.23431,0.1424216 0.0551,0 0.14242,0.013783 1.52988,0 2.08579,-1.0107341 0.14242,-0.3675397 0.14242,-0.7488621 0,-1.3461141 -1.35531,-1.5896091 -0.34916,-0.064319 -0.85912,-0.078102 -1.16694,0.041348 -1.16694,0.1562044 l -0.0184,0.091885 v 5.8117211 q -0.0276,0.1562044 -0.1562,0.1562044 h -0.0597 q -0.15621,-0.03216 -0.15621,-0.1562044 v -5.9173888 q 0,-0.3353799 0.50077,-0.4548303 0.54672,-0.059725 0.88669,-0.059725 z"
             style="fill:#052fff;fill-opacity:1;stroke-width:0.26458332"
             id="path861" />
          <path
             d="m 177.35867,-9.1076203 h 0.0597 q 0.17458,0 0.17458,0.298626 v 5.7152419 q 0,0.1837699 0.15621,0.1837699 h 0.0919 q 0.16999,0 0.16999,-0.2802491 v -2.4257618 q 0,-0.4410476 0.59266,-0.6248174 0.12404,-0.03216 0.26646,-0.03216 h 0.15621 q 0.27106,0 1.16694,0.2021469 0.0735,0.018377 0.20214,0.018377 h 0.15621 q 0.38591,0 0.45023,-0.2664662 v -2.053628 q 0,-0.5834692 0.42267,-0.7167023 l 0.0919,-0.018377 h 0.13783 q 0.45483,0 0.54671,0.560498 v 5.8714463 q -0.0322,0.1562044 -0.1562,0.1562044 h -0.0597 q -0.17458,0 -0.17458,-0.2940318 v -5.7152419 q 0,-0.1883641 -0.1562,-0.1883641 h -0.0919 q -0.16998,0 -0.16998,0.280249 v 2.1179474 q 0,0.5099613 -0.74887,0.6523829 h -0.2343 q -0.28485,0 -1.16694,-0.2021468 l -0.29403,-0.03216 q -0.47321,0 -0.54672,0.2848432 v 2.3200942 q 0,0.6431944 -0.42267,0.7626448 l -0.0919,0.013783 h -0.13783 q -0.45483,0 -0.54672,-0.560498 v -5.8714463 q 0.0322,-0.1562044 0.15621,-0.1562044 z"
             style="fill:#052fff;fill-opacity:1;stroke-width:0.26458332"
             id="path863" />
          <path
             d="m 183.74007,-9.0892433 q 0.41808,0 0.69833,0.7304851 1.34611,2.558995 1.38287,2.6095317 1.77797,-3.082739 1.92499,-3.3078571 0.0551,-0.03216 0.0965,-0.03216 h 0.0597 q 0.15621,0.03216 0.15621,0.1562043 v 0.059725 q 0,0.050537 -1.61718,2.8116785 -0.48239,0.8637183 -0.5559,0.9004722 -0.0551,0 -0.0781,0.018377 -0.16999,0 -0.41808,-0.6064404 L 183.85034,-8.65279 q -0.0597,-0.045942 -0.15621,-0.064319 -0.14242,0 -0.20214,0.2159296 0.0505,0.1470158 1.64474,3.0322023 0.0505,0.1975525 0.0505,0.2940317 v 2.4854871 q 0,0.1010734 -0.12404,0.1699871 h -0.0965 q -0.14702,0 -0.16999,-0.2159296 v -2.4257619 q 0,-0.2113353 -0.45023,-0.9326319 l -1.21289,-2.2328035 q -0.0138,-0.087291 -0.0138,-0.1424216 v -0.1056677 q 0,-0.3170029 0.43646,-0.5145555 z"
             style="fill:#052fff;fill-opacity:1;stroke-width:0.26458332"
             id="path865" />
          <path
             d="m 191.21491,-9.1995052 h 0.27106 q 0.73049,0 1.37368,0.3721339 l 0.0276,0.1102619 v 0.013783 q 0,0.1607986 -0.20674,0.1883641 -0.71211,-0.3124087 -1.32314,-0.3124087 -1.41503,0 -1.83311,0.9923571 -0.0965,0.298626 -0.0965,0.542121 v 0.064319 q 0,0.8545297 0.90966,1.1439672 0.27566,0.045942 1.1164,0.078102 0.92804,0.1745813 1.21289,0.4961786 0.4778,0.4456418 0.4778,1.0199226 v 0.1745813 q 0,0.9510089 -1.0383,1.6079861 -0.62482,0.280249 -1.20829,0.280249 h -0.28944 q -0.73048,0 -1.4334,-0.3399742 -0.19296,-0.2021468 -0.19296,-0.3583512 v -0.1056677 q 0,-0.3675396 0.3997,-0.4823958 0.0597,-0.013783 0.14242,-0.013783 0.0551,0 0.73508,0.2021468 0.2435,0.045943 0.49159,0.045943 h 0.0827 q 0.93263,0 1.08424,-0.7626449 0,-0.2940317 0.17459,-0.2940317 h 0.0322 q 0.1608,0 0.18837,0.2021468 0,0.8453413 -0.93723,1.1623442 -0.27565,0.078102 -0.57428,0.078102 h -0.0643 q -0.54671,0 -1.21288,-0.2480893 h -0.0322 q -0.12864,0 -0.12864,0.1562044 0,0.2526835 1.30936,0.3859167 1.53448,0 1.99391,-1.0704593 0.0643,-0.1929584 0.0965,-0.5421211 0,-1.0107341 -1.38746,-1.2082866 -0.93722,-0.027565 -1.24504,-0.1240447 -1.10262,-0.4272649 -1.10262,-1.4839414 v -0.050537 q 0,-0.9877629 0.84534,-1.5620436 0.61563,-0.3583512 1.34152,-0.3583512 z"
             style="fill:#052fff;fill-opacity:1;stroke-width:0.26458332"
             id="path867" />
          <path
             d="m 194.22874,-9.1259973 h 0.0643 q 0.1562,0.03216 0.1562,0.1562044 v 5.7474016 q 0,0.3124088 0.16999,0.3124088 h 0.0919 q 0.17459,0 0.17459,-0.3124088 v -5.7474016 q 0.0322,-0.1562044 0.1562,-0.1562044 h 0.0597 q 0.1562,0.03216 0.1562,0.1562044 v 5.8898233 q -0.0919,0.560498 -0.54672,0.560498 h -0.0919 q -0.45483,0 -0.54672,-0.560498 v -5.8898233 q 0.0322,-0.1562044 0.15621,-0.1562044 z"
             style="fill:#052fff;fill-opacity:1;stroke-width:0.26458332"
             id="path869" />
          <path
             d="m 199.40186,-9.1076203 h 0.28944 q 0.62482,0 1.35071,0.2894375 0.0781,0.078102 0.0781,0.1378274 v 0.087291 q -0.0643,0.1240447 -0.16539,0.1240447 h -0.0322 q -0.73508,-0.2756548 -1.39665,-0.2756548 -1.84689,0 -2.67385,1.5666379 -0.30322,0.6477887 -0.30322,1.5482609 0,1.065865 0.73048,1.943366 0.83156,0.803993 2.06282,0.803993 0.69373,0 1.30476,-0.2159295 0.0322,-0.045942 0.0322,-0.073508 -0.0184,-0.1378273 -0.13782,-0.1378273 -0.62482,0.1240446 -1.02911,0.1240446 h -0.11027 q -1.62636,0 -2.20064,-1.382868 -0.19755,-0.5053671 -0.19755,-1.1072133 V -5.813546 q 0,-0.1378274 0.19755,-0.1653928 0.14702,0 0.18377,0.225118 v 0.059725 q 0,1.4425932 1.03371,1.9295833 0.43645,0.1975526 0.96938,0.1975526 h 0.13783 q 0.36754,0 0.96938,-0.1194504 h 0.0459 q 0.51915,0.064319 0.51915,0.5145555 0,0.4686131 -0.804,0.5742808 -0.42267,0.078102 -0.74426,0.078102 h -0.33538 q -1.16235,0 -2.10876,-0.8499355 -0.8821,-0.9739802 -0.8821,-2.1868611 v -0.317003 q 0,-1.5620436 1.21288,-2.5681834 0.90047,-0.6661657 2.00309,-0.6661657 z"
             style="fill:#052fff;fill-opacity:1;stroke-width:0.26458332"
             id="path871" />
          <path
             d="m 204.28095,-9.1995052 h 0.27106 q 0.73049,0 1.37368,0.3721339 l 0.0276,0.1102619 v 0.013783 q 0,0.1607986 -0.20674,0.1883641 -0.71211,-0.3124087 -1.32314,-0.3124087 -1.41503,0 -1.83311,0.9923571 -0.0965,0.298626 -0.0965,0.542121 v 0.064319 q 0,0.8545297 0.90966,1.1439672 0.27566,0.045942 1.1164,0.078102 0.92804,0.1745813 1.21289,0.4961786 0.4778,0.4456418 0.4778,1.0199226 v 0.1745813 q 0,0.9510089 -1.0383,1.6079861 -0.62482,0.280249 -1.20829,0.280249 h -0.28944 q -0.73048,0 -1.4334,-0.3399742 -0.19296,-0.2021468 -0.19296,-0.3583512 v -0.1056677 q 0,-0.3675396 0.3997,-0.4823958 0.0597,-0.013783 0.14242,-0.013783 0.0551,0 0.73508,0.2021468 0.2435,0.045943 0.49159,0.045943 h 0.0827 q 0.93263,0 1.08424,-0.7626449 0,-0.2940317 0.17459,-0.2940317 h 0.0322 q 0.1608,0 0.18837,0.2021468 0,0.8453413 -0.93723,1.1623442 -0.27565,0.078102 -0.57428,0.078102 h -0.0643 q -0.54671,0 -1.21288,-0.2480893 h -0.0322 q -0.12864,0 -0.12864,0.1562044 0,0.2526835 1.30936,0.3859167 1.53448,0 1.99391,-1.0704593 0.0643,-0.1929584 0.0965,-0.5421211 0,-1.0107341 -1.38747,-1.2082866 -0.93722,-0.027565 -1.24504,-0.1240447 -1.10262,-0.4272649 -1.10262,-1.4839414 v -0.050537 q 0,-0.9877629 0.84534,-1.5620436 0.61563,-0.3583512 1.34152,-0.3583512 z"
             style="fill:#052fff;fill-opacity:1;stroke-width:0.26458332"
             id="path873" />
          <path
             d="m 211.70526,-9.1995052 h 0.27106 q 0.73048,0 1.37368,0.3721339 l 0.0276,0.1102619 v 0.013783 q 0,0.1607986 -0.20674,0.1883641 -0.71211,-0.3124087 -1.32314,-0.3124087 -1.41503,0 -1.83311,0.9923571 -0.0965,0.298626 -0.0965,0.542121 v 0.064319 q 0,0.8545297 0.90966,1.1439672 0.27566,0.045942 1.11641,0.078102 0.92803,0.1745813 1.21288,0.4961786 0.4778,0.4456418 0.4778,1.0199226 v 0.1745813 q 0,0.9510089 -1.0383,1.6079861 -0.62482,0.280249 -1.20829,0.280249 h -0.28944 q -0.73048,0 -1.4334,-0.3399742 -0.19296,-0.2021468 -0.19296,-0.3583512 v -0.1056677 q 0,-0.3675396 0.3997,-0.4823958 0.0597,-0.013783 0.14242,-0.013783 0.0551,0 0.73508,0.2021468 0.2435,0.045943 0.49159,0.045943 h 0.0827 q 0.93263,0 1.08424,-0.7626449 0,-0.2940317 0.17459,-0.2940317 h 0.0322 q 0.16079,0 0.18836,0.2021468 0,0.8453413 -0.93723,1.1623442 -0.27565,0.078102 -0.57428,0.078102 h -0.0643 q -0.54671,0 -1.21288,-0.2480893 h -0.0322 q -0.12864,0 -0.12864,0.1562044 0,0.2526835 1.30936,0.3859167 1.53448,0 1.99391,-1.0704593 0.0643,-0.1929584 0.0965,-0.5421211 0,-1.0107341 -1.38747,-1.2082866 -0.93722,-0.027565 -1.24504,-0.1240447 -1.10262,-0.4272649 -1.10262,-1.4839414 v -0.050537 q 0,-0.9877629 0.84535,-1.5620436 0.61562,-0.3583512 1.34152,-0.3583512 z"
             style="fill:#052fff;fill-opacity:1;stroke-width:0.26458332"
             id="path875" />
          <path
             d="m 217.39293,-9.1076203 h 0.27566 q 1.55285,0 2.36144,1.4701587 0.3951,0.8729067 0.3951,1.6355515 v 0.1516102 q -0.0965,0.5742807 -0.56049,0.5742807 h -0.0597 q -0.3997,0 -0.5605,-0.4823958 0,-1.2955774 -0.73048,-2.0030912 -0.42727,-0.3445685 -0.99695,-0.3445685 -1.13938,0 -1.56205,1.2082867 -0.21133,0.6477887 -0.21133,1.1990982 -0.0919,0.1056676 -0.1654,0.1056676 -0.19755,-0.027565 -0.19755,-0.1653928 v -0.03216 q 0,-1.1807212 0.67995,-2.0582222 0.58347,-0.6386002 1.44259,-0.6386002 1.53448,0 2.01228,1.8009444 0.0735,0.3537569 0.10567,0.895878 0.0781,0.1378273 0.16539,0.1378273 h 0.0597 q 0.17458,0 0.21593,-0.2297123 0,-1.1301845 -0.66617,-2.0582221 -0.68913,-0.7902103 -1.74581,-0.7902103 h -0.10567 q -0.0138,0 -0.0138,-0.013783 l -0.0276,0.013783 h -0.11026 q -1.53907,0 -2.20983,1.6539285 -0.25728,0.803993 -0.25728,1.3461141 0,0.9556031 0.51456,1.8468868 0.69832,0.9877629 1.86526,0.9877629 h 0.0873 q 0.0367,0 0.0643,0.013783 0.023,-0.013783 0.0597,-0.013783 h 0.0459 q 1.38746,0 2.11795,-1.3047659 0.11485,-0.1837698 0.27565,-0.6799484 0.0919,-0.059725 0.15161,-0.059725 0.17918,0.041348 0.17918,0.1791755 v 0.013783 q -0.27566,1.0474881 -0.98317,1.6079861 -0.77643,0.6202232 -1.72744,0.6202232 h -0.25728 q -1.50232,0 -2.30171,-1.3461141 -0.45483,-0.8866895 -0.45483,-1.7733789 v -0.1975526 q 0,-1.084242 0.67994,-2.1638898 0.84535,-1.1072133 2.15011,-1.1072133 z"
             style="fill:#052fff;fill-opacity:1;stroke-width:0.26458332"
             id="path877" />
          <path
             d="m 224.55994,-9.1076203 h 0.28944 q 0.62482,0 1.35071,0.2894375 0.0781,0.078102 0.0781,0.1378274 v 0.087291 q -0.0643,0.1240447 -0.16539,0.1240447 h -0.0322 q -0.73508,-0.2756548 -1.39665,-0.2756548 -1.84689,0 -2.67385,1.5666379 -0.30322,0.6477887 -0.30322,1.5482609 0,1.065865 0.73048,1.943366 0.83156,0.803993 2.06282,0.803993 0.69373,0 1.30477,-0.2159295 0.0322,-0.045942 0.0322,-0.073508 -0.0184,-0.1378273 -0.13783,-0.1378273 -0.62482,0.1240446 -1.02911,0.1240446 h -0.11027 q -1.62636,0 -2.20064,-1.382868 -0.19755,-0.5053671 -0.19755,-1.1072133 V -5.813546 q 0,-0.1378274 0.19755,-0.1653928 0.14702,0 0.18377,0.225118 v 0.059725 q 0,1.4425932 1.03371,1.9295833 0.43645,0.1975526 0.96938,0.1975526 h 0.13783 q 0.36754,0 0.96939,-0.1194504 h 0.0459 q 0.51915,0.064319 0.51915,0.5145555 0,0.4686131 -0.804,0.5742808 -0.42267,0.078102 -0.74426,0.078102 h -0.33538 q -1.16235,0 -2.10876,-0.8499355 -0.8821,-0.9739802 -0.8821,-2.1868611 v -0.317003 q 0,-1.5620436 1.21288,-2.5681834 0.90048,-0.6661657 2.00309,-0.6661657 z"
             style="fill:#052fff;fill-opacity:1;stroke-width:0.26458332"
             id="path879" />
          <path
             d="m 227.36244,-9.1259973 h 0.0643 q 0.1562,0.03216 0.1562,0.1562044 v 5.7474016 q 0,0.3124088 0.16999,0.3124088 h 0.0919 q 0.17458,0 0.17458,-0.3124088 v -5.7474016 q 0.0322,-0.1562044 0.15621,-0.1562044 h 0.0597 q 0.15621,0.03216 0.15621,0.1562044 v 5.8898233 q -0.0919,0.560498 -0.54672,0.560498 h -0.0919 q -0.45483,0 -0.54672,-0.560498 v -5.8898233 q 0.0322,-0.1562044 0.15621,-0.1562044 z"
             style="fill:#052fff;fill-opacity:1;stroke-width:0.26458332"
             id="path881" />
          <path
             d="m 229.47579,-9.1076203 h 3.42731 q 0.13783,0 0.16999,0.2021468 0,0.1653929 -0.28025,0.1883641 h -3.08274 v 5.8071269 h 2.99085 q 0.0827,0 0.10567,-0.059725 v -0.1424217 q 0,-0.055131 -0.16999,-0.078102 h -2.33387 q -0.17458,-0.022971 -0.17458,-0.169987 v -2.2741518 q 0,-0.523744 0.7948,-0.7029196 0.13323,-0.027565 0.34457,-0.027565 h 0.10567 q 0.60644,0 1.46556,0.2480893 0.0781,0.087291 0.0781,0.1562044 -0.0138,0.2021468 -0.20214,0.2021468 -0.86832,-0.2205238 -1.32315,-0.2205238 h -0.16998 q -0.70292,0.059725 -0.70292,0.3445684 v 2.0536279 h 2.05822 q 0.45942,0 0.58806,0.3307858 0.0322,0.059725 0.0322,0.1699871 v 0.078102 q 0,0.4134822 -0.49618,0.4823959 h -3.22516 q -0.1562,-0.03216 -0.1562,-0.1562044 v -6.2757399 q 0.0322,-0.1562044 0.1562,-0.1562044 z"
             style="fill:#052fff;fill-opacity:1;stroke-width:0.26458332"
             id="path883" />
          <path
             d="m 234.58459,-9.1076203 h 4.02915 q 0.46862,0.1056677 0.46862,0.4548303 v 0.1562044 q 0,0.2848433 -0.39052,0.4364534 -0.0643,0.013783 -0.12863,0.013783 h -1.37368 v 5.3568908 q -0.0322,0.1699871 -0.16999,0.1699871 h -0.0459 q -0.14242,0 -0.17458,-0.2021469 v -5.4947181 q 0,-0.2205238 0.22052,-0.2205238 h 1.54367 q 0.11945,0 0.14242,-0.1378274 -0.009,-0.1424216 -0.12405,-0.1424216 h -3.96483 q -0.11486,0 -0.12405,0.1424216 0.0184,0.1378274 0.13783,0.1378274 h 1.56205 q 0.16079,0 0.18836,0.2021468 v 0.018377 q 0,0.1286389 -0.17458,0.1699871 h -1.57583 q -0.37213,0 -0.51455,-0.4042936 V -8.65279 q 0,-0.3491626 0.46861,-0.4548303 z"
             style="fill:#052fff;fill-opacity:1;stroke-width:0.26458332"
             id="path885" />
          <path
             d="m 240.61684,-9.0892433 q 0.41808,0 0.69833,0.7304851 1.34611,2.558995 1.38287,2.6095317 1.77797,-3.082739 1.92499,-3.3078571 0.0551,-0.03216 0.0965,-0.03216 h 0.0597 q 0.15621,0.03216 0.15621,0.1562043 v 0.059725 q 0,0.050537 -1.61718,2.8116785 -0.48239,0.8637183 -0.5559,0.9004722 -0.0551,0 -0.0781,0.018377 -0.16999,0 -0.41808,-0.6064404 L 240.72711,-8.65279 q -0.0597,-0.045942 -0.15621,-0.064319 -0.14242,0 -0.20214,0.2159296 0.0505,0.1470158 1.64474,3.0322023 0.0505,0.1975525 0.0505,0.2940317 v 2.4854871 q 0,0.1010734 -0.12404,0.1699871 h -0.0965 q -0.14702,0 -0.16999,-0.2159296 v -2.4257619 q 0,-0.2113353 -0.45023,-0.9326319 l -1.21289,-2.2328035 q -0.0138,-0.087291 -0.0138,-0.1424216 v -0.1056677 q 0,-0.3170029 0.43646,-0.5145555 z"
             style="fill:#052fff;fill-opacity:1;stroke-width:0.26458332"
             id="path887" />
        </g>
      </g>
      <g
         style="fill:#e7ebff;fill-opacity:1"
         id="g1439"
         transform="translate(-364.68129,-199.31248)">
        <g
           aria-label="THE GLASGOW UNIVERSITY PHYSICS SOCIETY"
           style="font-style:normal;font-variant:normal;font-weight:normal;font-stretch:normal;font-size:9.40901566px;line-height:1.25;font-family:Clip;-inkscape-font-specification:Clip;letter-spacing:0px;word-spacing:0px;fill:#e7ebff;fill-opacity:1;stroke:none;stroke-width:0.26458332"
           id="text1437">
          <path
             d="m 55.427378,-9.1076203 h 4.029153 q 0.468613,0.1056677 0.468613,0.4548303 v 0.1562044 q 0,0.2848433 -0.39051,0.4364534 -0.06432,0.013783 -0.128639,0.013783 h -1.37368 v 5.3568908 q -0.03216,0.1699871 -0.169987,0.1699871 h -0.04594 q -0.142422,0 -0.174582,-0.2021469 v -5.4947181 q 0,-0.2205238 0.220524,-0.2205238 h 1.543667 q 0.11945,0 0.142421,-0.1378274 -0.0092,-0.1424216 -0.124044,-0.1424216 h -3.964835 q -0.114856,0 -0.124044,0.1424216 0.01838,0.1378274 0.137827,0.1378274 h 1.562044 q 0.160798,0 0.188364,0.2021468 v 0.018377 q 0,0.1286389 -0.174581,0.1699871 H 55.47332 q -0.372134,0 -0.514555,-0.4042936 V -8.65279 q 0,-0.3491626 0.468613,-0.4548303 z"
             style="fill:#e7ebff;fill-opacity:1;stroke-width:0.26458332"
             id="path890" />
          <path
             d="m 60.995604,-9.1076203 h 0.05973 q 0.174581,0 0.174581,0.298626 v 5.7152419 q 0,0.1837699 0.156205,0.1837699 H 61.478 q 0.169987,0 0.169987,-0.2802491 v -2.4257618 q 0,-0.4410476 0.592657,-0.6248174 0.124045,-0.03216 0.266467,-0.03216 h 0.156204 q 0.271061,0 1.166939,0.2021469 0.07351,0.018377 0.202146,0.018377 h 0.156205 q 0.385916,0 0.450236,-0.2664662 v -2.053628 q 0,-0.5834692 0.42267,-0.7167023 l 0.09189,-0.018377 h 0.137828 q 0.45483,0 0.546715,0.560498 v 5.8714463 q -0.03216,0.1562044 -0.156204,0.1562044 h -0.05973 q -0.174581,0 -0.174581,-0.2940318 v -5.7152419 q 0,-0.1883641 -0.156204,-0.1883641 h -0.09189 q -0.169987,0 -0.169987,0.280249 v 2.1179474 q 0,0.5099613 -0.748862,0.6523829 h -0.234307 q -0.284843,0 -1.166938,-0.2021468 l -0.294032,-0.03216 q -0.473207,0 -0.546715,0.2848432 v 2.3200942 q 0,0.6431944 -0.422671,0.7626448 l -0.09189,0.013783 h -0.137827 q -0.454831,0 -0.546716,-0.560498 v -5.8714463 q 0.03216,-0.1562044 0.156205,-0.1562044 z"
             style="fill:#e7ebff;fill-opacity:1;stroke-width:0.26458332"
             id="path892" />
          <path
             d="M 66.912992,-9.1076203 H 70.3403 q 0.137827,0 0.169987,0.2021468 0,0.1653929 -0.280249,0.1883641 h -3.082739 v 5.8071269 h 2.990854 q 0.0827,0 0.105668,-0.059725 v -0.1424217 q 0,-0.055131 -0.169988,-0.078102 h -2.333876 q -0.174582,-0.022971 -0.174582,-0.169987 v -2.2741518 q 0,-0.523744 0.794805,-0.7029196 0.133233,-0.027565 0.344568,-0.027565 h 0.105668 q 0.60644,0 1.465564,0.2480893 0.0781,0.087291 0.0781,0.1562044 -0.01378,0.2021468 -0.202146,0.2021468 -0.868313,-0.2205238 -1.323143,-0.2205238 h -0.169987 q -0.70292,0.059725 -0.70292,0.3445684 v 2.0536279 h 2.058222 q 0.459425,0 0.588064,0.3307858 0.03216,0.059725 0.03216,0.1699871 v 0.078102 q 0,0.4134822 -0.496178,0.4823959 h -3.225161 q -0.156204,-0.03216 -0.156204,-0.1562044 v -6.2757399 q 0.03216,-0.1562044 0.156204,-0.1562044 z"
             style="fill:#e7ebff;fill-opacity:1;stroke-width:0.26458332"
             id="path894" />
          <path
             d="m 77.052493,-9.1076203 h 0.303221 q 0.781021,0 1.667711,0.2894375 0.0781,0.091885 0.0781,0.1699871 0,0.1378274 -0.21593,0.1837698 -0.914254,-0.2756547 -1.681494,-0.2756547 -2.021468,0 -2.692228,1.7274364 -0.257277,0.6799484 -0.257277,1.2817947 0,1.0750535 0.702919,1.9755257 0.882095,0.8683125 2.246586,0.8683125 0.725891,0 1.695277,-0.2894375 v -2.4165734 q 0,-0.1975525 -0.137827,-0.1975525 h -1.37368 q -0.124044,0 -0.124044,0.1240446 0,0.1194504 0.110262,0.1194504 h 0.900472 q 0.229712,0.018377 0.229712,0.2297123 v 1.7595962 q -0.02757,0.2113353 -0.169987,0.2113353 h -0.04594 q -0.165392,-0.022971 -0.165392,-0.1653929 v -1.6539285 h -0.781022 q -0.445642,-0.096479 -0.445642,-0.4410476 -0.01378,0 -0.01378,-0.059725 0,-0.4410476 0.51915,-0.5053671 h 1.346114 q 0.36754,0 0.505367,0.3491627 0.01378,0.059725 0.01378,0.1240447 v 2.6738511 q 0,0.2894375 -1.741219,0.5053671 h -0.473208 q -1.653928,0 -2.660068,-1.3598968 -0.505367,-0.914255 -0.505367,-1.7274365 v -0.261872 q 0,-1.176127 0.886689,-2.3063115 0.900473,-0.9326319 2.278746,-0.9326319 z"
             style="fill:#e7ebff;fill-opacity:1;stroke-width:0.26458332"
             id="path896" />
          <path
             d="m 80.346569,-9.1076203 h 0.05973 q 0.156204,0.03216 0.156204,0.1562044 v 6.0414334 h 2.958695 q 0.128639,-0.00459 0.128639,-0.1240447 0,-0.1562044 -0.188364,-0.1562044 h -2.287935 q -0.105668,0 -0.174581,-0.1240446 v -0.091885 q 0,-0.1470159 0.220524,-0.1745814 h 2.177672 q 0.464019,0 0.592658,0.3307858 0.03216,0.059725 0.03216,0.1699871 v 0.078102 q 0,0.4134822 -0.500773,0.4823959 h -3.174624 q -0.156205,-0.03216 -0.156205,-0.1562044 v -6.2757399 q 0.03216,-0.1562044 0.156205,-0.1562044 z"
             style="fill:#e7ebff;fill-opacity:1;stroke-width:0.26458332"
             id="path898" />
          <path
             d="m 87.646825,-9.0708663 h 0.15161 q 0.647788,0 0.914255,1.1301845 1.410433,4.0796903 1.626363,4.800987 v 0.1699871 q 0,0.3721339 -0.523744,0.4502361 h -0.110262 q -0.491584,0 -0.679949,-0.8683125 -0.30322,-0.914255 -0.418076,-0.914255 -0.330786,-0.3215972 -0.946415,-0.3215972 -0.339974,0 -1.084242,0.1699871 -0.128639,0 -0.169987,-0.1883641 v -0.013783 q 0,-0.2113353 0.601846,-0.280249 0.225119,-0.059725 0.542121,-0.059725 h 0.234307 q 0.849936,0 1.300172,0.6799484 0.06891,0.1286389 0.464018,1.3001716 0.0781,0.1102619 0.156205,0.1102619 h 0.124044 q 0.124045,0 0.137828,-0.1424216 -1.686088,-5.0536705 -1.874452,-5.4671527 -0.124045,-0.1699871 -0.339975,-0.1699871 h -0.09189 q -0.353757,0 -0.528338,0.7304851 l -1.842293,5.3752678 q -0.06432,0.059725 -0.124044,0.059725 h -0.05973 q -0.156205,-0.03216 -0.156205,-0.1562044 v -0.045942 q 0.09189,-0.3170029 1.906612,-5.6371397 0.271061,-0.7121081 0.790211,-0.7121081 z"
             style="fill:#e7ebff;fill-opacity:1;stroke-width:0.26458332"
             id="path900" />
          <path
             d="m 93.486112,-9.1995052 h 0.271061 q 0.730485,0 1.373679,0.3721339 l 0.02757,0.1102619 v 0.013783 q 0,0.1607986 -0.206741,0.1883641 -0.712108,-0.3124087 -1.323143,-0.3124087 -1.415028,0 -1.833104,0.9923571 -0.09648,0.298626 -0.09648,0.542121 v 0.064319 q 0,0.8545297 0.90966,1.1439672 0.275655,0.045942 1.116402,0.078102 0.928038,0.1745813 1.212881,0.4961786 0.477802,0.4456418 0.477802,1.0199226 v 0.1745813 q 0,0.9510089 -1.0383,1.6079861 -0.624817,0.280249 -1.208287,0.280249 h -0.289437 q -0.730485,0 -1.433405,-0.3399742 -0.192958,-0.2021468 -0.192958,-0.3583512 v -0.1056677 q 0,-0.3675396 0.399699,-0.4823958 0.05973,-0.013783 0.142422,-0.013783 0.05513,0 0.735079,0.2021468 0.243495,0.045943 0.491585,0.045943 h 0.0827 q 0.932632,0 1.084242,-0.7626449 0,-0.2940317 0.174581,-0.2940317 h 0.03216 q 0.160799,0 0.188364,0.2021468 0,0.8453413 -0.937226,1.1623442 -0.275655,0.078102 -0.574281,0.078102 h -0.06432 q -0.546715,0 -1.212881,-0.2480893 h -0.03216 q -0.128639,0 -0.128639,0.1562044 0,0.2526835 1.30936,0.3859167 1.534479,0 1.993903,-1.0704593 0.06432,-0.1929584 0.09648,-0.5421211 0,-1.0107341 -1.387462,-1.2082866 -0.937226,-0.027565 -1.245041,-0.1240447 -1.102619,-0.4272649 -1.102619,-1.4839414 v -0.050537 q 0,-0.9877629 0.845342,-1.5620436 0.615629,-0.3583512 1.341519,-0.3583512 z"
             style="fill:#e7ebff;fill-opacity:1;stroke-width:0.26458332"
             id="path902" />
          <path
             d="m 99.509168,-9.1076203 h 0.30322 q 0.781022,0 1.667712,0.2894375 0.0781,0.091885 0.0781,0.1699871 0,0.1378274 -0.21593,0.1837698 -0.91425,-0.2756547 -1.681492,-0.2756547 -2.021468,0 -2.692228,1.7274364 -0.257278,0.6799484 -0.257278,1.2817947 0,1.0750535 0.70292,1.9755257 0.882095,0.8683125 2.246586,0.8683125 0.725892,0 1.695272,-0.2894375 v -2.4165734 q 0,-0.1975525 -0.13782,-0.1975525 h -1.373682 q -0.124045,0 -0.124045,0.1240446 0,0.1194504 0.110262,0.1194504 h 0.900475 q 0.22971,0.018377 0.22971,0.2297123 v 1.7595962 q -0.0276,0.2113353 -0.16999,0.2113353 h -0.0459 q -0.16539,-0.022971 -0.16539,-0.1653929 v -1.6539285 h -0.781025 q -0.445641,-0.096479 -0.445641,-0.4410476 -0.01378,0 -0.01378,-0.059725 0,-0.4410476 0.51915,-0.5053671 h 1.346109 q 0.36754,0 0.50537,0.3491627 0.0138,0.059725 0.0138,0.1240447 v 2.6738511 q 0,0.2894375 -1.741215,0.5053671 h -0.473207 q -1.653929,0 -2.660068,-1.3598968 -0.505368,-0.914255 -0.505368,-1.7274365 v -0.261872 q 0,-1.176127 0.88669,-2.3063115 0.900472,-0.9326319 2.278746,-0.9326319 z"
             style="fill:#e7ebff;fill-opacity:1;stroke-width:0.26458332"
             id="path904" />
          <path
             d="m 105.47709,-9.1076203 h 0.27566 q 1.55285,0 2.36144,1.4701587 0.39511,0.8729067 0.39511,1.6355515 v 0.1516102 q -0.0965,0.5742807 -0.5605,0.5742807 h -0.0597 q -0.3997,0 -0.56049,-0.4823958 0,-1.2955774 -0.73049,-2.0030912 -0.42726,-0.3445685 -0.99695,-0.3445685 -1.13937,0 -1.56204,1.2082867 -0.21134,0.6477887 -0.21134,1.1990982 -0.0919,0.1056676 -0.16539,0.1056676 -0.19756,-0.027565 -0.19756,-0.1653928 v -0.03216 q 0,-1.1807212 0.67995,-2.0582222 0.58347,-0.6386002 1.4426,-0.6386002 1.53447,0 2.01228,1.8009444 0.0735,0.3537569 0.10566,0.895878 0.0781,0.1378273 0.1654,0.1378273 h 0.0597 q 0.17458,0 0.21593,-0.2297123 0,-1.1301845 -0.66616,-2.0582221 -0.68914,-0.7902103 -1.74582,-0.7902103 h -0.10567 q -0.0138,0 -0.0138,-0.013783 l -0.0276,0.013783 h -0.11027 q -1.53907,0 -2.20983,1.6539285 -0.25728,0.803993 -0.25728,1.3461141 0,0.9556031 0.51456,1.8468868 0.69833,0.9877629 1.86526,0.9877629 h 0.0873 q 0.0368,0 0.0643,0.013783 0.023,-0.013783 0.0597,-0.013783 h 0.0459 q 1.38746,0 2.11795,-1.3047659 0.11486,-0.1837698 0.27565,-0.6799484 0.0919,-0.059725 0.15161,-0.059725 0.17918,0.041348 0.17918,0.1791755 v 0.013783 q -0.27566,1.0474881 -0.98317,1.6079861 -0.77643,0.6202232 -1.72744,0.6202232 h -0.25727 q -1.50232,0 -2.30172,-1.3461141 -0.45483,-0.8866895 -0.45483,-1.7733789 v -0.1975526 q 0,-1.084242 0.67995,-2.1638898 0.84534,-1.1072133 2.1501,-1.1072133 z"
             style="fill:#e7ebff;fill-opacity:1;stroke-width:0.26458332"
             id="path906" />
          <path
             d="m 110.0208,-9.1076203 q 0.38132,0 0.54212,0.3445684 0.0505,0.059725 0.99695,4.29562 h 0.0184 q 1.01074,-4.1210386 1.08884,-4.2680545 0.25728,-0.3721339 0.54671,-0.3721339 h 0.16999 q 0.59725,0 0.74886,1.0107341 0.13783,0.4915843 1.18072,4.6264056 h 0.0184 l 1.57123,-5.5590375 q 0.0827,-0.078102 0.14242,-0.078102 h 0.0597 q 0.1562,0.03216 0.1562,0.1562044 v 0.013783 q -0.0138,0.1470159 -1.18072,4.2680545 -0.5605,1.98012 -0.61103,2.0857876 -0.0643,0.064319 -0.12405,0.064319 h -0.0919 q -0.12405,0 -0.26647,-0.7167024 l -1.36908,-5.324731 q -0.11027,-0.1562044 -0.24809,-0.1562044 h -0.12405 q -0.27106,0 -0.39051,0.7626448 -1.10721,4.3783164 -1.13937,4.4518243 -0.0827,0.064319 -0.13783,0.064319 h -0.0322 q -0.20215,0 -0.24809,-0.5145556 l -1.08883,-4.6861308 q -0.0919,-0.078102 -0.15621,-0.078102 h -0.0643 q -0.13783,0 -0.18836,0.2021468 1.34152,5.2512231 1.46556,5.8392866 0,0.1240446 -0.16998,0.1562044 h -0.046 q -0.17917,0 -0.2343,-0.4502361 -1.38747,-5.3890505 -1.38747,-5.4993124 v -0.078102 q 0,-0.4134821 0.49618,-0.560498 z"
             style="fill:#e7ebff;fill-opacity:1;stroke-width:0.26458332"
             id="path908" />
          <path
             d="m 121.05159,-9.0892433 h 0.14242 q 0.50996,0.091885 0.50996,0.6845426 v 3.3262341 q 0,1.1439672 0.78103,1.5206954 0.12404,0.073508 0.5559,0.1102619 0.0965,0.091885 0.0965,0.1562043 v 0.027566 q 0,0.1883641 -0.23431,0.1883641 -0.9602,0 -1.42881,-1.0704593 -0.1562,-0.4961786 -0.1562,-0.9969514 v -3.2619146 q 0,-0.2940317 -0.15621,-0.2940317 h -0.11026 q -0.13323,0 -0.15161,0.2021468 v 3.0138253 q 0,0.1929584 -0.0184,0.4823959 0,0.7304851 0.41808,1.4425932 0.56509,0.7304851 1.46097,0.7304851 h 0.31241 q 1.04749,0 1.64933,-0.9785744 0.33998,-0.6615714 0.33998,-1.6768998 V -8.933039 q 0.0322,-0.1562043 0.1562,-0.1562043 h 0.0597 q 0.1562,0.03216 0.1562,0.1562043 v 3.7580932 q 0,1.2036924 -0.76264,2.0674107 -0.67536,0.6707599 -1.64474,0.6707599 h -0.21593 q -1.52989,0 -2.11336,-1.4931299 -0.18836,-0.5283383 -0.18836,-1.0245169 v -3.5605406 q 0.0827,-0.5742807 0.54212,-0.5742807 z"
             style="fill:#e7ebff;fill-opacity:1;stroke-width:0.26458332"
             id="path910" />
          <path
             d="m 126.83575,-9.1076203 h 0.1562 q 0.37673,0 0.49618,0.5467153 0.12864,0.9785743 0.43645,1.5069126 1.23126,2.0214682 2.54062,4.0980674 l 0.20215,0.064319 q 0.24349,0 0.34456,-0.3307857 v -5.2144691 q -0.0138,-0.280249 -0.11026,-0.280249 h -0.12404 q -0.11945,0 -0.14242,0.1562044 l 0.0643,4.8285524 q 0,0.1286389 -0.18837,0.1699871 h -0.0138 q -0.18836,-0.036754 -0.18836,-0.1883641 0,-0.6523829 -0.0597,-4.8423352 0,-0.261872 0.32619,-0.4823958 0.13783,-0.03216 0.20215,-0.03216 h 0.0919 q 0.35835,0 0.51456,0.4364534 v 5.4809353 q 0,0.4134822 -0.51456,0.6569772 -0.0827,0.013783 -0.13782,0.013783 h -0.12864 q -0.41349,0 -0.69833,-0.6064405 -2.09497,-3.3124513 -2.46251,-4.0337479 -0.3262,-0.840747 -0.3262,-1.3553026 -0.0551,-0.2205238 -0.18836,-0.2205238 -0.20215,0 -0.20215,0.3124087 v 5.7795614 q -0.0643,0.1240447 -0.1562,0.1240447 h -0.0597 q -0.1562,-0.03216 -0.1562,-0.1562044 v -5.9173888 q 0.12864,-0.5145555 0.4824,-0.5145555 z"
             style="fill:#e7ebff;fill-opacity:1;stroke-width:0.26458332"
             id="path912" />
          <path
             d="m 132.46369,-9.1259973 h 0.0643 q 0.15621,0.03216 0.15621,0.1562044 v 5.7474016 q 0,0.3124088 0.16998,0.3124088 h 0.0919 q 0.17458,0 0.17458,-0.3124088 v -5.7474016 q 0.0322,-0.1562044 0.1562,-0.1562044 h 0.0597 q 0.1562,0.03216 0.1562,0.1562044 v 5.8898233 q -0.0919,0.560498 -0.54671,0.560498 h -0.0919 q -0.45483,0 -0.54671,-0.560498 v -5.8898233 q 0.0322,-0.1562044 0.1562,-0.1562044 z"
             style="fill:#e7ebff;fill-opacity:1;stroke-width:0.26458332"
             id="path914" />
          <path
             d="m 134.98134,-9.1259973 h 0.12864 q 0.32159,0 0.49617,0.4364534 1.54827,5.0720475 1.54827,5.1409612 v 0.027565 q -0.0322,0.1745814 -0.16999,0.1745814 h -0.0322 q -0.17458,0 -0.28025,-0.4686131 -1.37827,-4.6309999 -1.48394,-4.8744949 l -0.15621,-0.059725 q -0.2343,0.050537 -0.2343,0.2343065 1.66771,5.136367 1.79635,5.434993 0.1562,0.1699871 0.29403,0.1699871 h 0.11026 q 0.32619,0 0.4824,-0.6891369 l 1.97093,-5.4625584 q 0.0643,-0.064319 0.12404,-0.064319 h 0.0597 q 0.1562,0.03216 0.1562,0.1562044 v 0.045942 q 0,0.045943 -1.71825,4.856118 -0.42267,1.2496349 -0.51455,1.2496349 -0.22971,0.298626 -0.54672,0.298626 h -0.13782 q -0.51915,0 -0.76724,-0.7350794 -1.68609,-5.1363669 -1.68609,-5.2006864 v -0.1378274 q 0,-0.3170029 0.43645,-0.5191497 0.0597,-0.013783 0.12405,-0.013783 z"
             style="fill:#e7ebff;fill-opacity:1;stroke-width:0.26458332"
             id="path916" />
          <path
             d="m 140.86198,-9.1076203 h 3.42731 q 0.13782,0 0.16998,0.2021468 0,0.1653929 -0.28025,0.1883641 h -3.08274 v 5.8071269 h 2.99086 q 0.0827,0 0.10567,-0.059725 v -0.1424217 q 0,-0.055131 -0.16999,-0.078102 h -2.33388 q -0.17458,-0.022971 -0.17458,-0.169987 v -2.2741518 q 0,-0.523744 0.79481,-0.7029196 0.13323,-0.027565 0.34456,-0.027565 h 0.10567 q 0.60644,0 1.46557,0.2480893 0.0781,0.087291 0.0781,0.1562044 -0.0138,0.2021468 -0.20215,0.2021468 -0.86831,-0.2205238 -1.32314,-0.2205238 h -0.16999 q -0.70292,0.059725 -0.70292,0.3445684 v 2.0536279 h 2.05822 q 0.45943,0 0.58807,0.3307858 0.0322,0.059725 0.0322,0.1699871 v 0.078102 q 0,0.4134822 -0.49618,0.4823959 h -3.22516 q -0.15621,-0.03216 -0.15621,-0.1562044 v -6.2757399 q 0.0322,-0.1562044 0.15621,-0.1562044 z"
             style="fill:#e7ebff;fill-opacity:1;stroke-width:0.26458332"
             id="path918" />
          <path
             d="m 146.97691,-9.194911 h 0.37214 q 1.36908,0 2.03984,0.8177758 0.32619,0.4502361 0.32619,1.0015456 v 0.1883641 q 0,1.3001716 -1.61258,1.7871617 h -0.0322 v 0.013783 q 0.38592,0.243495 0.5651,0.9096607 0.22052,0.8315585 0.45483,1.2036924 0.2389,0.3767282 0.73508,0.3767282 0.11026,0.078102 0.11026,0.1562044 v 0.064319 q -0.0322,0.1562044 -0.15621,0.1562044 h -0.0781 q -1.04289,0 -1.45637,-1.9433661 -0.21134,-0.7534563 -1.00614,-0.7534563 -0.15621,0 -0.18377,-0.2021468 0,-0.1975526 0.56049,-0.2480893 1.70906,-0.3813224 1.70906,-1.5069127 v -0.2021468 q 0,-0.9693859 -1.09802,-1.3001716 -0.50077,-0.1424216 -1.04749,-0.1424216 -0.80399,0.03216 -1.30017,0.1286389 v 5.4809354 q 0,0.3124087 0.22052,0.3124087 0.20215,0 0.20215,-0.2343066 V -8.299033 q 0.0413,-0.1883641 0.18836,-0.1883641 0.20215,0.055131 0.20215,0.2021468 v 5.0904245 q 0,0.4915843 -0.37673,0.6431944 -0.0597,0.03216 -0.16998,0.03216 h -0.14243 q -0.35375,0 -0.50077,-0.4869901 V -8.877908 q 0,-0.1929583 0.59725,-0.2389008 0.42267,-0.078102 0.8775,-0.078102 z"
             style="fill:#e7ebff;fill-opacity:1;stroke-width:0.26458332"
             id="path920" />
          <path
             d="m 153.08267,-9.1995052 h 0.27106 q 0.73048,0 1.37368,0.3721339 l 0.0276,0.1102619 v 0.013783 q 0,0.1607986 -0.20674,0.1883641 -0.71211,-0.3124087 -1.32314,-0.3124087 -1.41503,0 -1.83311,0.9923571 -0.0965,0.298626 -0.0965,0.542121 v 0.064319 q 0,0.8545297 0.90967,1.1439672 0.27565,0.045942 1.1164,0.078102 0.92803,0.1745813 1.21288,0.4961786 0.4778,0.4456418 0.4778,1.0199226 v 0.1745813 q 0,0.9510089 -1.0383,1.6079861 -0.62482,0.280249 -1.20829,0.280249 h -0.28943 q -0.73049,0 -1.43341,-0.3399742 -0.19296,-0.2021468 -0.19296,-0.3583512 v -0.1056677 q 0,-0.3675396 0.3997,-0.4823958 0.0597,-0.013783 0.14242,-0.013783 0.0551,0 0.73508,0.2021468 0.2435,0.045943 0.49159,0.045943 h 0.0827 q 0.93264,0 1.08425,-0.7626449 0,-0.2940317 0.17458,-0.2940317 h 0.0322 q 0.1608,0 0.18836,0.2021468 0,0.8453413 -0.93723,1.1623442 -0.27565,0.078102 -0.57428,0.078102 h -0.0643 q -0.54671,0 -1.21288,-0.2480893 h -0.0322 q -0.12863,0 -0.12863,0.1562044 0,0.2526835 1.30936,0.3859167 1.53447,0 1.9939,-1.0704593 0.0643,-0.1929584 0.0965,-0.5421211 0,-1.0107341 -1.38747,-1.2082866 -0.93722,-0.027565 -1.24504,-0.1240447 -1.10261,-0.4272649 -1.10261,-1.4839414 v -0.050537 q 0,-0.9877629 0.84534,-1.5620436 0.61563,-0.3583512 1.34152,-0.3583512 z"
             style="fill:#e7ebff;fill-opacity:1;stroke-width:0.26458332"
             id="path922" />
          <path
             d="m 156.0965,-9.1259973 h 0.0643 q 0.1562,0.03216 0.1562,0.1562044 v 5.7474016 q 0,0.3124088 0.16999,0.3124088 h 0.0919 q 0.17459,0 0.17459,-0.3124088 v -5.7474016 q 0.0322,-0.1562044 0.1562,-0.1562044 h 0.0597 q 0.15621,0.03216 0.15621,0.1562044 v 5.8898233 q -0.0919,0.560498 -0.54672,0.560498 h -0.0919 q -0.45483,0 -0.54672,-0.560498 v -5.8898233 q 0.0322,-0.1562044 0.15621,-0.1562044 z"
             style="fill:#e7ebff;fill-opacity:1;stroke-width:0.26458332"
             id="path924" />
          <path
             d="m 158.52226,-9.1076203 h 4.02915 q 0.46861,0.1056677 0.46861,0.4548303 v 0.1562044 q 0,0.2848433 -0.39051,0.4364534 -0.0643,0.013783 -0.12864,0.013783 h -1.37368 v 5.3568908 q -0.0322,0.1699871 -0.16998,0.1699871 h -0.046 q -0.14242,0 -0.17458,-0.2021469 v -5.4947181 q 0,-0.2205238 0.22053,-0.2205238 h 1.54366 q 0.11945,0 0.14243,-0.1378274 -0.009,-0.1424216 -0.12405,-0.1424216 h -3.96483 q -0.11486,0 -0.12405,0.1424216 0.0184,0.1378274 0.13783,0.1378274 h 1.56204 q 0.1608,0 0.18837,0.2021468 v 0.018377 q 0,0.1286389 -0.17458,0.1699871 h -1.57583 q -0.37213,0 -0.51456,-0.4042936 V -8.65279 q 0,-0.3491626 0.46862,-0.4548303 z"
             style="fill:#e7ebff;fill-opacity:1;stroke-width:0.26458332"
             id="path926" />
          <path
             d="m 164.5545,-9.0892433 q 0.41807,0 0.69832,0.7304851 1.34612,2.558995 1.38287,2.6095317 1.77797,-3.082739 1.92499,-3.3078571 0.0551,-0.03216 0.0965,-0.03216 h 0.0597 q 0.15621,0.03216 0.15621,0.1562043 v 0.059725 q 0,0.050537 -1.61718,2.8116785 -0.48239,0.8637183 -0.5559,0.9004722 -0.0551,0 -0.0781,0.018377 -0.16999,0 -0.41808,-0.6064404 L 164.66476,-8.65279 q -0.0597,-0.045942 -0.1562,-0.064319 -0.14243,0 -0.20215,0.2159296 0.0505,0.1470158 1.64474,3.0322023 0.0505,0.1975525 0.0505,0.2940317 v 2.4854871 q 0,0.1010734 -0.12404,0.1699871 h -0.0965 q -0.14701,0 -0.16999,-0.2159296 v -2.4257619 q 0,-0.2113353 -0.45023,-0.9326319 l -1.21288,-2.2328035 q -0.0138,-0.087291 -0.0138,-0.1424216 v -0.1056677 q 0,-0.3170029 0.43646,-0.5145555 z"
             style="fill:#e7ebff;fill-opacity:1;stroke-width:0.26458332"
             id="path928" />
          <path
             d="m 173.51787,-9.1076203 h 0.35835 q 1.60799,0 2.15011,0.9785744 0.24809,0.4502361 0.24809,0.9188492 v 0.280249 q 0,1.3507083 -1.60339,1.888235 -0.44564,0.1056677 -0.84075,0.1056677 h -0.37673 q -0.52833,-0.082696 -0.52833,-0.4502361 v -2.8668095 q 0,-0.1378273 0.20214,-0.1699871 0.16539,0 0.18837,0.280249 0,0.3215973 -0.0184,0.4364534 0.0184,0.6477887 0.0184,1.1853155 v 0.8866894 q 0,0.064319 -0.0184,0.1699871 0,0.1424216 0.23431,0.1424216 0.0551,0 0.14242,0.013783 1.52988,0 2.08579,-1.0107341 0.14242,-0.3675397 0.14242,-0.7488621 0,-1.3461141 -1.35531,-1.5896091 -0.34916,-0.064319 -0.85912,-0.078102 -1.16694,0.041348 -1.16694,0.1562044 l -0.0184,0.091885 v 5.8117211 q -0.0276,0.1562044 -0.1562,0.1562044 h -0.0597 q -0.15621,-0.03216 -0.15621,-0.1562044 v -5.9173888 q 0,-0.3353799 0.50077,-0.4548303 0.54672,-0.059725 0.88669,-0.059725 z"
             style="fill:#e7ebff;fill-opacity:1;stroke-width:0.26458332"
             id="path930" />
          <path
             d="m 177.35867,-9.1076203 h 0.0597 q 0.17458,0 0.17458,0.298626 v 5.7152419 q 0,0.1837699 0.15621,0.1837699 h 0.0919 q 0.16999,0 0.16999,-0.2802491 v -2.4257618 q 0,-0.4410476 0.59266,-0.6248174 0.12404,-0.03216 0.26646,-0.03216 h 0.15621 q 0.27106,0 1.16694,0.2021469 0.0735,0.018377 0.20214,0.018377 h 0.15621 q 0.38591,0 0.45023,-0.2664662 v -2.053628 q 0,-0.5834692 0.42267,-0.7167023 l 0.0919,-0.018377 h 0.13783 q 0.45483,0 0.54671,0.560498 v 5.8714463 q -0.0322,0.1562044 -0.1562,0.1562044 h -0.0597 q -0.17458,0 -0.17458,-0.2940318 v -5.7152419 q 0,-0.1883641 -0.1562,-0.1883641 h -0.0919 q -0.16998,0 -0.16998,0.280249 v 2.1179474 q 0,0.5099613 -0.74887,0.6523829 h -0.2343 q -0.28485,0 -1.16694,-0.2021468 l -0.29403,-0.03216 q -0.47321,0 -0.54672,0.2848432 v 2.3200942 q 0,0.6431944 -0.42267,0.7626448 l -0.0919,0.013783 h -0.13783 q -0.45483,0 -0.54672,-0.560498 v -5.8714463 q 0.0322,-0.1562044 0.15621,-0.1562044 z"
             style="fill:#e7ebff;fill-opacity:1;stroke-width:0.26458332"
             id="path932" />
          <path
             d="m 183.74007,-9.0892433 q 0.41808,0 0.69833,0.7304851 1.34611,2.558995 1.38287,2.6095317 1.77797,-3.082739 1.92499,-3.3078571 0.0551,-0.03216 0.0965,-0.03216 h 0.0597 q 0.15621,0.03216 0.15621,0.1562043 v 0.059725 q 0,0.050537 -1.61718,2.8116785 -0.48239,0.8637183 -0.5559,0.9004722 -0.0551,0 -0.0781,0.018377 -0.16999,0 -0.41808,-0.6064404 L 183.85034,-8.65279 q -0.0597,-0.045942 -0.15621,-0.064319 -0.14242,0 -0.20214,0.2159296 0.0505,0.1470158 1.64474,3.0322023 0.0505,0.1975525 0.0505,0.2940317 v 2.4854871 q 0,0.1010734 -0.12404,0.1699871 h -0.0965 q -0.14702,0 -0.16999,-0.2159296 v -2.4257619 q 0,-0.2113353 -0.45023,-0.9326319 l -1.21289,-2.2328035 q -0.0138,-0.087291 -0.0138,-0.1424216 v -0.1056677 q 0,-0.3170029 0.43646,-0.5145555 z"
             style="fill:#e7ebff;fill-opacity:1;stroke-width:0.26458332"
             id="path934" />
          <path
             d="m 191.21491,-9.1995052 h 0.27106 q 0.73049,0 1.37368,0.3721339 l 0.0276,0.1102619 v 0.013783 q 0,0.1607986 -0.20674,0.1883641 -0.71211,-0.3124087 -1.32314,-0.3124087 -1.41503,0 -1.83311,0.9923571 -0.0965,0.298626 -0.0965,0.542121 v 0.064319 q 0,0.8545297 0.90966,1.1439672 0.27566,0.045942 1.1164,0.078102 0.92804,0.1745813 1.21289,0.4961786 0.4778,0.4456418 0.4778,1.0199226 v 0.1745813 q 0,0.9510089 -1.0383,1.6079861 -0.62482,0.280249 -1.20829,0.280249 h -0.28944 q -0.73048,0 -1.4334,-0.3399742 -0.19296,-0.2021468 -0.19296,-0.3583512 v -0.1056677 q 0,-0.3675396 0.3997,-0.4823958 0.0597,-0.013783 0.14242,-0.013783 0.0551,0 0.73508,0.2021468 0.2435,0.045943 0.49159,0.045943 h 0.0827 q 0.93263,0 1.08424,-0.7626449 0,-0.2940317 0.17459,-0.2940317 h 0.0322 q 0.1608,0 0.18837,0.2021468 0,0.8453413 -0.93723,1.1623442 -0.27565,0.078102 -0.57428,0.078102 h -0.0643 q -0.54671,0 -1.21288,-0.2480893 h -0.0322 q -0.12864,0 -0.12864,0.1562044 0,0.2526835 1.30936,0.3859167 1.53448,0 1.99391,-1.0704593 0.0643,-0.1929584 0.0965,-0.5421211 0,-1.0107341 -1.38746,-1.2082866 -0.93722,-0.027565 -1.24504,-0.1240447 -1.10262,-0.4272649 -1.10262,-1.4839414 v -0.050537 q 0,-0.9877629 0.84534,-1.5620436 0.61563,-0.3583512 1.34152,-0.3583512 z"
             style="fill:#e7ebff;fill-opacity:1;stroke-width:0.26458332"
             id="path936" />
          <path
             d="m 194.22874,-9.1259973 h 0.0643 q 0.1562,0.03216 0.1562,0.1562044 v 5.7474016 q 0,0.3124088 0.16999,0.3124088 h 0.0919 q 0.17459,0 0.17459,-0.3124088 v -5.7474016 q 0.0322,-0.1562044 0.1562,-0.1562044 h 0.0597 q 0.1562,0.03216 0.1562,0.1562044 v 5.8898233 q -0.0919,0.560498 -0.54672,0.560498 h -0.0919 q -0.45483,0 -0.54672,-0.560498 v -5.8898233 q 0.0322,-0.1562044 0.15621,-0.1562044 z"
             style="fill:#e7ebff;fill-opacity:1;stroke-width:0.26458332"
             id="path938" />
          <path
             d="m 199.40186,-9.1076203 h 0.28944 q 0.62482,0 1.35071,0.2894375 0.0781,0.078102 0.0781,0.1378274 v 0.087291 q -0.0643,0.1240447 -0.16539,0.1240447 h -0.0322 q -0.73508,-0.2756548 -1.39665,-0.2756548 -1.84689,0 -2.67385,1.5666379 -0.30322,0.6477887 -0.30322,1.5482609 0,1.065865 0.73048,1.943366 0.83156,0.803993 2.06282,0.803993 0.69373,0 1.30476,-0.2159295 0.0322,-0.045942 0.0322,-0.073508 -0.0184,-0.1378273 -0.13782,-0.1378273 -0.62482,0.1240446 -1.02911,0.1240446 h -0.11027 q -1.62636,0 -2.20064,-1.382868 -0.19755,-0.5053671 -0.19755,-1.1072133 V -5.813546 q 0,-0.1378274 0.19755,-0.1653928 0.14702,0 0.18377,0.225118 v 0.059725 q 0,1.4425932 1.03371,1.9295833 0.43645,0.1975526 0.96938,0.1975526 h 0.13783 q 0.36754,0 0.96938,-0.1194504 h 0.0459 q 0.51915,0.064319 0.51915,0.5145555 0,0.4686131 -0.804,0.5742808 -0.42267,0.078102 -0.74426,0.078102 h -0.33538 q -1.16235,0 -2.10876,-0.8499355 -0.8821,-0.9739802 -0.8821,-2.1868611 v -0.317003 q 0,-1.5620436 1.21288,-2.5681834 0.90047,-0.6661657 2.00309,-0.6661657 z"
             style="fill:#e7ebff;fill-opacity:1;stroke-width:0.26458332"
             id="path940" />
          <path
             d="m 204.28095,-9.1995052 h 0.27106 q 0.73049,0 1.37368,0.3721339 l 0.0276,0.1102619 v 0.013783 q 0,0.1607986 -0.20674,0.1883641 -0.71211,-0.3124087 -1.32314,-0.3124087 -1.41503,0 -1.83311,0.9923571 -0.0965,0.298626 -0.0965,0.542121 v 0.064319 q 0,0.8545297 0.90966,1.1439672 0.27566,0.045942 1.1164,0.078102 0.92804,0.1745813 1.21289,0.4961786 0.4778,0.4456418 0.4778,1.0199226 v 0.1745813 q 0,0.9510089 -1.0383,1.6079861 -0.62482,0.280249 -1.20829,0.280249 h -0.28944 q -0.73048,0 -1.4334,-0.3399742 -0.19296,-0.2021468 -0.19296,-0.3583512 v -0.1056677 q 0,-0.3675396 0.3997,-0.4823958 0.0597,-0.013783 0.14242,-0.013783 0.0551,0 0.73508,0.2021468 0.2435,0.045943 0.49159,0.045943 h 0.0827 q 0.93263,0 1.08424,-0.7626449 0,-0.2940317 0.17459,-0.2940317 h 0.0322 q 0.1608,0 0.18837,0.2021468 0,0.8453413 -0.93723,1.1623442 -0.27565,0.078102 -0.57428,0.078102 h -0.0643 q -0.54671,0 -1.21288,-0.2480893 h -0.0322 q -0.12864,0 -0.12864,0.1562044 0,0.2526835 1.30936,0.3859167 1.53448,0 1.99391,-1.0704593 0.0643,-0.1929584 0.0965,-0.5421211 0,-1.0107341 -1.38747,-1.2082866 -0.93722,-0.027565 -1.24504,-0.1240447 -1.10262,-0.4272649 -1.10262,-1.4839414 v -0.050537 q 0,-0.9877629 0.84534,-1.5620436 0.61563,-0.3583512 1.34152,-0.3583512 z"
             style="fill:#e7ebff;fill-opacity:1;stroke-width:0.26458332"
             id="path942" />
          <path
             d="m 211.70526,-9.1995052 h 0.27106 q 0.73048,0 1.37368,0.3721339 l 0.0276,0.1102619 v 0.013783 q 0,0.1607986 -0.20674,0.1883641 -0.71211,-0.3124087 -1.32314,-0.3124087 -1.41503,0 -1.83311,0.9923571 -0.0965,0.298626 -0.0965,0.542121 v 0.064319 q 0,0.8545297 0.90966,1.1439672 0.27566,0.045942 1.11641,0.078102 0.92803,0.1745813 1.21288,0.4961786 0.4778,0.4456418 0.4778,1.0199226 v 0.1745813 q 0,0.9510089 -1.0383,1.6079861 -0.62482,0.280249 -1.20829,0.280249 h -0.28944 q -0.73048,0 -1.4334,-0.3399742 -0.19296,-0.2021468 -0.19296,-0.3583512 v -0.1056677 q 0,-0.3675396 0.3997,-0.4823958 0.0597,-0.013783 0.14242,-0.013783 0.0551,0 0.73508,0.2021468 0.2435,0.045943 0.49159,0.045943 h 0.0827 q 0.93263,0 1.08424,-0.7626449 0,-0.2940317 0.17459,-0.2940317 h 0.0322 q 0.16079,0 0.18836,0.2021468 0,0.8453413 -0.93723,1.1623442 -0.27565,0.078102 -0.57428,0.078102 h -0.0643 q -0.54671,0 -1.21288,-0.2480893 h -0.0322 q -0.12864,0 -0.12864,0.1562044 0,0.2526835 1.30936,0.3859167 1.53448,0 1.99391,-1.0704593 0.0643,-0.1929584 0.0965,-0.5421211 0,-1.0107341 -1.38747,-1.2082866 -0.93722,-0.027565 -1.24504,-0.1240447 -1.10262,-0.4272649 -1.10262,-1.4839414 v -0.050537 q 0,-0.9877629 0.84535,-1.5620436 0.61562,-0.3583512 1.34152,-0.3583512 z"
             style="fill:#e7ebff;fill-opacity:1;stroke-width:0.26458332"
             id="path944" />
          <path
             d="m 217.39293,-9.1076203 h 0.27566 q 1.55285,0 2.36144,1.4701587 0.3951,0.8729067 0.3951,1.6355515 v 0.1516102 q -0.0965,0.5742807 -0.56049,0.5742807 h -0.0597 q -0.3997,0 -0.5605,-0.4823958 0,-1.2955774 -0.73048,-2.0030912 -0.42727,-0.3445685 -0.99695,-0.3445685 -1.13938,0 -1.56205,1.2082867 -0.21133,0.6477887 -0.21133,1.1990982 -0.0919,0.1056676 -0.1654,0.1056676 -0.19755,-0.027565 -0.19755,-0.1653928 v -0.03216 q 0,-1.1807212 0.67995,-2.0582222 0.58347,-0.6386002 1.44259,-0.6386002 1.53448,0 2.01228,1.8009444 0.0735,0.3537569 0.10567,0.895878 0.0781,0.1378273 0.16539,0.1378273 h 0.0597 q 0.17458,0 0.21593,-0.2297123 0,-1.1301845 -0.66617,-2.0582221 -0.68913,-0.7902103 -1.74581,-0.7902103 h -0.10567 q -0.0138,0 -0.0138,-0.013783 l -0.0276,0.013783 h -0.11026 q -1.53907,0 -2.20983,1.6539285 -0.25728,0.803993 -0.25728,1.3461141 0,0.9556031 0.51456,1.8468868 0.69832,0.9877629 1.86526,0.9877629 h 0.0873 q 0.0367,0 0.0643,0.013783 0.023,-0.013783 0.0597,-0.013783 h 0.0459 q 1.38746,0 2.11795,-1.3047659 0.11485,-0.1837698 0.27565,-0.6799484 0.0919,-0.059725 0.15161,-0.059725 0.17918,0.041348 0.17918,0.1791755 v 0.013783 q -0.27566,1.0474881 -0.98317,1.6079861 -0.77643,0.6202232 -1.72744,0.6202232 h -0.25728 q -1.50232,0 -2.30171,-1.3461141 -0.45483,-0.8866895 -0.45483,-1.7733789 v -0.1975526 q 0,-1.084242 0.67994,-2.1638898 0.84535,-1.1072133 2.15011,-1.1072133 z"
             style="fill:#e7ebff;fill-opacity:1;stroke-width:0.26458332"
             id="path946" />
          <path
             d="m 224.55994,-9.1076203 h 0.28944 q 0.62482,0 1.35071,0.2894375 0.0781,0.078102 0.0781,0.1378274 v 0.087291 q -0.0643,0.1240447 -0.16539,0.1240447 h -0.0322 q -0.73508,-0.2756548 -1.39665,-0.2756548 -1.84689,0 -2.67385,1.5666379 -0.30322,0.6477887 -0.30322,1.5482609 0,1.065865 0.73048,1.943366 0.83156,0.803993 2.06282,0.803993 0.69373,0 1.30477,-0.2159295 0.0322,-0.045942 0.0322,-0.073508 -0.0184,-0.1378273 -0.13783,-0.1378273 -0.62482,0.1240446 -1.02911,0.1240446 h -0.11027 q -1.62636,0 -2.20064,-1.382868 -0.19755,-0.5053671 -0.19755,-1.1072133 V -5.813546 q 0,-0.1378274 0.19755,-0.1653928 0.14702,0 0.18377,0.225118 v 0.059725 q 0,1.4425932 1.03371,1.9295833 0.43645,0.1975526 0.96938,0.1975526 h 0.13783 q 0.36754,0 0.96939,-0.1194504 h 0.0459 q 0.51915,0.064319 0.51915,0.5145555 0,0.4686131 -0.804,0.5742808 -0.42267,0.078102 -0.74426,0.078102 h -0.33538 q -1.16235,0 -2.10876,-0.8499355 -0.8821,-0.9739802 -0.8821,-2.1868611 v -0.317003 q 0,-1.5620436 1.21288,-2.5681834 0.90048,-0.6661657 2.00309,-0.6661657 z"
             style="fill:#e7ebff;fill-opacity:1;stroke-width:0.26458332"
             id="path948" />
          <path
             d="m 227.36244,-9.1259973 h 0.0643 q 0.1562,0.03216 0.1562,0.1562044 v 5.7474016 q 0,0.3124088 0.16999,0.3124088 h 0.0919 q 0.17458,0 0.17458,-0.3124088 v -5.7474016 q 0.0322,-0.1562044 0.15621,-0.1562044 h 0.0597 q 0.15621,0.03216 0.15621,0.1562044 v 5.8898233 q -0.0919,0.560498 -0.54672,0.560498 h -0.0919 q -0.45483,0 -0.54672,-0.560498 v -5.8898233 q 0.0322,-0.1562044 0.15621,-0.1562044 z"
             style="fill:#e7ebff;fill-opacity:1;stroke-width:0.26458332"
             id="path950" />
          <path
             d="m 229.47579,-9.1076203 h 3.42731 q 0.13783,0 0.16999,0.2021468 0,0.1653929 -0.28025,0.1883641 h -3.08274 v 5.8071269 h 2.99085 q 0.0827,0 0.10567,-0.059725 v -0.1424217 q 0,-0.055131 -0.16999,-0.078102 h -2.33387 q -0.17458,-0.022971 -0.17458,-0.169987 v -2.2741518 q 0,-0.523744 0.7948,-0.7029196 0.13323,-0.027565 0.34457,-0.027565 h 0.10567 q 0.60644,0 1.46556,0.2480893 0.0781,0.087291 0.0781,0.1562044 -0.0138,0.2021468 -0.20214,0.2021468 -0.86832,-0.2205238 -1.32315,-0.2205238 h -0.16998 q -0.70292,0.059725 -0.70292,0.3445684 v 2.0536279 h 2.05822 q 0.45942,0 0.58806,0.3307858 0.0322,0.059725 0.0322,0.1699871 v 0.078102 q 0,0.4134822 -0.49618,0.4823959 h -3.22516 q -0.1562,-0.03216 -0.1562,-0.1562044 v -6.2757399 q 0.0322,-0.1562044 0.1562,-0.1562044 z"
             style="fill:#e7ebff;fill-opacity:1;stroke-width:0.26458332"
             id="path952" />
          <path
             d="m 234.58459,-9.1076203 h 4.02915 q 0.46862,0.1056677 0.46862,0.4548303 v 0.1562044 q 0,0.2848433 -0.39052,0.4364534 -0.0643,0.013783 -0.12863,0.013783 h -1.37368 v 5.3568908 q -0.0322,0.1699871 -0.16999,0.1699871 h -0.0459 q -0.14242,0 -0.17458,-0.2021469 v -5.4947181 q 0,-0.2205238 0.22052,-0.2205238 h 1.54367 q 0.11945,0 0.14242,-0.1378274 -0.009,-0.1424216 -0.12405,-0.1424216 h -3.96483 q -0.11486,0 -0.12405,0.1424216 0.0184,0.1378274 0.13783,0.1378274 h 1.56205 q 0.16079,0 0.18836,0.2021468 v 0.018377 q 0,0.1286389 -0.17458,0.1699871 h -1.57583 q -0.37213,0 -0.51455,-0.4042936 V -8.65279 q 0,-0.3491626 0.46861,-0.4548303 z"
             style="fill:#e7ebff;fill-opacity:1;stroke-width:0.26458332"
             id="path954" />
          <path
             d="m 240.61684,-9.0892433 q 0.41808,0 0.69833,0.7304851 1.34611,2.558995 1.38287,2.6095317 1.77797,-3.082739 1.92499,-3.3078571 0.0551,-0.03216 0.0965,-0.03216 h 0.0597 q 0.15621,0.03216 0.15621,0.1562043 v 0.059725 q 0,0.050537 -1.61718,2.8116785 -0.48239,0.8637183 -0.5559,0.9004722 -0.0551,0 -0.0781,0.018377 -0.16999,0 -0.41808,-0.6064404 L 240.72711,-8.65279 q -0.0597,-0.045942 -0.15621,-0.064319 -0.14242,0 -0.20214,0.2159296 0.0505,0.1470158 1.64474,3.0322023 0.0505,0.1975525 0.0505,0.2940317 v 2.4854871 q 0,0.1010734 -0.12404,0.1699871 h -0.0965 q -0.14702,0 -0.16999,-0.2159296 v -2.4257619 q 0,-0.2113353 -0.45023,-0.9326319 l -1.21289,-2.2328035 q -0.0138,-0.087291 -0.0138,-0.1424216 v -0.1056677 q 0,-0.3170029 0.43646,-0.5145555 z"
             style="fill:#e7ebff;fill-opacity:1;stroke-width:0.26458332"
             id="path956" />
        </g>
      </g>
    </g>
  </g>
</svg>
