<?xml version="1.0" encoding="UTF-8" standalone="no"?>
<!-- Created with Inkscape (http://www.inkscape.org/) -->

<svg
   xmlns:dc="http://purl.org/dc/elements/1.1/"
   xmlns:cc="http://creativecommons.org/ns#"
   xmlns:rdf="http://www.w3.org/1999/02/22-rdf-syntax-ns#"
   xmlns:svg="http://www.w3.org/2000/svg"
   xmlns="http://www.w3.org/2000/svg"
   xmlns:sodipodi="http://sodipodi.sourceforge.net/DTD/sodipodi-0.dtd"
   xmlns:inkscape="http://www.inkscape.org/namespaces/inkscape"
   width="130.44887mm"
   height="37.020218mm"
   viewBox="0 0 130.44887 37.020218"
   version="1.1"
   id="svg8"
   inkscape:version="0.92.4 (5da689c313, 2019-01-14)"
   sodipodi:docname="NEONPhysics3.svg">
  <defs
     id="defs2">
    <filter
       inkscape:collect="always"
       style="color-interpolation-filters:sRGB"
       id="filter1248"
       x="-0.057657655"
       width="1.1153153"
       y="-0.28656718"
       height="1.5731343">
      <feGaussianBlur
         inkscape:collect="always"
         stdDeviation="2.809884"
         id="feGaussianBlur1250" />
    </filter>
    <filter
       inkscape:collect="always"
       style="color-interpolation-filters:sRGB"
       id="filter1204"
       x="-0.014414414"
       width="1.0288289"
       y="-0.071641795"
       height="1.1432836">
      <feGaussianBlur
         inkscape:collect="always"
         stdDeviation="0.70247099"
         id="feGaussianBlur1206" />
    </filter>
  </defs>
  <sodipodi:namedview
     id="base"
     pagecolor="#ffffff"
     bordercolor="#666666"
     borderopacity="1.0"
     inkscape:pageopacity="0.0"
     inkscape:pageshadow="2"
     inkscape:zoom="0.98994949"
     inkscape:cx="265.89333"
     inkscape:cy="38.401646"
     inkscape:document-units="mm"
     inkscape:current-layer="text1423"
     showgrid="false"
     fit-margin-top="0"
     fit-margin-left="0"
     fit-margin-right="0"
     fit-margin-bottom="0"
     inkscape:window-width="1920"
     inkscape:window-height="986"
     inkscape:window-x="-11"
     inkscape:window-y="-11"
     inkscape:window-maximized="1" />
  <metadata
     id="metadata5">
    <rdf:RDF>
      <cc:Work
         rdf:about="">
        <dc:format>image/svg+xml</dc:format>
        <dc:type
           rdf:resource="http://purl.org/dc/dcmitype/StillImage" />
        <dc:title></dc:title>
      </cc:Work>
    </rdf:RDF>
  </metadata>
  <g
     inkscape:label="Layer 1"
     inkscape:groupmode="layer"
     id="layer1"
     transform="translate(-51.192234,-150.73394)">
    <g
       id="g1427"
       transform="translate(84.620052,272.00849)">
      <g
         style="opacity:0.7;fill:#ff0418;fill-opacity:1;filter:url(#filter1248)"
         transform="translate(-81.642861,-96.950893)"
         id="g1413">
        <g
           aria-label="PHYSOC"
           style="font-style:normal;font-variant:normal;font-weight:normal;font-stretch:normal;font-size:32.69683075px;line-height:1.25;font-family:Clip;-inkscape-font-specification:Clip;letter-spacing:0px;word-spacing:0px;fill:#ff0418;fill-opacity:1;stroke:none;stroke-width:0.26458332"
           id="text1411">
          <path
             d="m 59.78027,-17.26063 h 1.24529 q 5.587837,0 7.471736,3.400598 0.862124,1.564595 0.862124,3.19305 v 0.9738804 q 0,4.6937833 -5.571872,6.5617175 -1.54863,0.3672007 -2.921641,0.3672007 h -1.30915 q -1.836004,-0.2873745 -1.836004,-1.5645944 v -9.9623152 q 0,-0.478958 0.702471,-0.590715 0.574749,0 0.654575,0.973881 0,1.117567 -0.06386,1.516698 0.06386,2.2511 0.06386,4.1190346 v 3.0812931 q 0,0.2235135 -0.06386,0.5907142 0,0.4949227 0.814228,0.4949227 0.191583,0 0.494923,0.047896 5.316428,0 7.248223,-3.5123549 0.494923,-1.2772199 0.494923,-2.6023355 0,-4.677818 -4.709749,-5.523976 -1.213359,-0.223514 -2.985502,-0.27141 -4.055173,0.143688 -4.055173,0.542819 l -0.06386,0.319305 V 5.0907193 q -0.09579,0.5428185 -0.542819,0.5428185 H 55.501583 Q 54.958765,5.521781 54.958765,5.0907193 V -15.472522 q 0,-1.165463 1.740212,-1.58056 1.899865,-0.207548 3.081293,-0.207548 z"
             style="fill:#ff0418;fill-opacity:1;stroke-width:0.26458332"
             id="path826" />
          <path
             d="m 73.127218,-17.26063 h 0.207549 q 0.606679,0 0.606679,1.037741 V 3.6378816 q 0,0.63861 0.542819,0.63861 h 0.319305 q 0.590714,0 0.590714,-0.9738802 v -8.4296517 q 0,-1.532664 2.059517,-2.1712739 0.431062,-0.1117568 0.925984,-0.1117568 h 0.542819 q 0.94195,0 4.055173,0.702471 0.255444,0.063861 0.702471,0.063861 h 0.542819 q 1.341081,0 1.564594,-0.9259845 V -14.70619 q 0,-2.027587 1.468803,-2.490579 l 0.319305,-0.06386 h 0.478958 q 1.580559,0 1.899864,1.947761 V 5.0907193 q -0.111756,0.5428185 -0.542818,0.5428185 h -0.207548 q -0.60668,0 -0.60668,-1.021776 V -15.249008 q 0,-0.654576 -0.542818,-0.654576 h -0.319305 q -0.590715,0 -0.590715,0.973881 v 7.3599795 q 0,1.7721427 -2.602335,2.2670654 h -0.814228 q -0.989845,0 -4.055173,-0.7024709 l -1.021776,-0.1117568 q -1.644421,0 -1.899865,0.9898455 v 8.0624509 q 0,2.2351349 -1.468803,2.6502314 l -0.319305,0.047896 h -0.478957 q -1.58056,0 -1.899865,-1.9477605 V -16.717811 q 0.111757,-0.542819 0.542818,-0.542819 z"
             style="fill:#ff0418;fill-opacity:1;stroke-width:0.26458332"
             id="path828" />
          <path
             d="m 95.302951,-17.196769 q 1.452837,0 2.426717,2.538475 4.677822,8.8926437 4.805542,9.0682614 6.17855,-10.7126824 6.68944,-11.4949794 0.19158,-0.111757 0.33527,-0.111757 h 0.20755 q 0.54281,0.111757 0.54281,0.542819 v 0.207548 q 0,0.175618 -5.61976,9.7707325 -1.67635,3.0014669 -1.9318,3.1291889 -0.19158,0 -0.27141,0.063861 -0.59071,0 -1.45283,-2.107413 L 95.686117,-15.68007 q -0.207549,-0.159653 -0.542819,-0.223514 -0.494923,0 -0.702471,0.750367 0.175618,0.510888 5.715563,10.5370647 0.17561,0.6865057 0.17561,1.0217759 v 8.6371999 q 0,0.3512355 -0.431058,0.5907143 h -0.33527 q -0.510888,0 -0.590714,-0.7503668 v -8.4296516 q 0,-0.7344015 -1.564595,-3.2409457 l -4.214825,-7.7591107 q -0.0479,-0.30334 -0.0479,-0.494923 v -0.367201 q 0,-1.101602 1.516699,-1.788108 z"
             style="fill:#ff0418;fill-opacity:1;stroke-width:0.26458332"
             id="path830" />
          <path
             d="m 121.27841,-17.579935 h 0.94195 q 2.53848,0 4.77361,1.293185 l 0.0958,0.383166 v 0.0479 q 0,0.558784 -0.71843,0.654575 -2.47462,-1.085637 -4.598,-1.085637 -4.91729,0 -6.37013,3.448494 -0.33527,1.037741 -0.33527,1.8839 v 0.223513 q 0,2.9695365 3.16112,3.9753472 0.95791,0.1596525 3.87955,0.2714093 3.22498,0.6066795 4.21483,1.7242469 1.66039,1.5486292 1.66039,3.5442854 v 0.60667946 q 0,3.30480664 -3.60815,5.58783724 -2.17127,0.9738803 -4.19886,0.9738803 H 119.171 q -2.53848,0 -4.98116,-1.1814285 -0.67054,-0.702471 -0.67054,-1.2452895 V 3.1589241 q 0,-1.2772199 1.38898,-1.6763512 0.20755,-0.047896 0.49492,-0.047896 0.19158,0 2.55444,0.702471 0.84616,0.1596524 1.70828,0.1596524 h 0.28738 q 3.24094,0 3.76779,-2.65023135 0,-1.02177595 0.60668,-1.02177595 h 0.11176 q 0.55878,0 0.65458,0.70247096 0,2.93760584 -3.25691,4.03920814 -0.95792,0.2714092 -1.99566,0.2714092 h -0.22351 q -1.89987,0 -4.21483,-0.8621235 h -0.11176 q -0.44702,0 -0.44702,0.5428185 0,0.8780887 4.55009,1.341081 5.3324,0 6.92892,-3.71990315 0.22351,-0.67054048 0.33527,-1.88389943 0,-3.51235482 -4.8215,-4.19886062 -3.25692,-0.095791 -4.32659,-0.4310617 -3.83166,-1.4847682 -3.83166,-5.1567757 v -0.175618 q 0,-3.432528 2.93761,-5.428184 2.13934,-1.24529 4.66185,-1.24529 z"
             style="fill:#ff0418;fill-opacity:1;stroke-width:0.26458332"
             id="path832" />
          <path
             d="m 141.04339,-17.26063 h 0.95791 q 5.39626,0 8.20614,5.10888 1.37301,3.0333973 1.37301,5.6836287 v 0.5268533 q -0.33527,1.9956561 -1.94776,1.9956561 h -0.20755 q -1.38897,0 -1.94776,-1.6763512 0,-4.5021999 -2.53847,-6.9608489 -1.48477,-1.197393 -3.46446,-1.197393 -3.95938,0 -5.42818,4.1988601 -0.73441,2.2511002 -0.73441,4.1669301 -0.3193,0.3672007 -0.57474,0.3672007 -0.68651,-0.095792 -0.68651,-0.574749 v -0.1117567 q 0,-4.1030691 2.36286,-7.1524322 2.02758,-2.219169 5.01308,-2.219169 5.3324,0 6.99278,6.2583776 0.25545,1.2293242 0.3672,3.1132236 0.27141,0.4789575 0.57475,0.4789575 h 0.20755 q 0.60668,0 0.75037,-0.7982625 0,-3.9274513 -2.31496,-7.1524322 -2.39479,-2.746022 -6.0668,-2.746022 h -0.3672 q -0.0479,0 -0.0479,-0.0479 l -0.0958,0.0479 h -0.38316 q -5.34836,0 -7.67929,5.747489 -0.89405,2.793919 -0.89405,4.6778184 0,3.3207719 1.78811,6.4180303 2.42672,3.4325286 6.48189,3.4325286 h 0.30334 q 0.12772,0 0.22351,0.047896 0.0798,-0.047896 0.20755,-0.047896 h 0.15965 q 4.82151,0 7.35998,-4.53413081 0.39913,-0.63860997 0.95792,-2.36285689 0.3193,-0.2075483 0.52685,-0.2075483 0.62265,0.1436873 0.62265,0.6226448 v 0.047896 q -0.95792,3.6400769 -3.41657,5.5878373 -2.69812,2.1553087 -6.00293,2.1553087 h -0.89406 q -5.22063,0 -7.99859,-4.6778181 -1.58055,-3.0812931 -1.58055,-6.1625863 v -0.6865057 q 0,-3.7677988 2.36285,-7.5196327 2.93761,-3.847625 7.47174,-3.847625 z"
             style="fill:#ff0418;fill-opacity:1;stroke-width:0.26458332"
             id="path834" />
          <path
             d="m 165.94918,-17.26063 h 1.00581 q 2.17128,0 4.69379,1.005811 0.27141,0.271409 0.27141,0.478957 v 0.30334 q -0.22352,0.431062 -0.57475,0.431062 h -0.11176 q -2.55444,-0.957915 -4.85344,-0.957915 -6.41803,0 -9.29177,5.44415 -1.05371,2.2511001 -1.05371,5.3802889 0,3.7039379 2.53848,6.7533005 2.88971,2.7939187 7.16839,2.7939187 2.41076,0 4.53413,-0.7503668 0.11176,-0.1596524 0.11176,-0.2554439 -0.0639,-0.4789575 -0.47896,-0.4789575 -2.17127,0.4310617 -3.57621,0.4310617 h -0.38317 q -5.6517,0 -7.64735,-4.8055401 -0.68651,-1.7561774 -0.68651,-3.8476251 V -5.813546 q 0,-0.4789575 0.68651,-0.574749 0.51089,0 0.63861,0.7822972 v 0.2075482 q 0,5.01308835 3.59218,6.7054048 1.5167,0.6865057 3.36867,0.6865057 h 0.47895 q 1.27722,0 3.36867,-0.4150965 h 0.15965 q 1.80408,0.2235135 1.80408,1.788108 0,1.6284554 -2.79392,1.9956561 -1.4688,0.2714093 -2.58637,0.2714093 h -1.16546 q -4.03921,0 -7.32805,-2.9535712 -3.06533,-3.38463284 -3.06533,-7.5994587 v -1.1016022 q 0,-5.4281847 4.21482,-8.9245747 3.12919,-2.314961 6.96085,-2.314961 z"
             style="fill:#ff0418;fill-opacity:1;stroke-width:0.26458332"
             id="path836" />
        </g>
      </g>
      <g
         id="g1419"
         transform="translate(-81.642861,-96.950893)"
         style="opacity:0.9;fill:#ff0418;fill-opacity:1;filter:url(#filter1204)">
        <g
           aria-label="PHYSOC"
           style="font-style:normal;font-variant:normal;font-weight:normal;font-stretch:normal;font-size:32.69683075px;line-height:1.25;font-family:Clip;-inkscape-font-specification:Clip;letter-spacing:0px;word-spacing:0px;fill:#ff0418;fill-opacity:1;stroke:none;stroke-width:0.26458332"
           id="text1417">
          <path
             d="m 59.78027,-17.26063 h 1.24529 q 5.587837,0 7.471736,3.400598 0.862124,1.564595 0.862124,3.19305 v 0.9738804 q 0,4.6937833 -5.571872,6.5617175 -1.54863,0.3672007 -2.921641,0.3672007 h -1.30915 q -1.836004,-0.2873745 -1.836004,-1.5645944 v -9.9623152 q 0,-0.478958 0.702471,-0.590715 0.574749,0 0.654575,0.973881 0,1.117567 -0.06386,1.516698 0.06386,2.2511 0.06386,4.1190346 v 3.0812931 q 0,0.2235135 -0.06386,0.5907142 0,0.4949227 0.814228,0.4949227 0.191583,0 0.494923,0.047896 5.316428,0 7.248223,-3.5123549 0.494923,-1.2772199 0.494923,-2.6023355 0,-4.677818 -4.709749,-5.523976 -1.213359,-0.223514 -2.985502,-0.27141 -4.055173,0.143688 -4.055173,0.542819 l -0.06386,0.319305 V 5.0907193 q -0.09579,0.5428185 -0.542819,0.5428185 H 55.501583 Q 54.958765,5.521781 54.958765,5.0907193 V -15.472522 q 0,-1.165463 1.740212,-1.58056 1.899865,-0.207548 3.081293,-0.207548 z"
             style="fill:#ff0418;fill-opacity:1;stroke-width:0.26458332"
             id="path839" />
          <path
             d="m 73.127218,-17.26063 h 0.207549 q 0.606679,0 0.606679,1.037741 V 3.6378816 q 0,0.63861 0.542819,0.63861 h 0.319305 q 0.590714,0 0.590714,-0.9738802 v -8.4296517 q 0,-1.532664 2.059517,-2.1712739 0.431062,-0.1117568 0.925984,-0.1117568 h 0.542819 q 0.94195,0 4.055173,0.702471 0.255444,0.063861 0.702471,0.063861 h 0.542819 q 1.341081,0 1.564594,-0.9259845 V -14.70619 q 0,-2.027587 1.468803,-2.490579 l 0.319305,-0.06386 h 0.478958 q 1.580559,0 1.899864,1.947761 V 5.0907193 q -0.111756,0.5428185 -0.542818,0.5428185 h -0.207548 q -0.60668,0 -0.60668,-1.021776 V -15.249008 q 0,-0.654576 -0.542818,-0.654576 h -0.319305 q -0.590715,0 -0.590715,0.973881 v 7.3599795 q 0,1.7721427 -2.602335,2.2670654 h -0.814228 q -0.989845,0 -4.055173,-0.7024709 l -1.021776,-0.1117568 q -1.644421,0 -1.899865,0.9898455 v 8.0624509 q 0,2.2351349 -1.468803,2.6502314 l -0.319305,0.047896 h -0.478957 q -1.58056,0 -1.899865,-1.9477605 V -16.717811 q 0.111757,-0.542819 0.542818,-0.542819 z"
             style="fill:#ff0418;fill-opacity:1;stroke-width:0.26458332"
             id="path841" />
          <path
             d="m 95.302951,-17.196769 q 1.452837,0 2.426717,2.538475 4.677822,8.8926437 4.805542,9.0682614 6.17855,-10.7126824 6.68944,-11.4949794 0.19158,-0.111757 0.33527,-0.111757 h 0.20755 q 0.54281,0.111757 0.54281,0.542819 v 0.207548 q 0,0.175618 -5.61976,9.7707325 -1.67635,3.0014669 -1.9318,3.1291889 -0.19158,0 -0.27141,0.063861 -0.59071,0 -1.45283,-2.107413 L 95.686117,-15.68007 q -0.207549,-0.159653 -0.542819,-0.223514 -0.494923,0 -0.702471,0.750367 0.175618,0.510888 5.715563,10.5370647 0.17561,0.6865057 0.17561,1.0217759 v 8.6371999 q 0,0.3512355 -0.431058,0.5907143 h -0.33527 q -0.510888,0 -0.590714,-0.7503668 v -8.4296516 q 0,-0.7344015 -1.564595,-3.2409457 l -4.214825,-7.7591107 q -0.0479,-0.30334 -0.0479,-0.494923 v -0.367201 q 0,-1.101602 1.516699,-1.788108 z"
             style="fill:#ff0418;fill-opacity:1;stroke-width:0.26458332"
             id="path843" />
          <path
             d="m 121.27841,-17.579935 h 0.94195 q 2.53848,0 4.77361,1.293185 l 0.0958,0.383166 v 0.0479 q 0,0.558784 -0.71843,0.654575 -2.47462,-1.085637 -4.598,-1.085637 -4.91729,0 -6.37013,3.448494 -0.33527,1.037741 -0.33527,1.8839 v 0.223513 q 0,2.9695365 3.16112,3.9753472 0.95791,0.1596525 3.87955,0.2714093 3.22498,0.6066795 4.21483,1.7242469 1.66039,1.5486292 1.66039,3.5442854 v 0.60667946 q 0,3.30480664 -3.60815,5.58783724 -2.17127,0.9738803 -4.19886,0.9738803 H 119.171 q -2.53848,0 -4.98116,-1.1814285 -0.67054,-0.702471 -0.67054,-1.2452895 V 3.1589241 q 0,-1.2772199 1.38898,-1.6763512 0.20755,-0.047896 0.49492,-0.047896 0.19158,0 2.55444,0.702471 0.84616,0.1596524 1.70828,0.1596524 h 0.28738 q 3.24094,0 3.76779,-2.65023135 0,-1.02177595 0.60668,-1.02177595 h 0.11176 q 0.55878,0 0.65458,0.70247096 0,2.93760584 -3.25691,4.03920814 -0.95792,0.2714092 -1.99566,0.2714092 h -0.22351 q -1.89987,0 -4.21483,-0.8621235 h -0.11176 q -0.44702,0 -0.44702,0.5428185 0,0.8780887 4.55009,1.341081 5.3324,0 6.92892,-3.71990315 0.22351,-0.67054048 0.33527,-1.88389943 0,-3.51235482 -4.8215,-4.19886062 -3.25692,-0.095791 -4.32659,-0.4310617 -3.83166,-1.4847682 -3.83166,-5.1567757 v -0.175618 q 0,-3.432528 2.93761,-5.428184 2.13934,-1.24529 4.66185,-1.24529 z"
             style="fill:#ff0418;fill-opacity:1;stroke-width:0.26458332"
             id="path845" />
          <path
             d="m 141.04339,-17.26063 h 0.95791 q 5.39626,0 8.20614,5.10888 1.37301,3.0333973 1.37301,5.6836287 v 0.5268533 q -0.33527,1.9956561 -1.94776,1.9956561 h -0.20755 q -1.38897,0 -1.94776,-1.6763512 0,-4.5021999 -2.53847,-6.9608489 -1.48477,-1.197393 -3.46446,-1.197393 -3.95938,0 -5.42818,4.1988601 -0.73441,2.2511002 -0.73441,4.1669301 -0.3193,0.3672007 -0.57474,0.3672007 -0.68651,-0.095792 -0.68651,-0.574749 v -0.1117567 q 0,-4.1030691 2.36286,-7.1524322 2.02758,-2.219169 5.01308,-2.219169 5.3324,0 6.99278,6.2583776 0.25545,1.2293242 0.3672,3.1132236 0.27141,0.4789575 0.57475,0.4789575 h 0.20755 q 0.60668,0 0.75037,-0.7982625 0,-3.9274513 -2.31496,-7.1524322 -2.39479,-2.746022 -6.0668,-2.746022 h -0.3672 q -0.0479,0 -0.0479,-0.0479 l -0.0958,0.0479 h -0.38316 q -5.34836,0 -7.67929,5.747489 -0.89405,2.793919 -0.89405,4.6778184 0,3.3207719 1.78811,6.4180303 2.42672,3.4325286 6.48189,3.4325286 h 0.30334 q 0.12772,0 0.22351,0.047896 0.0798,-0.047896 0.20755,-0.047896 h 0.15965 q 4.82151,0 7.35998,-4.53413081 0.39913,-0.63860997 0.95792,-2.36285689 0.3193,-0.2075483 0.52685,-0.2075483 0.62265,0.1436873 0.62265,0.6226448 v 0.047896 q -0.95792,3.6400769 -3.41657,5.5878373 -2.69812,2.1553087 -6.00293,2.1553087 h -0.89406 q -5.22063,0 -7.99859,-4.6778181 -1.58055,-3.0812931 -1.58055,-6.1625863 v -0.6865057 q 0,-3.7677988 2.36285,-7.5196327 2.93761,-3.847625 7.47174,-3.847625 z"
             style="fill:#ff0418;fill-opacity:1;stroke-width:0.26458332"
             id="path847" />
          <path
             d="m 165.94918,-17.26063 h 1.00581 q 2.17128,0 4.69379,1.005811 0.27141,0.271409 0.27141,0.478957 v 0.30334 q -0.22352,0.431062 -0.57475,0.431062 h -0.11176 q -2.55444,-0.957915 -4.85344,-0.957915 -6.41803,0 -9.29177,5.44415 -1.05371,2.2511001 -1.05371,5.3802889 0,3.7039379 2.53848,6.7533005 2.88971,2.7939187 7.16839,2.7939187 2.41076,0 4.53413,-0.7503668 0.11176,-0.1596524 0.11176,-0.2554439 -0.0639,-0.4789575 -0.47896,-0.4789575 -2.17127,0.4310617 -3.57621,0.4310617 h -0.38317 q -5.6517,0 -7.64735,-4.8055401 -0.68651,-1.7561774 -0.68651,-3.8476251 V -5.813546 q 0,-0.4789575 0.68651,-0.574749 0.51089,0 0.63861,0.7822972 v 0.2075482 q 0,5.01308835 3.59218,6.7054048 1.5167,0.6865057 3.36867,0.6865057 h 0.47895 q 1.27722,0 3.36867,-0.4150965 h 0.15965 q 1.80408,0.2235135 1.80408,1.788108 0,1.6284554 -2.79392,1.9956561 -1.4688,0.2714093 -2.58637,0.2714093 h -1.16546 q -4.03921,0 -7.32805,-2.9535712 -3.06533,-3.38463284 -3.06533,-7.5994587 v -1.1016022 q 0,-5.4281847 4.21482,-8.9245747 3.12919,-2.314961 6.96085,-2.314961 z"
             style="fill:#ff0418;fill-opacity:1;stroke-width:0.26458332"
             id="path849" />
        </g>
      </g>
      <g
         transform="translate(-81.642861,-96.950893)"
         id="g1425">
        <g
           aria-label="PHYSOC"
           style="font-style:normal;font-variant:normal;font-weight:normal;font-stretch:normal;font-size:32.69683075px;line-height:1.25;font-family:Clip;-inkscape-font-specification:Clip;letter-spacing:0px;word-spacing:0px;fill:#ffe7e9;fill-opacity:1;stroke:none;stroke-width:0.26458332"
           id="text1423">
          <path
             d="m 59.78027,-17.26063 h 1.24529 q 5.587837,0 7.471736,3.400598 0.862124,1.564595 0.862124,3.19305 v 0.9738804 q 0,4.6937833 -5.571872,6.5617175 -1.54863,0.3672007 -2.921641,0.3672007 h -1.30915 q -1.836004,-0.2873745 -1.836004,-1.5645944 v -9.9623152 q 0,-0.478958 0.702471,-0.590715 0.574749,0 0.654575,0.973881 0,1.117567 -0.06386,1.516698 0.06386,2.2511 0.06386,4.1190346 v 3.0812931 q 0,0.2235135 -0.06386,0.5907142 0,0.4949227 0.814228,0.4949227 0.191583,0 0.494923,0.047896 5.316428,0 7.248223,-3.5123549 0.494923,-1.2772199 0.494923,-2.6023355 0,-4.677818 -4.709749,-5.523976 -1.213359,-0.223514 -2.985502,-0.27141 -4.055173,0.143688 -4.055173,0.542819 l -0.06386,0.319305 V 5.0907193 q -0.09579,0.5428185 -0.542819,0.5428185 H 55.501583 Q 54.958765,5.521781 54.958765,5.0907193 V -15.472522 q 0,-1.165463 1.740212,-1.58056 1.899865,-0.207548 3.081293,-0.207548 z"
             style="fill:#ffe7e9;fill-opacity:1;stroke-width:0.26458332"
             id="path852" />
          <path
             d="m 73.127218,-17.26063 h 0.207549 q 0.606679,0 0.606679,1.037741 V 3.6378816 q 0,0.63861 0.542819,0.63861 h 0.319305 q 0.590714,0 0.590714,-0.9738802 v -8.4296517 q 0,-1.532664 2.059517,-2.1712739 0.431062,-0.1117568 0.925984,-0.1117568 h 0.542819 q 0.94195,0 4.055173,0.702471 0.255444,0.063861 0.702471,0.063861 h 0.542819 q 1.341081,0 1.564594,-0.9259845 V -14.70619 q 0,-2.027587 1.468803,-2.490579 l 0.319305,-0.06386 h 0.478958 q 1.580559,0 1.899864,1.947761 V 5.0907193 q -0.111756,0.5428185 -0.542818,0.5428185 h -0.207548 q -0.60668,0 -0.60668,-1.021776 V -15.249008 q 0,-0.654576 -0.542818,-0.654576 h -0.319305 q -0.590715,0 -0.590715,0.973881 v 7.3599795 q 0,1.7721427 -2.602335,2.2670654 h -0.814228 q -0.989845,0 -4.055173,-0.7024709 l -1.021776,-0.1117568 q -1.644421,0 -1.899865,0.9898455 v 8.0624509 q 0,2.2351349 -1.468803,2.6502314 l -0.319305,0.047896 h -0.478957 q -1.58056,0 -1.899865,-1.9477605 V -16.717811 q 0.111757,-0.542819 0.542818,-0.542819 z"
             style="fill:#ffe7e9;fill-opacity:1;stroke-width:0.26458332"
             id="path854" />
          <path
             d="m 95.302951,-17.196769 q 1.452837,0 2.426717,2.538475 4.677822,8.8926437 4.805542,9.0682614 6.17855,-10.7126824 6.68944,-11.4949794 0.19158,-0.111757 0.33527,-0.111757 h 0.20755 q 0.54281,0.111757 0.54281,0.542819 v 0.207548 q 0,0.175618 -5.61976,9.7707325 -1.67635,3.0014669 -1.9318,3.1291889 -0.19158,0 -0.27141,0.063861 -0.59071,0 -1.45283,-2.107413 L 95.686117,-15.68007 q -0.207549,-0.159653 -0.542819,-0.223514 -0.494923,0 -0.702471,0.750367 0.175618,0.510888 5.715563,10.5370647 0.17561,0.6865057 0.17561,1.0217759 v 8.6371999 q 0,0.3512355 -0.431058,0.5907143 h -0.33527 q -0.510888,0 -0.590714,-0.7503668 v -8.4296516 q 0,-0.7344015 -1.564595,-3.2409457 l -4.214825,-7.7591107 q -0.0479,-0.30334 -0.0479,-0.494923 v -0.367201 q 0,-1.101602 1.516699,-1.788108 z"
             style="fill:#ffe7e9;fill-opacity:1;stroke-width:0.26458332"
             id="path856" />
          <path
             d="m 121.27841,-17.579935 h 0.94195 q 2.53848,0 4.77361,1.293185 l 0.0958,0.383166 v 0.0479 q 0,0.558784 -0.71843,0.654575 -2.47462,-1.085637 -4.598,-1.085637 -4.91729,0 -6.37013,3.448494 -0.33527,1.037741 -0.33527,1.8839 v 0.223513 q 0,2.9695365 3.16112,3.9753472 0.95791,0.1596525 3.87955,0.2714093 3.22498,0.6066795 4.21483,1.7242469 1.66039,1.5486292 1.66039,3.5442854 v 0.60667946 q 0,3.30480664 -3.60815,5.58783724 -2.17127,0.9738803 -4.19886,0.9738803 H 119.171 q -2.53848,0 -4.98116,-1.1814285 -0.67054,-0.702471 -0.67054,-1.2452895 V 3.1589241 q 0,-1.2772199 1.38898,-1.6763512 0.20755,-0.047896 0.49492,-0.047896 0.19158,0 2.55444,0.702471 0.84616,0.1596524 1.70828,0.1596524 h 0.28738 q 3.24094,0 3.76779,-2.65023135 0,-1.02177595 0.60668,-1.02177595 h 0.11176 q 0.55878,0 0.65458,0.70247096 0,2.93760584 -3.25691,4.03920814 -0.95792,0.2714092 -1.99566,0.2714092 h -0.22351 q -1.89987,0 -4.21483,-0.8621235 h -0.11176 q -0.44702,0 -0.44702,0.5428185 0,0.8780887 4.55009,1.341081 5.3324,0 6.92892,-3.71990315 0.22351,-0.67054048 0.33527,-1.88389943 0,-3.51235482 -4.8215,-4.19886062 -3.25692,-0.095791 -4.32659,-0.4310617 -3.83166,-1.4847682 -3.83166,-5.1567757 v -0.175618 q 0,-3.432528 2.93761,-5.428184 2.13934,-1.24529 4.66185,-1.24529 z"
             style="fill:#ffe7e9;fill-opacity:1;stroke-width:0.26458332"
             id="path858" />
          <path
             d="m 141.04339,-17.26063 h 0.95791 q 5.39626,0 8.20614,5.10888 1.37301,3.0333973 1.37301,5.6836287 v 0.5268533 q -0.33527,1.9956561 -1.94776,1.9956561 h -0.20755 q -1.38897,0 -1.94776,-1.6763512 0,-4.5021999 -2.53847,-6.9608489 -1.48477,-1.197393 -3.46446,-1.197393 -3.95938,0 -5.42818,4.1988601 -0.73441,2.2511002 -0.73441,4.1669301 -0.3193,0.3672007 -0.57474,0.3672007 -0.68651,-0.095792 -0.68651,-0.574749 v -0.1117567 q 0,-4.1030691 2.36286,-7.1524322 2.02758,-2.219169 5.01308,-2.219169 5.3324,0 6.99278,6.2583776 0.25545,1.2293242 0.3672,3.1132236 0.27141,0.4789575 0.57475,0.4789575 h 0.20755 q 0.60668,0 0.75037,-0.7982625 0,-3.9274513 -2.31496,-7.1524322 -2.39479,-2.746022 -6.0668,-2.746022 h -0.3672 q -0.0479,0 -0.0479,-0.0479 l -0.0958,0.0479 h -0.38316 q -5.34836,0 -7.67929,5.747489 -0.89405,2.793919 -0.89405,4.6778184 0,3.3207719 1.78811,6.4180303 2.42672,3.4325286 6.48189,3.4325286 h 0.30334 q 0.12772,0 0.22351,0.047896 0.0798,-0.047896 0.20755,-0.047896 h 0.15965 q 4.82151,0 7.35998,-4.53413081 0.39913,-0.63860997 0.95792,-2.36285689 0.3193,-0.2075483 0.52685,-0.2075483 0.62265,0.1436873 0.62265,0.6226448 v 0.047896 q -0.95792,3.6400769 -3.41657,5.5878373 -2.69812,2.1553087 -6.00293,2.1553087 h -0.89406 q -5.22063,0 -7.99859,-4.6778181 -1.58055,-3.0812931 -1.58055,-6.1625863 v -0.6865057 q 0,-3.7677988 2.36285,-7.5196327 2.93761,-3.847625 7.47174,-3.847625 z"
             style="fill:#ffe7e9;fill-opacity:1;stroke-width:0.26458332"
             id="path860" />
          <path
             d="m 165.94918,-17.26063 h 1.00581 q 2.17128,0 4.69379,1.005811 0.27141,0.271409 0.27141,0.478957 v 0.30334 q -0.22352,0.431062 -0.57475,0.431062 h -0.11176 q -2.55444,-0.957915 -4.85344,-0.957915 -6.41803,0 -9.29177,5.44415 -1.05371,2.2511001 -1.05371,5.3802889 0,3.7039379 2.53848,6.7533005 2.88971,2.7939187 7.16839,2.7939187 2.41076,0 4.53413,-0.7503668 0.11176,-0.1596524 0.11176,-0.2554439 -0.0639,-0.4789575 -0.47896,-0.4789575 -2.17127,0.4310617 -3.57621,0.4310617 h -0.38317 q -5.6517,0 -7.64735,-4.8055401 -0.68651,-1.7561774 -0.68651,-3.8476251 V -5.813546 q 0,-0.4789575 0.68651,-0.574749 0.51089,0 0.63861,0.7822972 v 0.2075482 q 0,5.01308835 3.59218,6.7054048 1.5167,0.6865057 3.36867,0.6865057 h 0.47895 q 1.27722,0 3.36867,-0.4150965 h 0.15965 q 1.80408,0.2235135 1.80408,1.788108 0,1.6284554 -2.79392,1.9956561 -1.4688,0.2714093 -2.58637,0.2714093 h -1.16546 q -4.03921,0 -7.32805,-2.9535712 -3.06533,-3.38463284 -3.06533,-7.5994587 v -1.1016022 q 0,-5.4281847 4.21482,-8.9245747 3.12919,-2.314961 6.96085,-2.314961 z"
             style="fill:#ffe7e9;fill-opacity:1;stroke-width:0.26458332"
             id="path862" />
        </g>
      </g>
    </g>
  </g>
</svg>
