<?xml version="1.0" encoding="UTF-8" standalone="no"?>
<!-- Created with Inkscape (http://www.inkscape.org/) -->

<svg
   xmlns:dc="http://purl.org/dc/elements/1.1/"
   xmlns:cc="http://creativecommons.org/ns#"
   xmlns:rdf="http://www.w3.org/1999/02/22-rdf-syntax-ns#"
   xmlns:svg="http://www.w3.org/2000/svg"
   xmlns="http://www.w3.org/2000/svg"
   xmlns:sodipodi="http://sodipodi.sourceforge.net/DTD/sodipodi-0.dtd"
   xmlns:inkscape="http://www.inkscape.org/namespaces/inkscape"
   width="187.02995mm"
   height="101.17759mm"
   viewBox="0 0 187.02995 101.17759"
   version="1.1"
   id="svg8"
   inkscape:version="0.92.4 (5da689c313, 2019-01-14)"
   sodipodi:docname="PhysocNewLogoWhiteNoText2.svg">
  <defs
     id="defs2">
    <clipPath
       id="clipPath851"
       clipPathUnits="userSpaceOnUse">
      <path
         inkscape:connector-curvature="0"
         id="path849"
         d="M 0,572 H 770 V 0 H 0 Z" />
    </clipPath>
  </defs>
  <sodipodi:namedview
     id="base"
     pagecolor="#ffffff"
     bordercolor="#666666"
     borderopacity="1.0"
     inkscape:pageopacity="0.0"
     inkscape:pageshadow="2"
     inkscape:zoom="1.4"
     inkscape:cx="397.42114"
     inkscape:cy="217.57618"
     inkscape:document-units="mm"
     inkscape:current-layer="g965"
     showgrid="false"
     inkscape:window-width="1920"
     inkscape:window-height="986"
     inkscape:window-x="-11"
     inkscape:window-y="-11"
     inkscape:window-maximized="1"
     fit-margin-top="0"
     fit-margin-left="0"
     fit-margin-right="0"
     fit-margin-bottom="0" />
  <metadata
     id="metadata5">
    <rdf:RDF>
      <cc:Work
         rdf:about="">
        <dc:format>image/svg+xml</dc:format>
        <dc:type
           rdf:resource="http://purl.org/dc/dcmitype/StillImage" />
        <dc:title></dc:title>
      </cc:Work>
    </rdf:RDF>
  </metadata>
  <g
     inkscape:label="Layer 1"
     inkscape:groupmode="layer"
     id="layer1"
     transform="translate(-29.183402,-108.73294)">
    <g
       transform="matrix(0.35277777,0,0,-0.35277777,-12.599272,274.6741)"
       inkscape:label="Glasgow University"
       id="g823">
      <g
         transform="translate(121.4394,186.4481)"
         id="g825"
         style="opacity:1;fill:#f5f5f5;fill-opacity:1;stroke:#f5f5f5;stroke-width:2.83464575;stroke-linecap:round;stroke-linejoin:round;stroke-miterlimit:4;stroke-dasharray:none;stroke-opacity:1">
        <path
           inkscape:connector-curvature="0"
           id="path827"
           style="fill:#f5f5f5;fill-opacity:1;fill-rule:nonzero;stroke:#f5f5f5;stroke-width:2.83464575;stroke-linecap:round;stroke-linejoin:round;stroke-miterlimit:4;stroke-dasharray:none;stroke-opacity:1"
           d="m 0,0 h -1.583 v 69.984 l 16.487,-22.741 26.911,1.016 4.161,22.588 4.694,-15.125 3.154,19.979 12.518,-38.974 6.91,-3.044 53.267,-0.173 5.006,14.632 7.134,-14.461 33.485,-0.17 15.148,31.557 38.735,-55.93 10.348,81.017 L 260.249,5.118 258.724,4.69 236.958,82.222 227.074,4.845 187.541,61.928 173.138,31.922 137.672,32.103 131.79,44.027 127.649,31.923 72.917,32.101 65.052,35.566 54.351,68.885 51.173,48.76 46.369,64.241 43.142,46.725 14.119,45.629 0,65.103 Z" />
      </g>
      <g
         transform="translate(647.1854,256.4275)"
         id="g829"
         style="opacity:1;fill:#f5f5f5;fill-opacity:1;stroke:#f5f5f5;stroke-width:2.83464575;stroke-linecap:round;stroke-linejoin:round;stroke-miterlimit:4;stroke-dasharray:none;stroke-opacity:1">
        <path
           inkscape:connector-curvature="0"
           id="path831"
           style="fill:#f5f5f5;fill-opacity:1;fill-rule:nonzero;stroke:#f5f5f5;stroke-width:2.83464575;stroke-linecap:round;stroke-linejoin:round;stroke-miterlimit:4;stroke-dasharray:none;stroke-opacity:1"
           d="m 0,0 v -69.98 h -1.58 v 65.1 l -14.12,-19.47 -29.02,1.1 -3.23,17.51 -4.8,-15.48 -3.18,20.13 -10.7,-33.32 -7.86,-3.47 -54.74,-0.18 -4.14,12.11 -5.88,-11.93 -35.47,-0.18 -14.26,29.72 -26.85,-58.48 -13.88,49.58 -0.75,2.68 -7.87,28.12 -2.6,-7.5 -1.52,-4.38 -23.24,-67.01 -1.49,0.51 24.73,71.31 1.55,4.47 2.74,7.9 8.45,-30.19 0.75,-2.7 13.5,-48.21 15.38,33.5 0.73,1.59 10.34,22.53 15.29,-31.85 33.48,0.17 7.14,14.46 5,-14.63 53.27,0.17 6.91,3.05 12.52,38.97 3.15,-19.98 4.7,15.13 4.16,-22.59 26.91,-1.02 z" />
      </g>
      <g
         transform="translate(422.5554,258.4375)"
         id="g833"
         style="opacity:1;fill:#f5f5f5;fill-opacity:1;stroke:#f5f5f5;stroke-width:2.83464575;stroke-linecap:round;stroke-linejoin:round;stroke-miterlimit:4;stroke-dasharray:none;stroke-opacity:1">
        <path
           inkscape:connector-curvature="0"
           id="path835"
           style="fill:#f5f5f5;fill-opacity:1;fill-rule:nonzero;stroke:#f5f5f5;stroke-width:2.83464575;stroke-linecap:round;stroke-linejoin:round;stroke-miterlimit:4;stroke-dasharray:none;stroke-opacity:1"
           d="m 0,0 -1.06,-2.31 -0.09,-0.2 -2.85,-6.2 -24.074,-59.52 9.131,68.95 2.54,3.88 -9.27,-64.077 23.013,56.567 2.52,5.57 0.01,0.02 0.12,-2.38 z" />
      </g>
      <g
         transform="translate(407.6454,397.9774)"
         id="g837"
         style="opacity:1;fill:#f5f5f5;fill-opacity:1;stroke:#f5f5f5;stroke-width:2.83464575;stroke-linecap:round;stroke-linejoin:round;stroke-miterlimit:4;stroke-dasharray:none;stroke-opacity:1">
        <path
           inkscape:connector-curvature="0"
           id="path839"
           style="fill:#f5f5f5;fill-opacity:1;fill-rule:nonzero;stroke:#f5f5f5;stroke-width:2.83464575;stroke-linecap:round;stroke-linejoin:round;stroke-miterlimit:4;stroke-dasharray:none;stroke-opacity:1"
           d="m 0,0 7.55,-36.07 h -8.27 l -0.64,-94.52 -0.03,-4.9 -1.52,-4.38 v 105.4 L 5.6,-34.49 0.12,-8.3 -3.37,-27.8 -8.59,9.13 h 7.18 l 0.14,4.05 -7.07,4.22 -15.78,48.47 -15.79,-48.47 -7.06,-4.22 0.13,-4.05 h 7.18 l -5.21,-36.93 -3.5,19.5 -5.47,-26.19 8.42,0.14 v -174.54 l -16.25,67.41 -1.54,-28.81 h -20.98 v 1.59 h 19.48 l 1.97,36.98 16.4,-67.93 -1.18,163.58 h -8.27 l 7.54,36.07 3.19,-17.79 3.58,25.34 h -6.89 l -0.22,6.51 7.36,4.39 17.11,52.54 17.1,-52.54 7.36,-4.39 -0.21,-6.51 h -6.89 l 3.57,-25.34 z" />
      </g>
      <g
         transform="translate(448.1154,229.2775)"
         id="g841"
         style="opacity:1;fill:#f5f5f5;fill-opacity:1;stroke:#f5f5f5;stroke-width:2.83464575;stroke-linecap:round;stroke-linejoin:round;stroke-miterlimit:4;stroke-dasharray:none;stroke-opacity:1">
        <path
           inkscape:connector-curvature="0"
           id="path843"
           style="fill:#f5f5f5;fill-opacity:1;fill-rule:nonzero;stroke:#f5f5f5;stroke-width:2.83464575;stroke-linecap:round;stroke-linejoin:round;stroke-miterlimit:4;stroke-dasharray:none;stroke-opacity:1"
           d="m 0,0 v -1.59 h -25.5 l -1.12,28.44 -0.01,0.16 -0.08,-0.36 -2.85,-6.2 1.34,5.8 2.52,5.57 0.13,-2.36 0.01,-0.3 L -24,0 Z" />
      </g>
      <g
         id="g845">
        <g
           clip-path="url(#clipPath851)"
           id="g847">
          <g
             transform="translate(356.7676,193.0001)"
             id="g853"
             style="opacity:1;fill:#f5f5f5;fill-opacity:1;stroke:#f5f5f5;stroke-width:2.83464575;stroke-linecap:round;stroke-linejoin:round;stroke-miterlimit:4;stroke-dasharray:none;stroke-opacity:1">
            <path
               inkscape:connector-curvature="0"
               id="path855"
               style="fill:#f5f5f5;fill-opacity:1;fill-rule:nonzero;stroke:#f5f5f5;stroke-width:2.83464575;stroke-linecap:round;stroke-linejoin:round;stroke-miterlimit:4;stroke-dasharray:none;stroke-opacity:1"
               d="m 0,0 c 0,-4.419 -3.582,-8.001 -8.001,-8.001 -4.418,0 -8,3.582 -8,8.001 0,4.419 3.582,8.001 8,8.001 C -3.582,8.001 0,4.419 0,0" />
          </g>
          <g
             transform="translate(372.3293,193.0001)"
             id="g857"
             style="opacity:1;fill:#f5f5f5;fill-opacity:1;stroke:#f5f5f5;stroke-width:2.83464575;stroke-linecap:round;stroke-linejoin:round;stroke-miterlimit:4;stroke-dasharray:none;stroke-opacity:1">
            <path
               inkscape:connector-curvature="0"
               id="path859"
               style="fill:#f5f5f5;fill-opacity:1;fill-rule:nonzero;stroke:#f5f5f5;stroke-width:2.83464575;stroke-linecap:round;stroke-linejoin:round;stroke-miterlimit:4;stroke-dasharray:none;stroke-opacity:1"
               d="m 0,0 c 0,-4.419 -3.582,-8.001 -8.001,-8.001 -4.418,0 -8,3.582 -8,8.001 0,4.419 3.582,8.001 8,8.001 C -3.582,8.001 0,4.419 0,0" />
          </g>
          <g
             transform="translate(387.891,193.0001)"
             id="g861"
             style="opacity:1;fill:#f5f5f5;fill-opacity:1;stroke:#f5f5f5;stroke-width:2.83464575;stroke-linecap:round;stroke-linejoin:round;stroke-miterlimit:4;stroke-dasharray:none;stroke-opacity:1">
            <path
               inkscape:connector-curvature="0"
               id="path863"
               style="fill:#f5f5f5;fill-opacity:1;fill-rule:nonzero;stroke:#f5f5f5;stroke-width:2.83464575;stroke-linecap:round;stroke-linejoin:round;stroke-miterlimit:4;stroke-dasharray:none;stroke-opacity:1"
               d="m 0,0 c 0,-4.419 -3.582,-8.001 -8.001,-8.001 -4.418,0 -8,3.582 -8,8.001 0,4.419 3.582,8.001 8,8.001 C -3.582,8.001 0,4.419 0,0" />
          </g>
          <g
             transform="translate(403.8924,193.0001)"
             id="g865"
             style="opacity:1;fill:#f5f5f5;fill-opacity:1;stroke:#f5f5f5;stroke-width:2.83464575;stroke-linecap:round;stroke-linejoin:round;stroke-miterlimit:4;stroke-dasharray:none;stroke-opacity:1">
            <path
               inkscape:connector-curvature="0"
               id="path867"
               style="fill:#f5f5f5;fill-opacity:1;fill-rule:nonzero;stroke:#f5f5f5;stroke-width:2.83464575;stroke-linecap:round;stroke-linejoin:round;stroke-miterlimit:4;stroke-dasharray:none;stroke-opacity:1"
               d="m 0,0 c 0,-4.419 -3.582,-8.001 -8.001,-8.001 -4.418,0 -8,3.582 -8,8.001 0,4.419 3.582,8.001 8,8.001 C -3.582,8.001 0,4.419 0,0" />
          </g>
          <g
             transform="translate(439.775,193.0001)"
             id="g869"
             style="opacity:1;fill:#f5f5f5;fill-opacity:1;stroke:#f5f5f5;stroke-width:2.83464575;stroke-linecap:round;stroke-linejoin:round;stroke-miterlimit:4;stroke-dasharray:none;stroke-opacity:1">
            <path
               inkscape:connector-curvature="0"
               id="path871"
               style="fill:#f5f5f5;fill-opacity:1;fill-rule:nonzero;stroke:#f5f5f5;stroke-width:2.83464575;stroke-linecap:round;stroke-linejoin:round;stroke-miterlimit:4;stroke-dasharray:none;stroke-opacity:1"
               d="m 0,0 c 0,-4.419 -3.582,-8.001 -8.001,-8.001 -4.418,0 -8,3.582 -8,8.001 0,4.419 3.582,8.001 8,8.001 C -3.582,8.001 0,4.419 0,0" />
          </g>
          <g
             transform="translate(439.588,135.5261)"
             id="g965" />
        </g>
      </g>
    </g>
  </g>
</svg>
