<?xml version="1.0" encoding="UTF-8" standalone="no"?>
<!-- Created with Inkscape (http://www.inkscape.org/) -->

<svg
   xmlns:dc="http://purl.org/dc/elements/1.1/"
   xmlns:cc="http://creativecommons.org/ns#"
   xmlns:rdf="http://www.w3.org/1999/02/22-rdf-syntax-ns#"
   xmlns:svg="http://www.w3.org/2000/svg"
   xmlns="http://www.w3.org/2000/svg"
   xmlns:xlink="http://www.w3.org/1999/xlink"
   xmlns:sodipodi="http://sodipodi.sourceforge.net/DTD/sodipodi-0.dtd"
   xmlns:inkscape="http://www.inkscape.org/namespaces/inkscape"
   width="23.565416mm"
   height="41.721714mm"
   viewBox="0 0 23.565416 41.721714"
   version="1.1"
   id="svg8"
   inkscape:version="0.92.4 (5da689c313, 2019-01-14)"
   sodipodi:docname="PhysocLogo.svg">
  <defs
     id="defs2">
    <linearGradient
       inkscape:collect="always"
       xlink:href="#linearGradient860"
       id="linearGradient870"
       x1="98.264259"
       y1="163.93573"
       x2="116.54485"
       y2="163.93573"
       gradientUnits="userSpaceOnUse"
       gradientTransform="matrix(1.2890946,0,0,1.2890946,-18.765848,-51.537369)" />
    <linearGradient
       inkscape:collect="always"
       id="linearGradient860">
      <stop
         style="stop-color:#5e81ac;stop-opacity:0.89883268"
         offset="0"
         id="stop856" />
      <stop
         style="stop-color:#bf616a;stop-opacity:1"
         offset="1"
         id="stop858" />
    </linearGradient>
    <linearGradient
       inkscape:collect="always"
       xlink:href="#linearGradient860"
       id="linearGradient862"
       x1="107.44629"
       y1="154.58295"
       x2="107.44629"
       y2="139.40224"
       gradientUnits="userSpaceOnUse"
       gradientTransform="matrix(1.2890946,0,0,1.2890946,-18.765848,-51.537369)" />
  </defs>
  <sodipodi:namedview
     id="base"
     pagecolor="#ffffff"
     bordercolor="#666666"
     borderopacity="1.0"
     inkscape:pageopacity="0.0"
     inkscape:pageshadow="2"
     inkscape:zoom="0.35"
     inkscape:cx="-615.46693"
     inkscape:cy="38.844187"
     inkscape:document-units="mm"
     inkscape:current-layer="layer1"
     showgrid="false"
     fit-margin-top="0"
     fit-margin-left="0"
     fit-margin-right="0"
     fit-margin-bottom="0"
     inkscape:window-width="1920"
     inkscape:window-height="986"
     inkscape:window-x="-11"
     inkscape:window-y="-11"
     inkscape:window-maximized="1" />
  <metadata
     id="metadata5">
    <rdf:RDF>
      <cc:Work
         rdf:about="">
        <dc:format>image/svg+xml</dc:format>
        <dc:type
           rdf:resource="http://purl.org/dc/dcmitype/StillImage" />
        <dc:title></dc:title>
      </cc:Work>
    </rdf:RDF>
  </metadata>
  <g
     inkscape:label="Layer 1"
     inkscape:groupmode="layer"
     id="layer1"
     transform="translate(-108.41372,-117.38914)">
    <g
       id="g904"
       transform="translate(0.50764629,-10.526722)">
      <path
         inkscape:connector-curvature="0"
         id="path836"
         d="m 118.88996,169.21024 c 0.69824,-0.41197 0.89094,-0.43193 1.80626,-0.18712 0.97455,0.26066 1.07868,0.24032 2.13048,-0.41579 0.60824,-0.37942 2.02677,-0.92927 3.15232,-1.22189 2.7497,-0.7149 3.03912,-1.02834 4.10098,-4.44183 0.46343,-1.4897 0.99116,-2.79454 1.17275,-2.89963 0.4291,-0.24834 0.21128,-1.63149 -0.51659,-3.27998 -0.43228,-0.97902 -0.65384,-1.2223 -1.2155,-1.33463 -0.41361,-0.0828 -0.92622,-0.4512 -1.28858,-0.92627 -0.52762,-0.69177 -0.69169,-0.77202 -1.33245,-0.65183 -0.9418,0.17669 -1.38619,-0.29784 -2.15996,-2.30647 -0.31884,-0.82768 -0.70212,-1.54547 -0.85173,-1.59511 -0.14961,-0.0496 -0.47654,0.30014 -0.72651,0.77729 -0.24998,0.47716 -0.70904,1.17453 -1.02013,1.54971 -0.48838,0.58897 -0.6221,0.6431 -0.97885,0.39627 -1.09388,-0.75678 -1.40127,-0.81482 -2.48466,-0.46905 -0.81266,0.25937 -1.28951,0.28411 -2.06329,0.107 -0.90068,-0.2061 -1.13511,-0.16511 -2.23218,0.39039 -0.67418,0.34137 -1.75173,1.09353 -2.39452,1.67147 -1.11874,1.00584 -1.20018,1.03941 -1.90434,0.78479 -1.53092,-0.55359 -1.59342,-0.48155 -1.9472,2.24465 -0.3781,2.91364 -0.29452,4.5415 0.28123,5.47756 0.27933,0.45412 0.84549,1.39229 1.25814,2.08479 0.85835,1.44053 1.05782,1.63119 1.92238,1.83774 0.36295,0.0868 0.84087,0.48105 1.1369,0.93806 0.28089,0.43366 0.57768,0.78975 0.65954,0.79129 0.0818,0.002 0.46645,-0.55995 0.85464,-1.24779 0.96692,-1.7133 1.53698,-1.71633 2.3712,-0.0129 0.3334,0.68089 0.70559,1.49947 0.8271,1.81905 0.26669,0.70145 0.43344,0.71532 1.44257,0.11989 z"
         style="fill:url(#linearGradient870);fill-opacity:1;stroke-width:1.28909457" />
      <path
         inkscape:connector-curvature="0"
         id="path830"
         d="m 122.078,147.39707 c 2.19998,-0.56268 3.47538,-1.30938 4.90137,-2.86964 2.09206,-2.28904 2.99391,-5.22639 2.51843,-8.20266 -1.0411,-6.51713 -8.21647,-10.32907 -13.96403,-7.41844 -2.34081,1.18541 -3.66,2.45631 -4.66857,4.49766 -2.96183,5.99473 0.65692,13.06818 7.26914,14.20876 1.63333,0.28175 2.09812,0.25633 3.94366,-0.21568 z"
         style="fill:url(#linearGradient862);fill-opacity:1;stroke:none;stroke-width:1.28909457" />
    </g>
  </g>
</svg>
