<?xml version="1.0" encoding="UTF-8" standalone="no"?>
<!-- Created with Inkscape (http://www.inkscape.org/) -->

<svg
   xmlns:dc="http://purl.org/dc/elements/1.1/"
   xmlns:cc="http://creativecommons.org/ns#"
   xmlns:rdf="http://www.w3.org/1999/02/22-rdf-syntax-ns#"
   xmlns:svg="http://www.w3.org/2000/svg"
   xmlns="http://www.w3.org/2000/svg"
   xmlns:sodipodi="http://sodipodi.sourceforge.net/DTD/sodipodi-0.dtd"
   xmlns:inkscape="http://www.inkscape.org/namespaces/inkscape"
   width="187.07367mm"
   height="129.09387mm"
   viewBox="0 0 187.07367 129.09387"
   version="1.1"
   id="svg8"
   inkscape:version="0.92.4 (5da689c313, 2019-01-14)"
   sodipodi:docname="PhysocNewLogo.svg">
  <defs
     id="defs2">
    <clipPath
       id="clipPath851"
       clipPathUnits="userSpaceOnUse">
      <path
         inkscape:connector-curvature="0"
         id="path849"
         d="M 0,572 H 770 V 0 H 0 Z" />
    </clipPath>
  </defs>
  <sodipodi:namedview
     id="base"
     pagecolor="#ffffff"
     bordercolor="#666666"
     borderopacity="1.0"
     inkscape:pageopacity="0.0"
     inkscape:pageshadow="2"
     inkscape:zoom="0.49497475"
     inkscape:cx="238.11577"
     inkscape:cy="227.31661"
     inkscape:document-units="mm"
     inkscape:current-layer="g965"
     showgrid="false"
     inkscape:window-width="1920"
     inkscape:window-height="986"
     inkscape:window-x="-11"
     inkscape:window-y="-11"
     inkscape:window-maximized="1"
     fit-margin-top="0"
     fit-margin-left="0"
     fit-margin-right="0"
     fit-margin-bottom="0" />
  <metadata
     id="metadata5">
    <rdf:RDF>
      <cc:Work
         rdf:about="">
        <dc:format>image/svg+xml</dc:format>
        <dc:type
           rdf:resource="http://purl.org/dc/dcmitype/StillImage" />
        <dc:title></dc:title>
      </cc:Work>
    </rdf:RDF>
  </metadata>
  <g
     inkscape:label="Layer 1"
     inkscape:groupmode="layer"
     id="layer1"
     transform="translate(-29.683402,-109.23283)">
    <g
       transform="matrix(0.35277777,0,0,-0.35277777,-12.599272,274.6741)"
       inkscape:label="Glasgow University"
       id="g823">
      <g
         transform="translate(121.4394,186.4481)"
         id="g825">
        <path
           inkscape:connector-curvature="0"
           id="path827"
           style="fill:#000000;fill-opacity:1;fill-rule:nonzero;stroke:none"
           d="m 0,0 h -1.583 v 69.984 l 16.487,-22.741 26.911,1.016 4.161,22.588 4.694,-15.125 3.154,19.979 12.518,-38.974 6.91,-3.044 53.267,-0.173 5.006,14.632 7.134,-14.461 33.485,-0.17 15.148,31.557 38.735,-55.93 10.348,81.017 L 260.249,5.118 258.724,4.69 236.958,82.222 227.074,4.845 187.541,61.928 173.138,31.922 137.672,32.103 131.79,44.027 127.649,31.923 72.917,32.101 65.052,35.566 54.351,68.885 51.173,48.76 46.369,64.241 43.142,46.725 14.119,45.629 0,65.103 Z" />
      </g>
      <g
         transform="translate(647.1854,256.4275)"
         id="g829">
        <path
           inkscape:connector-curvature="0"
           id="path831"
           style="fill:#000000;fill-opacity:1;fill-rule:nonzero;stroke:none"
           d="m 0,0 v -69.98 h -1.58 v 65.1 l -14.12,-19.47 -29.02,1.1 -3.23,17.51 -4.8,-15.48 -3.18,20.13 -10.7,-33.32 -7.86,-3.47 -54.74,-0.18 -4.14,12.11 -5.88,-11.93 -35.47,-0.18 -14.26,29.72 -26.85,-58.48 -13.88,49.58 -0.75,2.68 -7.87,28.12 -2.6,-7.5 -1.52,-4.38 -23.24,-67.01 -1.49,0.51 24.73,71.31 1.55,4.47 2.74,7.9 8.45,-30.19 0.75,-2.7 13.5,-48.21 15.38,33.5 0.73,1.59 10.34,22.53 15.29,-31.85 33.48,0.17 7.14,14.46 5,-14.63 53.27,0.17 6.91,3.05 12.52,38.97 3.15,-19.98 4.7,15.13 4.16,-22.59 26.91,-1.02 z" />
      </g>
      <g
         transform="translate(422.5554,258.4375)"
         id="g833">
        <path
           inkscape:connector-curvature="0"
           id="path835"
           style="fill:#000000;fill-opacity:1;fill-rule:nonzero;stroke:none"
           d="m 0,0 -1.06,-2.31 -0.09,-0.2 -2.85,-6.2 -24.074,-59.52 9.131,68.95 2.54,3.88 -9.27,-64.077 23.013,56.567 2.52,5.57 0.01,0.02 0.12,-2.38 z" />
      </g>
      <g
         transform="translate(407.6454,397.9774)"
         id="g837">
        <path
           inkscape:connector-curvature="0"
           id="path839"
           style="fill:#000000;fill-opacity:1;fill-rule:nonzero;stroke:none"
           d="m 0,0 7.55,-36.07 h -8.27 l -0.64,-94.52 -0.03,-4.9 -1.52,-4.38 v 105.4 L 5.6,-34.49 0.12,-8.3 -3.37,-27.8 -8.59,9.13 h 7.18 l 0.14,4.05 -7.07,4.22 -15.78,48.47 -15.79,-48.47 -7.06,-4.22 0.13,-4.05 h 7.18 l -5.21,-36.93 -3.5,19.5 -5.47,-26.19 8.42,0.14 v -174.54 l -16.25,67.41 -1.54,-28.81 h -20.98 v 1.59 h 19.48 l 1.97,36.98 16.4,-67.93 -1.18,163.58 h -8.27 l 7.54,36.07 3.19,-17.79 3.58,25.34 h -6.89 l -0.22,6.51 7.36,4.39 17.11,52.54 17.1,-52.54 7.36,-4.39 -0.21,-6.51 h -6.89 l 3.57,-25.34 z" />
      </g>
      <g
         transform="translate(448.1154,229.2775)"
         id="g841">
        <path
           inkscape:connector-curvature="0"
           id="path843"
           style="fill:#000000;fill-opacity:1;fill-rule:nonzero;stroke:none"
           d="m 0,0 v -1.59 h -25.5 l -1.12,28.44 -0.01,0.16 -0.08,-0.36 -2.85,-6.2 1.34,5.8 2.52,5.57 0.13,-2.36 0.01,-0.3 L -24,0 Z" />
      </g>
      <g
         id="g845">
        <g
           clip-path="url(#clipPath851)"
           id="g847">
          <g
             transform="translate(356.7676,193.0001)"
             id="g853">
            <path
               inkscape:connector-curvature="0"
               id="path855"
               style="fill:#000000;fill-opacity:1;fill-rule:nonzero;stroke:none"
               d="m 0,0 c 0,-4.419 -3.582,-8.001 -8.001,-8.001 -4.418,0 -8,3.582 -8,8.001 0,4.419 3.582,8.001 8,8.001 C -3.582,8.001 0,4.419 0,0" />
          </g>
          <g
             transform="translate(372.3293,193.0001)"
             id="g857">
            <path
               inkscape:connector-curvature="0"
               id="path859"
               style="fill:#000000;fill-opacity:1;fill-rule:nonzero;stroke:none"
               d="m 0,0 c 0,-4.419 -3.582,-8.001 -8.001,-8.001 -4.418,0 -8,3.582 -8,8.001 0,4.419 3.582,8.001 8,8.001 C -3.582,8.001 0,4.419 0,0" />
          </g>
          <g
             transform="translate(387.891,193.0001)"
             id="g861">
            <path
               inkscape:connector-curvature="0"
               id="path863"
               style="fill:#000000;fill-opacity:1;fill-rule:nonzero;stroke:none"
               d="m 0,0 c 0,-4.419 -3.582,-8.001 -8.001,-8.001 -4.418,0 -8,3.582 -8,8.001 0,4.419 3.582,8.001 8,8.001 C -3.582,8.001 0,4.419 0,0" />
          </g>
          <g
             transform="translate(403.8924,193.0001)"
             id="g865">
            <path
               inkscape:connector-curvature="0"
               id="path867"
               style="fill:#000000;fill-opacity:1;fill-rule:nonzero;stroke:none"
               d="m 0,0 c 0,-4.419 -3.582,-8.001 -8.001,-8.001 -4.418,0 -8,3.582 -8,8.001 0,4.419 3.582,8.001 8,8.001 C -3.582,8.001 0,4.419 0,0" />
          </g>
          <g
             transform="translate(439.775,193.0001)"
             id="g869">
            <path
               inkscape:connector-curvature="0"
               id="path871"
               style="fill:#000000;fill-opacity:1;fill-rule:nonzero;stroke:none"
               d="m 0,0 c 0,-4.419 -3.582,-8.001 -8.001,-8.001 -4.418,0 -8,3.582 -8,8.001 0,4.419 3.582,8.001 8,8.001 C -3.582,8.001 0,4.419 0,0" />
          </g>
          <g
             transform="translate(273.8013,112.9729)"
             id="g873">
            <path
               inkscape:connector-curvature="0"
               id="path875"
               style="fill:#000000;fill-opacity:1;fill-rule:nonzero;stroke:none"
               d="m 0,0 c 0.513,-0.051 0.743,-0.051 1.025,-0.051 2.997,0 4.483,1.358 4.483,4.073 0,2.485 -1.46,3.869 -4.099,3.869 H 0 Z m -4.022,-8.172 c 0.128,0.23 0.205,0.409 0.23,0.589 0.077,0.307 0.077,0.512 0.103,1.768 v 5.508 5.687 c 0,1.281 -0.051,1.691 -0.359,2.178 -0.358,0.64 -0.743,0.82 -1.665,0.897 V 8.941 H 2.793 C 6.866,8.941 9.069,7.25 9.069,4.125 9.069,0.82 6.508,-1.076 2.05,-1.076 1.435,-1.076 1,-1.05 0,-0.973 v -4.868 c 0,-1.306 0.077,-1.845 0.359,-2.331 0.333,-0.615 0.743,-0.82 1.614,-0.897 V -9.53 h -7.686 v 0.461 c 0.922,0.077 1.307,0.282 1.691,0.897" />
          </g>
          <g
             transform="translate(285.3585,104.8006)"
             id="g877">
            <path
               inkscape:connector-curvature="0"
               id="path879"
               style="fill:#000000;fill-opacity:1;fill-rule:nonzero;stroke:none"
               d="m 0,0 c 0.308,0.538 0.359,0.999 0.359,2.69 v 5.175 5.662 l -0.026,0.922 c 0,1.358 -0.666,2.101 -1.921,2.178 v 0.487 H 6.046 V 16.627 C 5.15,16.55 4.74,16.371 4.381,15.73 4.279,15.525 4.202,15.346 4.15,15.167 4.074,14.833 4.048,14.142 4.048,13.527 V 8.762 h 8.147 v 4.765 c 0,1.255 -0.077,1.717 -0.359,2.203 -0.358,0.641 -0.743,0.82 -1.665,0.897 v 0.487 h 7.635 V 16.627 C 16.935,16.55 16.55,16.371 16.217,15.73 15.936,15.244 15.884,14.885 15.884,13.527 V 7.865 2.332 c 0,-1.384 0.052,-1.896 0.333,-2.332 0.333,-0.589 0.795,-0.82 1.691,-0.897 v -0.461 h -7.686 l -0.025,0.461 c 0.871,0.077 1.332,0.308 1.665,0.897 0.256,0.436 0.333,0.922 0.333,2.332 V 7.711 H 4.048 V 2.332 1.947 C 4.048,0.896 4.099,0.487 4.381,0 4.714,-0.615 5.124,-0.82 6.021,-0.897 v -0.461 h -7.686 v 0.461 C -0.743,-0.82 -0.358,-0.615 0,0" />
          </g>
          <g
             transform="translate(302.5782,121.9143)"
             id="g881">
            <path
               inkscape:connector-curvature="0"
               id="path883"
               style="fill:#000000;fill-opacity:1;fill-rule:nonzero;stroke:none"
               d="M 0,0 H 8.608 V -0.487 C 7.481,-0.563 6.969,-0.896 6.969,-1.614 c 0,-0.256 0.102,-0.666 0.333,-1.051 l 0.563,-1.024 3.075,-5.662 3.151,5.662 c 0.64,1.178 0.846,1.716 0.846,2.101 0,0.742 -0.513,1.025 -1.82,1.101 V 0 h 5.688 v -0.487 c -0.82,-0.076 -1.23,-0.256 -1.87,-0.896 -0.59,-0.538 -0.923,-1.025 -1.665,-2.306 l -3.844,-6.687 v -2.946 c 0,-2.229 0.026,-2.69 0.154,-3.202 0.231,-0.949 0.795,-1.384 1.871,-1.487 v -0.461 H 5.713 v 0.461 c 0.897,0.077 1.281,0.282 1.64,0.897 0.23,0.385 0.308,0.743 0.333,1.307 0.026,0.666 0.026,1.383 0.026,4.79 l -4.15,7.328 C 2.844,-2.383 2.511,-1.921 1.922,-1.383 1.255,-0.743 0.846,-0.563 0,-0.487 Z" />
          </g>
          <g
             transform="translate(320.8223,109.489)"
             id="g885">
            <path
               inkscape:connector-curvature="0"
               id="path887"
               style="fill:#000000;fill-opacity:1;fill-rule:nonzero;stroke:none"
               d="m 0,0 c 0.179,-1.333 0.333,-1.845 0.717,-2.639 0.82,-1.768 2.536,-2.844 4.56,-2.844 2.076,0 3.51,1.333 3.51,3.228 0,0.384 -0.077,0.795 -0.179,1.204 C 8.198,0.205 7.276,0.973 4.535,2.306 2.536,3.279 1.87,3.766 1.178,4.637 0.461,5.559 0.128,6.559 0.128,7.711 c 0,2.947 2.229,4.996 5.38,4.996 0.999,0 1.972,-0.23 2.818,-0.615 0.41,-0.154 0.666,-0.281 0.717,-0.307 0.154,-0.077 0.308,-0.103 0.461,-0.103 0.462,0 0.718,0.333 0.744,1.025 h 0.46 L 11.144,6.789 10.683,6.712 c -0.282,1.435 -0.359,1.742 -0.589,2.357 -0.64,1.589 -2.178,2.639 -3.92,2.639 -1.691,0 -2.869,-1.025 -2.869,-2.587 0,-1.154 0.743,-2.076 2.331,-2.921 L 7.48,5.201 c 3.459,-1.87 4.561,-3.28 4.561,-5.816 0,-3.459 -2.587,-5.842 -6.379,-5.842 -1.281,0 -2.537,0.308 -3.536,0.846 -0.461,0.257 -0.717,0.359 -0.922,0.359 -0.487,0 -0.743,-0.359 -0.794,-1.102 H -0.051 L -0.513,0 Z" />
          </g>
          <g
             transform="translate(334.4288,103.9036)"
             id="g889">
            <path
               inkscape:connector-curvature="0"
               id="path891"
               style="fill:#000000;fill-opacity:1;fill-rule:nonzero;stroke:none"
               d="m 0,0 c 0.896,0.077 1.358,0.308 1.691,0.897 0.128,0.205 0.205,0.41 0.23,0.589 0.026,0.128 0.052,0.385 0.077,0.718 0.026,0.384 0.051,0.717 0.051,1.025 v 5.533 5.688 c 0,1.28 -0.076,1.742 -0.333,2.203 -0.307,0.589 -0.794,0.846 -1.665,0.871 v 0.487 H 7.737 V 17.524 C 6.892,17.499 6.405,17.242 6.072,16.653 5.79,16.217 5.739,15.705 5.739,14.373 V 8.762 3.203 C 5.739,1.922 5.815,1.358 6.072,0.897 6.379,0.308 6.892,0.077 7.711,0 L 7.737,-0.461 H 0 Z" />
          </g>
          <g
             transform="translate(360.3062,122.0935)"
             id="g893">
            <path
               inkscape:connector-curvature="0"
               id="path895"
               style="fill:#000000;fill-opacity:1;fill-rule:nonzero;stroke:none"
               d="m 0,0 0.256,-6.507 -0.461,-0.052 c -0.436,1.461 -0.666,2.024 -1.153,2.793 -1.179,1.87 -2.946,2.87 -5.047,2.87 -3.843,0 -6.303,-3.331 -6.303,-8.558 0,-1.152 0.154,-2.305 0.436,-3.279 0.897,-3.305 3.074,-5.123 6.174,-5.123 1.358,0 2.588,0.435 3.587,1.178 0.538,0.41 0.973,0.896 1.256,1.46 0.307,0.59 0.435,0.923 0.768,2.152 l 0.769,-0.205 c -0.333,-1.486 -0.513,-2.024 -1.025,-2.844 -1.204,-1.921 -3.485,-2.946 -6.507,-2.946 -5.56,0 -9.249,3.613 -9.249,9.172 0,5.918 3.919,10.017 9.556,10.017 1.589,0 2.588,-0.231 4.534,-0.973 0.436,-0.154 0.769,-0.257 0.974,-0.257 0.641,0 0.948,0.333 0.948,1.102 z" />
          </g>
          <g
             transform="translate(362.9483,109.489)"
             id="g897">
            <path
               inkscape:connector-curvature="0"
               id="path899"
               style="fill:#000000;fill-opacity:1;fill-rule:nonzero;stroke:none"
               d="m 0,0 c 0.179,-1.333 0.333,-1.845 0.717,-2.639 0.82,-1.768 2.536,-2.844 4.56,-2.844 2.076,0 3.51,1.333 3.51,3.228 0,0.384 -0.077,0.795 -0.179,1.204 C 8.198,0.205 7.276,0.973 4.535,2.306 2.536,3.279 1.87,3.766 1.178,4.637 0.461,5.559 0.128,6.559 0.128,7.711 c 0,2.947 2.229,4.996 5.38,4.996 0.999,0 1.972,-0.23 2.818,-0.615 0.41,-0.154 0.666,-0.281 0.717,-0.307 0.154,-0.077 0.308,-0.103 0.461,-0.103 0.462,0 0.718,0.333 0.744,1.025 h 0.46 L 11.144,6.789 10.683,6.712 c -0.282,1.435 -0.359,1.742 -0.589,2.357 -0.64,1.589 -2.178,2.639 -3.92,2.639 -1.691,0 -2.869,-1.025 -2.869,-2.587 0,-1.154 0.743,-2.076 2.331,-2.921 L 7.48,5.201 c 3.459,-1.87 4.561,-3.28 4.561,-5.816 0,-3.459 -2.587,-5.842 -6.379,-5.842 -1.281,0 -2.537,0.308 -3.536,0.846 -0.461,0.257 -0.717,0.359 -0.922,0.359 -0.487,0 -0.743,-0.359 -0.794,-1.102 H -0.051 L -0.513,0 Z" />
          </g>
          <g
             transform="translate(385.1124,109.489)"
             id="g901">
            <path
               inkscape:connector-curvature="0"
               id="path903"
               style="fill:#000000;fill-opacity:1;fill-rule:nonzero;stroke:none"
               d="m 0,0 c 0.179,-1.333 0.333,-1.845 0.717,-2.639 0.82,-1.768 2.537,-2.844 4.56,-2.844 2.076,0 3.51,1.333 3.51,3.228 0,0.384 -0.077,0.795 -0.179,1.204 C 8.198,0.205 7.275,0.973 4.534,2.306 2.536,3.279 1.87,3.766 1.179,4.637 0.461,5.559 0.128,6.559 0.128,7.711 c 0,2.947 2.228,4.996 5.38,4.996 0.999,0 1.972,-0.23 2.818,-0.615 0.41,-0.154 0.666,-0.281 0.717,-0.307 0.154,-0.077 0.308,-0.103 0.462,-0.103 0.461,0 0.717,0.333 0.743,1.025 h 0.461 L 11.145,6.789 10.684,6.712 c -0.283,1.435 -0.36,1.742 -0.59,2.357 -0.641,1.589 -2.178,2.639 -3.92,2.639 -1.691,0 -2.869,-1.025 -2.869,-2.587 0,-1.154 0.743,-2.076 2.331,-2.921 L 7.48,5.201 c 3.459,-1.87 4.561,-3.28 4.561,-5.816 0,-3.459 -2.588,-5.842 -6.379,-5.842 -1.281,0 -2.537,0.308 -3.536,0.846 -0.461,0.257 -0.717,0.359 -0.922,0.359 -0.487,0 -0.743,-0.359 -0.794,-1.102 H -0.052 L -0.513,0 Z" />
          </g>
          <g
             transform="translate(403.3311,112.5374)"
             id="g905">
            <path
               inkscape:connector-curvature="0"
               id="path907"
               style="fill:#000000;fill-opacity:1;fill-rule:nonzero;stroke:none"
               d="m 0,0 c 0.103,-5.047 2.484,-8.429 5.918,-8.429 3.561,0 5.969,3.51 5.969,8.634 0,4.97 -2.434,8.455 -5.969,8.455 C 2.459,8.66 0,5.175 0,0.231 Z m 5.943,9.659 c 5.585,0 9.889,-4.151 9.889,-9.531 0,-5.482 -4.252,-9.582 -9.889,-9.582 -5.662,0 -9.915,4.1 -9.915,9.582 0,5.38 4.305,9.531 9.915,9.531" />
          </g>
          <g
             transform="translate(437.9464,122.0935)"
             id="g909">
            <path
               inkscape:connector-curvature="0"
               id="path911"
               style="fill:#000000;fill-opacity:1;fill-rule:nonzero;stroke:none"
               d="m 0,0 0.257,-6.507 -0.462,-0.052 c -0.436,1.461 -0.666,2.024 -1.152,2.793 -1.179,1.87 -2.947,2.87 -5.047,2.87 -3.844,0 -6.303,-3.331 -6.303,-8.558 0,-1.152 0.153,-2.305 0.436,-3.279 0.896,-3.305 3.074,-5.123 6.173,-5.123 1.359,0 2.588,0.435 3.587,1.178 0.538,0.41 0.974,0.896 1.256,1.46 0.308,0.59 0.436,0.923 0.769,2.152 l 0.768,-0.205 c -0.333,-1.486 -0.512,-2.024 -1.025,-2.844 -1.204,-1.921 -3.484,-2.946 -6.507,-2.946 -5.56,0 -9.249,3.613 -9.249,9.172 0,5.918 3.92,10.017 9.557,10.017 1.588,0 2.587,-0.231 4.534,-0.973 0.435,-0.154 0.768,-0.257 0.973,-0.257 0.641,0 0.949,0.333 0.949,1.102 z" />
          </g>
          <g
             transform="translate(439.461,103.9036)"
             id="g913">
            <path
               inkscape:connector-curvature="0"
               id="path915"
               style="fill:#000000;fill-opacity:1;fill-rule:nonzero;stroke:none"
               d="M 0,0 C 0.897,0.077 1.358,0.308 1.691,0.897 1.819,1.102 1.896,1.307 1.922,1.486 1.947,1.614 1.974,1.871 1.999,2.204 2.024,2.588 2.05,2.921 2.05,3.229 v 5.533 5.688 c 0,1.28 -0.076,1.742 -0.333,2.203 -0.308,0.589 -0.794,0.846 -1.665,0.871 v 0.487 H 7.737 V 17.524 C 6.892,17.499 6.405,17.242 6.072,16.653 5.79,16.217 5.739,15.705 5.739,14.373 V 8.762 3.203 C 5.739,1.922 5.816,1.358 6.072,0.897 6.38,0.308 6.892,0.077 7.712,0 L 7.737,-0.461 H 0 Z" />
          </g>
          <g
             transform="translate(449.838,104.8006)"
             id="g917">
            <path
               inkscape:connector-curvature="0"
               id="path919"
               style="fill:#000000;fill-opacity:1;fill-rule:nonzero;stroke:none"
               d="m 0,0 c 0.257,0.436 0.333,0.948 0.333,2.332 v 5.533 5.662 c 0,1.384 -0.025,1.717 -0.333,2.203 -0.333,0.641 -0.717,0.82 -1.588,0.897 v 0.487 H 12.195 L 12.478,12.425 12.093,12.4 c -0.281,1.255 -0.461,1.665 -0.871,2.254 -0.743,1.051 -1.948,1.409 -4.791,1.409 H 4.074 V 8.685 h 1.05 c 1.435,0 1.947,0.103 2.46,0.461 0.743,0.461 1.024,1.204 1.204,2.741 H 9.224 V 4.458 H 8.763 C 8.686,6.892 7.789,7.66 5.124,7.66 H 4.074 V 3.228 c 0,-1.717 0.179,-2.178 0.897,-2.792 0.691,-0.539 1.767,-0.82 3.202,-0.82 1.434,0 2.588,0.281 3.459,0.871 0.563,0.358 0.999,0.82 1.306,1.358 0.384,0.64 0.564,1.178 0.794,2.51 L 14.168,4.33 13.938,-1.358 H -1.64 v 0.461 C -0.769,-0.82 -0.333,-0.589 0,0" />
          </g>
          <g
             transform="translate(464.419,121.9143)"
             id="g921">
            <path
               inkscape:connector-curvature="0"
               id="path923"
               style="fill:#000000;fill-opacity:1;fill-rule:nonzero;stroke:none"
               d="m 0,0 h 18.267 l 0.281,-5.482 -0.461,-0.052 c -0.153,1.153 -0.308,1.614 -0.897,2.383 -1.127,1.486 -2.587,2.126 -5.021,2.126 h -1.204 v -8.224 -5.533 c 0,-1.435 0.052,-1.794 0.358,-2.332 0.333,-0.615 0.743,-0.82 1.64,-0.897 l -0.025,-0.461 H 5.227 v 0.461 c 0.921,0.077 1.306,0.282 1.665,0.897 0.23,0.385 0.307,0.718 0.333,1.307 0.025,0.512 0.025,1.281 0.025,2.382 v 4.176 8.199 H 6.251 C 4.791,-1.05 3.689,-1.281 2.664,-1.768 2.075,-2.075 1.537,-2.485 1.127,-3.023 0.614,-3.715 0.384,-4.202 0.128,-5.482 h -0.436 z" />
          </g>
          <g
             transform="translate(482.0225,121.9143)"
             id="g925">
            <path
               inkscape:connector-curvature="0"
               id="path927"
               style="fill:#000000;fill-opacity:1;fill-rule:nonzero;stroke:none"
               d="M 0,0 H 8.608 V -0.487 C 7.481,-0.563 6.969,-0.896 6.969,-1.614 c 0,-0.256 0.102,-0.666 0.333,-1.051 l 0.563,-1.024 3.074,-5.662 3.152,5.662 c 0.64,1.178 0.846,1.716 0.846,2.101 0,0.742 -0.513,1.025 -1.82,1.101 V 0 h 5.688 v -0.487 c -0.82,-0.076 -1.23,-0.256 -1.87,-0.896 -0.589,-0.538 -0.922,-1.025 -1.665,-2.306 l -3.843,-6.687 v -2.946 c 0,-2.229 0.025,-2.69 0.153,-3.202 0.231,-0.949 0.794,-1.384 1.87,-1.487 v -0.461 H 5.713 v 0.461 c 0.897,0.077 1.281,0.282 1.64,0.897 0.231,0.385 0.307,0.743 0.334,1.307 0.025,0.666 0.025,1.383 0.025,4.79 l -4.15,7.328 C 2.844,-2.383 2.511,-1.921 1.922,-1.383 1.256,-0.743 0.846,-0.563 0,-0.487 Z" />
          </g>
          <g
             transform="translate(149.0123,167.4641)"
             id="g929">
            <path
               inkscape:connector-curvature="0"
               id="path931"
               style="fill:#000000;fill-opacity:1;fill-rule:nonzero;stroke:none"
               d="M 0,0 0.495,-11.426 H -0.18 c -1.934,6.343 -5.893,9.897 -11.021,9.897 -6.702,0 -11.066,-5.938 -11.066,-15.07 0,-8.906 4.409,-14.889 10.841,-14.889 3.554,0 5.803,1.934 5.803,4.993 v 1.754 c 0,2.429 -1.484,3.779 -4.363,3.869 v 0.81 H 4.453 v -0.81 c -1.664,-0.09 -2.429,-0.495 -3.104,-1.574 -0.224,-0.315 -0.359,-0.675 -0.45,-1.035 -0.179,-0.675 -0.224,-1.08 -0.224,-3.014 v -4.678 l -2.025,1.215 c -2.249,-1.71 -3.193,-2.205 -5.757,-2.879 -1.8,-0.45 -3.734,-0.675 -5.533,-0.675 -9.807,0 -16.239,6.342 -16.239,16.149 0,10.301 6.972,17.588 16.823,17.588 2.7,0 4.094,-0.315 7.917,-1.754 0.63,-0.225 1.215,-0.405 1.53,-0.405 1.125,0 1.754,0.72 1.799,1.934 z" />
          </g>
          <g
             transform="translate(156.8375,137.1008)"
             id="g933">
            <path
               inkscape:connector-curvature="0"
               id="path935"
               style="fill:#000000;fill-opacity:1;fill-rule:nonzero;stroke:none"
               d="m 0,0 c 0.495,0.944 0.585,1.574 0.585,4.093 v 9.717 9.986 1.574 c 0,0.99 -0.18,1.62 -0.54,2.249 -0.629,1.125 -1.304,1.44 -2.924,1.575 l 0.09,0.854 h 13.45 V 29.194 C 9.042,29.059 8.367,28.744 7.737,27.619 7.243,26.81 7.152,26 7.152,23.796 V 23.571 L 7.243,6.837 C 7.243,3.374 7.288,3.014 7.737,1.934 8.412,0.27 10.706,-0.72 13.9,-0.72 c 5.533,0 8.637,2.789 9.222,8.457 L 23.886,7.692 23.346,-2.384 H -2.879 v 0.809 C -1.304,-1.439 -0.629,-1.08 0,0" />
          </g>
          <g
             transform="translate(190.0787,147.9866)"
             id="g937">
            <path
               inkscape:connector-curvature="0"
               id="path939"
               style="fill:#000000;fill-opacity:1;fill-rule:nonzero;stroke:none"
               d="M 0,0 H 9.086 L 4.633,11.291 Z m -6.882,-10.886 c 0.854,0.99 1.304,1.754 2.159,4.094 l 0.63,1.529 10.166,24.426 h 2.204 l 10.526,-25.955 0.719,-1.8 c 0.27,-0.72 0.811,-1.619 1.395,-2.249 0.99,-1.124 1.665,-1.439 3.059,-1.619 v -0.81 H 9.042 v 0.81 c 2.563,0.18 3.598,0.944 3.598,2.564 0,0.674 -0.18,1.349 -0.899,3.104 -0.45,1.124 -1.17,2.789 -2.115,5.038 H -0.63 c -2.519,-6.208 -2.788,-7.063 -2.788,-8.098 0,-1.664 1.079,-2.428 3.643,-2.608 v -0.81 H -9.986 v 0.81 c 1.394,0.18 2.114,0.495 3.104,1.574" />
          </g>
          <g
             transform="translate(214.7281,145.3323)"
             id="g941">
            <path
               inkscape:connector-curvature="0"
               id="path943"
               style="fill:#000000;fill-opacity:1;fill-rule:nonzero;stroke:none"
               d="m 0,0 c 0.315,-2.339 0.584,-3.238 1.259,-4.633 1.44,-3.104 4.454,-4.993 8.008,-4.993 3.643,0 6.162,2.339 6.162,5.668 0,0.674 -0.135,1.394 -0.315,2.114 C 14.395,0.36 12.775,1.709 7.962,4.049 4.453,5.758 3.284,6.613 2.069,8.142 0.81,9.762 0.225,11.516 0.225,13.54 c 0,5.173 3.913,8.772 9.446,8.772 1.755,0 3.464,-0.405 4.949,-1.08 0.719,-0.27 1.169,-0.495 1.259,-0.54 0.27,-0.134 0.539,-0.179 0.809,-0.179 0.811,0 1.26,0.584 1.305,1.799 h 0.81 l 0.764,-10.391 -0.809,-0.135 c -0.495,2.519 -0.63,3.059 -1.035,4.138 -1.124,2.789 -3.823,4.634 -6.882,4.634 -2.969,0 -5.038,-1.8 -5.038,-4.544 0,-2.024 1.304,-3.643 4.093,-5.128 l 3.239,-1.754 c 6.073,-3.284 8.007,-5.758 8.007,-10.211 0,-6.073 -4.543,-10.256 -11.201,-10.256 -2.249,0 -4.453,0.539 -6.208,1.484 -0.809,0.45 -1.259,0.63 -1.619,0.63 -0.855,0 -1.304,-0.63 -1.394,-1.934 H -0.09 L -0.9,0 Z" />
          </g>
          <g
             transform="translate(268.6168,167.4641)"
             id="g945">
            <path
               inkscape:connector-curvature="0"
               id="path947"
               style="fill:#000000;fill-opacity:1;fill-rule:nonzero;stroke:none"
               d="M 0,0 0.495,-11.426 H -0.18 c -1.934,6.343 -5.893,9.897 -11.021,9.897 -6.702,0 -11.066,-5.938 -11.066,-15.07 0,-8.906 4.409,-14.889 10.841,-14.889 3.554,0 5.803,1.934 5.803,4.993 v 1.754 c 0,2.429 -1.484,3.779 -4.363,3.869 v 0.81 H 4.453 v -0.81 c -1.664,-0.09 -2.429,-0.495 -3.104,-1.574 -0.224,-0.315 -0.359,-0.675 -0.45,-1.035 -0.179,-0.675 -0.224,-1.08 -0.224,-3.014 v -4.678 l -2.025,1.215 c -2.249,-1.71 -3.193,-2.205 -5.757,-2.879 -1.8,-0.45 -3.734,-0.675 -5.533,-0.675 -9.807,0 -16.239,6.342 -16.239,16.149 0,10.301 6.972,17.588 16.823,17.588 2.7,0 4.094,-0.315 7.917,-1.754 0.63,-0.225 1.215,-0.405 1.53,-0.405 1.125,0 1.754,0.72 1.799,1.934 z" />
          </g>
          <g
             transform="translate(281.6602,150.6853)"
             id="g949">
            <path
               inkscape:connector-curvature="0"
               id="path951"
               style="fill:#000000;fill-opacity:1;fill-rule:nonzero;stroke:none"
               d="m 0,0 c 0.18,-8.861 4.363,-14.799 10.391,-14.799 6.253,0 10.481,6.162 10.481,15.159 0,8.727 -4.273,14.845 -10.481,14.845 C 4.318,15.205 0,9.087 0,0.405 Z m 10.436,16.958 c 9.806,0 17.363,-7.287 17.363,-16.733 0,-9.626 -7.467,-16.824 -17.363,-16.824 -9.941,0 -17.409,7.198 -17.409,16.824 0,9.446 7.558,16.733 17.409,16.733" />
          </g>
          <g
             transform="translate(307.3443,167.1492)"
             id="g953">
            <path
               inkscape:connector-curvature="0"
               id="path955"
               style="fill:#000000;fill-opacity:1;fill-rule:nonzero;stroke:none"
               d="m 0,0 h 14.665 v -0.854 c -2.16,-0.045 -3.149,-0.811 -3.149,-2.25 0,-0.72 0.135,-1.169 0.989,-3.374 l 6.793,-17.138 5.577,15.204 -0.764,2.024 c -0.45,1.35 -1.08,2.744 -1.574,3.554 -0.72,1.395 -1.485,1.799 -3.329,1.935 V 0 h 14.619 v -0.854 c -2.429,-0.271 -3.328,-1.035 -3.328,-2.79 0,-0.944 0.179,-1.799 0.944,-3.868 l 5.713,-16.149 6.702,17.183 c 0.405,0.99 0.63,1.62 0.675,1.8 0.18,0.449 0.27,1.034 0.27,1.439 0,1.574 -0.99,2.249 -3.374,2.385 V 0 h 9.942 v -0.81 c -0.45,-0.044 -0.855,-0.089 -1.08,-0.18 -0.72,-0.179 -1.574,-0.764 -2.159,-1.394 -0.72,-0.72 -1.17,-1.619 -2.204,-4.049 L 35.402,-32.792 H 33.603 L 25.82,-10.706 17.543,-32.792 H 15.789 L 5.398,-6.478 c -0.36,0.9 -0.585,1.485 -0.675,1.8 -0.36,0.809 -0.899,1.619 -1.484,2.249 C 2.204,-1.304 1.484,-0.99 0,-0.854 Z" />
          </g>
          <g
             transform="translate(371.2173,167.1492)"
             id="g957">
            <path
               inkscape:connector-curvature="0"
               id="path959"
               style="fill:#000000;fill-opacity:1;fill-rule:nonzero;stroke:none"
               d="m 0,0 h 13.584 v -0.854 c -1.619,-0.136 -2.338,-0.45 -2.968,-1.575 -0.495,-0.81 -0.585,-1.349 -0.585,-4.049 v -15.789 c 0,-1.349 0,-2.338 0.045,-2.879 0.045,-0.899 0.36,-1.844 0.81,-2.698 1.17,-2.025 3.913,-3.194 7.512,-3.194 2.384,0 4.363,0.539 5.982,1.619 0.856,0.585 1.62,1.395 2.07,2.384 0.585,1.26 0.809,2.564 0.809,5.353 v 15.204 1.8 c 0,0.945 -0.224,1.619 -0.539,2.249 -0.63,1.125 -1.304,1.439 -2.924,1.575 V 0 h 8.817 v -0.854 c -1.574,-0.136 -2.294,-0.45 -2.879,-1.575 -0.54,-0.855 -0.63,-1.44 -0.63,-4.049 v -15.429 c 0,-3.328 -0.27,-4.723 -1.125,-6.297 -1.799,-3.194 -5.803,-4.903 -11.471,-4.903 -2.968,0 -5.532,0.449 -7.781,1.304 -1.215,0.45 -2.339,1.17 -3.284,2.115 -1.44,1.439 -1.889,3.058 -1.889,6.612 v 16.598 c 0,0.9 0,1.485 -0.045,1.8 0,0.945 -0.18,1.619 -0.54,2.249 C 2.339,-1.304 1.62,-0.99 0,-0.854 Z" />
          </g>
          <g
             transform="translate(408.461,137.1008)"
             id="g961">
            <path
               inkscape:connector-curvature="0"
               id="path963"
               style="fill:#000000;fill-opacity:1;fill-rule:nonzero;stroke:none"
               d="m 0,0 c 0.54,0.944 0.585,1.484 0.63,4.093 v 9.717 7.691 c 0,2.925 -0.045,4.319 -0.225,5.129 -0.405,1.664 -1.349,2.429 -3.194,2.564 v 0.854 H 7.107 L 24.066,7.872 v 15.924 1.574 c 0,0.9 -0.18,1.62 -0.585,2.249 -0.54,1.125 -1.304,1.44 -2.834,1.575 v 0.854 h 8.727 v -0.854 c -2.609,-0.18 -3.419,-1.485 -3.419,-5.398 V -2.429 H 24.021 L 2.475,25.325 V 4.093 C 2.475,1.844 2.654,0.944 3.149,0 3.778,-1.08 4.453,-1.439 5.983,-1.575 v -0.809 h -8.817 v 0.809 C -1.305,-1.439 -0.585,-1.08 0,0" />
          </g>
          <g
             transform="translate(439.588,135.5261)"
             id="g965">
            <path
               inkscape:connector-curvature="0"
               id="path967"
               style="fill:#000000;fill-opacity:1;fill-rule:nonzero;stroke:none"
               d="m 0,0 c 1.574,0.135 2.384,0.54 2.969,1.575 0.225,0.36 0.36,0.719 0.405,1.034 0.045,0.225 0.09,0.675 0.135,1.26 0.045,0.674 0.09,1.259 0.09,1.799 v 9.716 9.987 c 0,2.249 -0.135,3.058 -0.585,3.868 -0.539,1.034 -1.395,1.485 -2.924,1.53 v 0.854 h 13.495 v -0.854 c -1.484,-0.045 -2.339,-0.496 -2.924,-1.53 -0.495,-0.765 -0.585,-1.664 -0.585,-4.004 V 15.384 5.623 c 0,-2.249 0.135,-3.239 0.585,-4.048 C 11.201,0.54 12.101,0.135 13.54,0 l 0.045,-0.81 H 0 Z" />
          </g>
          <g
             transform="translate(452.002,167.1492)"
             id="g969">
            <path
               inkscape:connector-curvature="0"
               id="path971"
               style="fill:#000000;fill-opacity:1;fill-rule:nonzero;stroke:none"
               d="m 0,0 h 14.574 v -0.854 c -2.159,-0.136 -3.148,-0.855 -3.148,-2.295 0,-0.629 0.224,-1.574 0.854,-3.329 l 6.478,-17.228 6.567,17.228 c 0.63,1.665 0.901,2.654 0.901,3.194 0,1.53 -1.125,2.294 -3.509,2.43 V 0 h 9.895 v -0.854 c -0.494,0 -0.809,-0.045 -1.079,-0.181 -0.63,-0.179 -1.529,-0.764 -2.069,-1.349 -0.225,-0.225 -0.45,-0.585 -0.765,-1.034 -0.45,-0.9 -0.675,-1.26 -1.349,-3.06 L 17.049,-32.792 H 15.204 L 5.218,-6.478 c -0.315,0.99 -0.584,1.575 -0.675,1.8 -0.27,0.809 -0.899,1.754 -1.349,2.294 C 2.339,-1.395 1.484,-0.99 0,-0.854 Z" />
          </g>
          <g
             transform="translate(486.2325,137.1008)"
             id="g973">
            <path
               inkscape:connector-curvature="0"
               id="path975"
               style="fill:#000000;fill-opacity:1;fill-rule:nonzero;stroke:none"
               d="m 0,0 c 0.45,0.765 0.585,1.664 0.585,4.093 v 9.717 9.941 c 0,2.429 -0.045,3.014 -0.585,3.868 -0.585,1.125 -1.26,1.44 -2.789,1.575 v 0.854 h 24.201 l 0.495,-8.232 -0.675,-0.045 c -0.495,2.205 -0.809,2.924 -1.529,3.959 -1.305,1.844 -3.419,2.474 -8.412,2.474 H 7.152 V 15.249 h 1.845 c 2.519,0 3.418,0.18 4.318,0.81 1.305,0.809 1.799,2.114 2.115,4.813 h 0.764 V 7.827 H 15.385 C 15.249,12.1 13.675,13.45 8.997,13.45 H 7.152 V 5.667 c 0,-3.013 0.316,-3.823 1.575,-4.902 1.214,-0.945 3.104,-1.44 5.623,-1.44 2.519,0 4.543,0.495 6.073,1.529 0.989,0.63 1.754,1.44 2.294,2.385 0.675,1.124 0.989,2.069 1.394,4.408 l 0.765,-0.045 -0.405,-9.986 h -27.35 v 0.809 C -1.35,-1.439 -0.585,-1.035 0,0" />
          </g>
          <g
             transform="translate(522.6231,151.99)"
             id="g977">
            <path
               inkscape:connector-curvature="0"
               id="path979"
               style="fill:#000000;fill-opacity:1;fill-rule:nonzero;stroke:none"
               d="m 0,0 h 3.284 c 3.328,0 4.813,0.315 6.117,1.305 1.305,1.124 2.025,2.968 2.025,5.307 0,2.385 -0.72,4.319 -2.025,5.353 -1.349,0.99 -2.609,1.35 -5.713,1.35 H 0 Z m -7.018,-14.889 c 0.496,0.854 0.63,1.574 0.63,3.688 v 0.405 9.716 9.987 c 0,2.428 -0.09,2.968 -0.63,3.823 -0.629,1.125 -1.304,1.439 -2.968,1.575 v 0.854 H 6.702 c 3.779,0 5.938,-0.45 7.782,-1.574 2.16,-1.305 3.509,-3.869 3.509,-6.613 0,-2.384 -0.944,-4.408 -2.609,-5.847 -1.44,-1.17 -2.564,-1.62 -5.398,-2.07 2.115,-0.314 3.014,-0.675 4.003,-1.484 1.26,-0.989 1.575,-1.485 3.509,-5.488 2.789,-5.803 5.264,-8.547 7.782,-8.547 h 0.406 v -0.809 H 15.249 l -5.128,10.211 c -1.619,3.104 -1.845,3.463 -2.879,4.183 -0.854,0.675 -2.384,1.08 -4.049,1.08 H 0 v -8.997 -1.799 c 0.045,-0.945 0.225,-1.619 0.585,-2.294 0.63,-1.08 1.35,-1.44 2.969,-1.575 v -0.809 h -13.54 v 0.809 c 1.619,0.135 2.339,0.495 2.968,1.575" />
          </g>
          <g
             transform="translate(547.9014,145.3323)"
             id="g981">
            <path
               inkscape:connector-curvature="0"
               id="path983"
               style="fill:#000000;fill-opacity:1;fill-rule:nonzero;stroke:none"
               d="m 0,0 c 0.314,-2.339 0.585,-3.238 1.26,-4.633 1.439,-3.104 4.453,-4.993 8.007,-4.993 3.643,0 6.162,2.339 6.162,5.668 0,0.674 -0.135,1.394 -0.315,2.114 C 14.395,0.36 12.775,1.709 7.962,4.049 4.453,5.758 3.283,6.613 2.069,8.142 0.81,9.762 0.225,11.516 0.225,13.54 c 0,5.173 3.914,8.772 9.446,8.772 1.755,0 3.464,-0.405 4.948,-1.08 0.72,-0.27 1.17,-0.495 1.26,-0.54 0.269,-0.134 0.54,-0.179 0.809,-0.179 0.81,0 1.26,0.584 1.305,1.799 h 0.81 l 0.764,-10.391 -0.809,-0.135 c -0.495,2.519 -0.63,3.059 -1.034,4.138 -1.125,2.789 -3.825,4.634 -6.883,4.634 -2.969,0 -5.038,-1.8 -5.038,-4.544 0,-2.024 1.304,-3.643 4.093,-5.128 l 3.239,-1.754 c 6.073,-3.284 8.007,-5.758 8.007,-10.211 0,-6.073 -4.543,-10.256 -11.201,-10.256 -2.249,0 -4.453,0.539 -6.208,1.484 -0.809,0.45 -1.259,0.63 -1.619,0.63 -0.854,0 -1.304,-0.63 -1.394,-1.934 H -0.09 L -0.899,0 Z" />
          </g>
          <g
             transform="translate(571.7862,135.5261)"
             id="g985">
            <path
               inkscape:connector-curvature="0"
               id="path987"
               style="fill:#000000;fill-opacity:1;fill-rule:nonzero;stroke:none"
               d="m 0,0 c 1.574,0.135 2.385,0.54 2.969,1.575 0.225,0.36 0.36,0.719 0.405,1.034 0.045,0.225 0.09,0.675 0.135,1.26 0.045,0.674 0.09,1.259 0.09,1.799 v 9.716 9.987 c 0,2.249 -0.135,3.058 -0.585,3.868 -0.539,1.034 -1.395,1.485 -2.924,1.53 v 0.854 h 13.495 v -0.854 c -1.484,-0.045 -2.339,-0.496 -2.924,-1.53 -0.495,-0.765 -0.585,-1.664 -0.585,-4.004 V 15.384 5.623 c 0,-2.249 0.135,-3.239 0.585,-4.048 C 11.201,0.54 12.101,0.135 13.54,0 l 0.045,-0.81 H 0 Z" />
          </g>
          <g
             transform="translate(586.2247,167.1492)"
             id="g989">
            <path
               inkscape:connector-curvature="0"
               id="path991"
               style="fill:#000000;fill-opacity:1;fill-rule:nonzero;stroke:none"
               d="m 0,0 h 32.073 l 0.494,-9.626 -0.809,-0.09 c -0.27,2.024 -0.54,2.834 -1.574,4.183 -1.98,2.609 -4.543,3.734 -8.817,3.734 h -2.114 v -14.44 -9.716 c 0,-2.519 0.09,-3.149 0.63,-4.093 0.584,-1.08 1.304,-1.44 2.879,-1.575 l -0.046,-0.81 H 9.177 v 0.81 c 1.619,0.135 2.294,0.495 2.924,1.575 0.404,0.674 0.539,1.259 0.585,2.294 0.044,0.899 0.044,2.249 0.044,4.183 v 7.332 14.395 h -1.754 c -2.564,0 -4.498,-0.405 -6.298,-1.26 C 3.644,-3.644 2.699,-4.363 1.979,-5.308 1.079,-6.522 0.675,-7.377 0.225,-9.626 H -0.54 Z" />
          </g>
          <g
             transform="translate(617.126,167.1492)"
             id="g993">
            <path
               inkscape:connector-curvature="0"
               id="path995"
               style="fill:#000000;fill-opacity:1;fill-rule:nonzero;stroke:none"
               d="m 0,0 h 15.114 v -0.854 c -1.979,-0.136 -2.879,-0.72 -2.879,-1.98 0,-0.45 0.18,-1.169 0.585,-1.844 l 0.99,-1.8 5.398,-9.94 5.532,9.94 c 1.125,2.07 1.486,3.015 1.486,3.689 0,1.305 -0.901,1.799 -3.195,1.935 V 0 h 9.987 v -0.854 c -1.44,-0.136 -2.16,-0.45 -3.285,-1.575 -1.034,-0.945 -1.619,-1.8 -2.923,-4.049 l -6.748,-11.74 v -5.173 c 0,-3.914 0.045,-4.723 0.27,-5.623 0.405,-1.664 1.395,-2.429 3.284,-2.609 v -0.81 H 10.031 v 0.81 c 1.574,0.135 2.249,0.495 2.879,1.575 0.405,0.674 0.54,1.304 0.585,2.294 0.045,1.169 0.045,2.429 0.045,8.411 L 6.253,-6.478 C 4.993,-4.183 4.408,-3.374 3.374,-2.429 2.204,-1.304 1.484,-0.99 0,-0.854 Z" />
          </g>
        </g>
      </g>
    </g>
  </g>
</svg>
