<?xml version="1.0" encoding="UTF-8" standalone="no"?>
<!-- Created with Inkscape (http://www.inkscape.org/) -->

<svg
   xmlns:dc="http://purl.org/dc/elements/1.1/"
   xmlns:cc="http://creativecommons.org/ns#"
   xmlns:rdf="http://www.w3.org/1999/02/22-rdf-syntax-ns#"
   xmlns:svg="http://www.w3.org/2000/svg"
   xmlns="http://www.w3.org/2000/svg"
   xmlns:sodipodi="http://sodipodi.sourceforge.net/DTD/sodipodi-0.dtd"
   xmlns:inkscape="http://www.inkscape.org/namespaces/inkscape"
   width="187.07367mm"
   height="129.09387mm"
   viewBox="0 0 187.07367 129.09387"
   version="1.1"
   id="svg8"
   inkscape:version="0.92.4 (5da689c313, 2019-01-14)"
   sodipodi:docname="PhysocNewLogoNeon.svg">
  <defs
     id="defs2">
    <clipPath
       id="clipPath851"
       clipPathUnits="userSpaceOnUse">
      <path
         inkscape:connector-curvature="0"
         id="path849"
         d="M 0,572 H 770 V 0 H 0 Z" />
    </clipPath>
    <filter
       inkscape:collect="always"
       style="color-interpolation-filters:sRGB"
       id="filter1204"
       x="-0.014414414"
       width="1.0288289"
       y="-0.071641795"
       height="1.1432836">
      <feGaussianBlur
         inkscape:collect="always"
         stdDeviation="0.70247099"
         id="feGaussianBlur1206" />
    </filter>
    <filter
       inkscape:collect="always"
       style="color-interpolation-filters:sRGB"
       id="filter1248"
       x="-0.057657655"
       width="1.1153153"
       y="-0.28656718"
       height="1.5731343">
      <feGaussianBlur
         inkscape:collect="always"
         stdDeviation="2.809884"
         id="feGaussianBlur1250" />
    </filter>
    <filter
       inkscape:collect="always"
       style="color-interpolation-filters:sRGB"
       id="filter1213"
       x="-0.018429079"
       width="1.0368582"
       y="-0.034398232"
       height="1.0687965">
      <feGaussianBlur
         inkscape:collect="always"
         stdDeviation="1.428483"
         id="feGaussianBlur1215" />
    </filter>
    <filter
       inkscape:collect="always"
       style="color-interpolation-filters:sRGB"
       id="filter1251"
       x="-0.073716316"
       width="1.1474326"
       y="-0.13759293"
       height="1.2751859">
      <feGaussianBlur
         inkscape:collect="always"
         stdDeviation="5.7139322"
         id="feGaussianBlur1253" />
    </filter>
    <filter
       inkscape:collect="always"
       style="color-interpolation-filters:sRGB"
       id="filter1287"
       x="-0.096"
       width="1.192"
       y="-0.096"
       height="1.192">
      <feGaussianBlur
         inkscape:collect="always"
         stdDeviation="0.18905817"
         id="feGaussianBlur1289" />
    </filter>
    <filter
       inkscape:collect="always"
       style="color-interpolation-filters:sRGB"
       id="filter1361"
       x="-0.024"
       width="1.048"
       y="-0.024"
       height="1.048">
      <feGaussianBlur
         inkscape:collect="always"
         stdDeviation="0.047264543"
         id="feGaussianBlur1363" />
    </filter>
    <filter
       inkscape:collect="always"
       style="color-interpolation-filters:sRGB"
       id="filter1371"
       x="-0.096000085"
       width="1.1920002"
       y="-0.095999915"
       height="1.1919998">
      <feGaussianBlur
         inkscape:collect="always"
         stdDeviation="0.2271094"
         id="feGaussianBlur1373" />
    </filter>
    <filter
       inkscape:collect="always"
       style="color-interpolation-filters:sRGB"
       id="filter1409"
       x="-0.024000021"
       width="1.048"
       y="-0.023999979"
       height="1.048">
      <feGaussianBlur
         inkscape:collect="always"
         stdDeviation="0.05677735"
         id="feGaussianBlur1411" />
    </filter>
  </defs>
  <sodipodi:namedview
     id="base"
     pagecolor="#ffffff"
     bordercolor="#666666"
     borderopacity="1.0"
     inkscape:pageopacity="0.0"
     inkscape:pageshadow="2"
     inkscape:zoom="0.9899495"
     inkscape:cx="504.00642"
     inkscape:cy="424.22874"
     inkscape:document-units="mm"
     inkscape:current-layer="layer1"
     showgrid="false"
     inkscape:window-width="1920"
     inkscape:window-height="986"
     inkscape:window-x="-11"
     inkscape:window-y="-11"
     inkscape:window-maximized="1"
     fit-margin-top="0"
     fit-margin-left="0"
     fit-margin-right="0"
     fit-margin-bottom="0" />
  <metadata
     id="metadata5">
    <rdf:RDF>
      <cc:Work
         rdf:about="">
        <dc:format>image/svg+xml</dc:format>
        <dc:type
           rdf:resource="http://purl.org/dc/dcmitype/StillImage" />
        <dc:title></dc:title>
      </cc:Work>
    </rdf:RDF>
  </metadata>
  <g
     inkscape:label="Layer 1"
     inkscape:groupmode="layer"
     id="layer1"
     transform="translate(-29.683402,-109.23283)">
    <g
       style="opacity:1;fill:#000000;fill-opacity:1"
       id="g837"
       transform="matrix(0.35277777,0,0,-0.35277777,131.20896,134.27652)" />
    <g
       id="g845"
       transform="matrix(0.35277777,0,0,-0.35277777,-16.662516,290.17112)">
      <g
         id="g847"
         clip-path="url(#clipPath851)">
        <g
           style="opacity:1;fill:#000000;fill-opacity:1"
           id="g853"
           transform="translate(356.7676,193.0001)">
          <path
             d="m 0,0 c 0,-4.419 -3.582,-8.001 -8.001,-8.001 -4.418,0 -8,3.582 -8,8.001 0,4.419 3.582,8.001 8,8.001 C -3.582,8.001 0,4.419 0,0"
             style="fill:#000000;fill-opacity:1;fill-rule:nonzero;stroke:none"
             id="path855"
             inkscape:connector-curvature="0" />
        </g>
        <g
           style="opacity:1;fill:#000000;fill-opacity:1"
           id="g857"
           transform="translate(372.3293,193.0001)">
          <path
             d="m 0,0 c 0,-4.419 -3.582,-8.001 -8.001,-8.001 -4.418,0 -8,3.582 -8,8.001 0,4.419 3.582,8.001 8,8.001 C -3.582,8.001 0,4.419 0,0"
             style="fill:#000000;fill-opacity:1;fill-rule:nonzero;stroke:none"
             id="path859"
             inkscape:connector-curvature="0" />
        </g>
        <g
           style="opacity:1;fill:#000000;fill-opacity:1"
           id="g861"
           transform="translate(387.891,193.0001)">
          <path
             d="m 0,0 c 0,-4.419 -3.582,-8.001 -8.001,-8.001 -4.418,0 -8,3.582 -8,8.001 0,4.419 3.582,8.001 8,8.001 C -3.582,8.001 0,4.419 0,0"
             style="fill:#000000;fill-opacity:1;fill-rule:nonzero;stroke:none"
             id="path863"
             inkscape:connector-curvature="0" />
        </g>
        <g
           style="opacity:1;fill:#000000;fill-opacity:1"
           id="g865"
           transform="translate(403.8924,193.0001)">
          <path
             d="m 0,0 c 0,-4.419 -3.582,-8.001 -8.001,-8.001 -4.418,0 -8,3.582 -8,8.001 0,4.419 3.582,8.001 8,8.001 C -3.582,8.001 0,4.419 0,0"
             style="fill:#000000;fill-opacity:1;fill-rule:nonzero;stroke:none"
             id="path867"
             inkscape:connector-curvature="0" />
        </g>
        <g
           style="opacity:1;fill:#000000;fill-opacity:1"
           id="g869"
           transform="translate(439.775,193.0001)">
          <path
             d="m 0,0 c 0,-4.419 -3.582,-8.001 -8.001,-8.001 -4.418,0 -8,3.582 -8,8.001 0,4.419 3.582,8.001 8,8.001 C -3.582,8.001 0,4.419 0,0"
             style="fill:#000000;fill-opacity:1;fill-rule:nonzero;stroke:none"
             id="path871"
             inkscape:connector-curvature="0" />
        </g>
        <g
           style="fill:#000000;fill-opacity:1"
           id="g873"
           transform="translate(273.8013,112.9729)">
          <path
             d="m 0,0 c 0.513,-0.051 0.743,-0.051 1.025,-0.051 2.997,0 4.483,1.358 4.483,4.073 0,2.485 -1.46,3.869 -4.099,3.869 H 0 Z m -4.022,-8.172 c 0.128,0.23 0.205,0.409 0.23,0.589 0.077,0.307 0.077,0.512 0.103,1.768 v 5.508 5.687 c 0,1.281 -0.051,1.691 -0.359,2.178 -0.358,0.64 -0.743,0.82 -1.665,0.897 V 8.941 H 2.793 C 6.866,8.941 9.069,7.25 9.069,4.125 9.069,0.82 6.508,-1.076 2.05,-1.076 1.435,-1.076 1,-1.05 0,-0.973 v -4.868 c 0,-1.306 0.077,-1.845 0.359,-2.331 0.333,-0.615 0.743,-0.82 1.614,-0.897 V -9.53 h -7.686 v 0.461 c 0.922,0.077 1.307,0.282 1.691,0.897"
             style="fill:#000000;fill-opacity:1;fill-rule:nonzero;stroke:none"
             id="path875"
             inkscape:connector-curvature="0" />
        </g>
        <g
           style="fill:#000000;fill-opacity:1"
           id="g877"
           transform="translate(285.3585,104.8006)">
          <path
             d="m 0,0 c 0.308,0.538 0.359,0.999 0.359,2.69 v 5.175 5.662 l -0.026,0.922 c 0,1.358 -0.666,2.101 -1.921,2.178 v 0.487 H 6.046 V 16.627 C 5.15,16.55 4.74,16.371 4.381,15.73 4.279,15.525 4.202,15.346 4.15,15.167 4.074,14.833 4.048,14.142 4.048,13.527 V 8.762 h 8.147 v 4.765 c 0,1.255 -0.077,1.717 -0.359,2.203 -0.358,0.641 -0.743,0.82 -1.665,0.897 v 0.487 h 7.635 V 16.627 C 16.935,16.55 16.55,16.371 16.217,15.73 15.936,15.244 15.884,14.885 15.884,13.527 V 7.865 2.332 c 0,-1.384 0.052,-1.896 0.333,-2.332 0.333,-0.589 0.795,-0.82 1.691,-0.897 v -0.461 h -7.686 l -0.025,0.461 c 0.871,0.077 1.332,0.308 1.665,0.897 0.256,0.436 0.333,0.922 0.333,2.332 V 7.711 H 4.048 V 2.332 1.947 C 4.048,0.896 4.099,0.487 4.381,0 4.714,-0.615 5.124,-0.82 6.021,-0.897 v -0.461 h -7.686 v 0.461 C -0.743,-0.82 -0.358,-0.615 0,0"
             style="fill:#000000;fill-opacity:1;fill-rule:nonzero;stroke:none"
             id="path879"
             inkscape:connector-curvature="0" />
        </g>
        <g
           style="fill:#000000;fill-opacity:1"
           id="g881"
           transform="translate(302.5782,121.9143)">
          <path
             d="M 0,0 H 8.608 V -0.487 C 7.481,-0.563 6.969,-0.896 6.969,-1.614 c 0,-0.256 0.102,-0.666 0.333,-1.051 l 0.563,-1.024 3.075,-5.662 3.151,5.662 c 0.64,1.178 0.846,1.716 0.846,2.101 0,0.742 -0.513,1.025 -1.82,1.101 V 0 h 5.688 v -0.487 c -0.82,-0.076 -1.23,-0.256 -1.87,-0.896 -0.59,-0.538 -0.923,-1.025 -1.665,-2.306 l -3.844,-6.687 v -2.946 c 0,-2.229 0.026,-2.69 0.154,-3.202 0.231,-0.949 0.795,-1.384 1.871,-1.487 v -0.461 H 5.713 v 0.461 c 0.897,0.077 1.281,0.282 1.64,0.897 0.23,0.385 0.308,0.743 0.333,1.307 0.026,0.666 0.026,1.383 0.026,4.79 l -4.15,7.328 C 2.844,-2.383 2.511,-1.921 1.922,-1.383 1.255,-0.743 0.846,-0.563 0,-0.487 Z"
             style="fill:#000000;fill-opacity:1;fill-rule:nonzero;stroke:none"
             id="path883"
             inkscape:connector-curvature="0" />
        </g>
        <g
           style="fill:#000000;fill-opacity:1"
           id="g885"
           transform="translate(320.8223,109.489)">
          <path
             d="m 0,0 c 0.179,-1.333 0.333,-1.845 0.717,-2.639 0.82,-1.768 2.536,-2.844 4.56,-2.844 2.076,0 3.51,1.333 3.51,3.228 0,0.384 -0.077,0.795 -0.179,1.204 C 8.198,0.205 7.276,0.973 4.535,2.306 2.536,3.279 1.87,3.766 1.178,4.637 0.461,5.559 0.128,6.559 0.128,7.711 c 0,2.947 2.229,4.996 5.38,4.996 0.999,0 1.972,-0.23 2.818,-0.615 0.41,-0.154 0.666,-0.281 0.717,-0.307 0.154,-0.077 0.308,-0.103 0.461,-0.103 0.462,0 0.718,0.333 0.744,1.025 h 0.46 L 11.144,6.789 10.683,6.712 c -0.282,1.435 -0.359,1.742 -0.589,2.357 -0.64,1.589 -2.178,2.639 -3.92,2.639 -1.691,0 -2.869,-1.025 -2.869,-2.587 0,-1.154 0.743,-2.076 2.331,-2.921 L 7.48,5.201 c 3.459,-1.87 4.561,-3.28 4.561,-5.816 0,-3.459 -2.587,-5.842 -6.379,-5.842 -1.281,0 -2.537,0.308 -3.536,0.846 -0.461,0.257 -0.717,0.359 -0.922,0.359 -0.487,0 -0.743,-0.359 -0.794,-1.102 H -0.051 L -0.513,0 Z"
             style="fill:#000000;fill-opacity:1;fill-rule:nonzero;stroke:none"
             id="path887"
             inkscape:connector-curvature="0" />
        </g>
        <g
           style="fill:#000000;fill-opacity:1"
           id="g889"
           transform="translate(334.4288,103.9036)">
          <path
             d="m 0,0 c 0.896,0.077 1.358,0.308 1.691,0.897 0.128,0.205 0.205,0.41 0.23,0.589 0.026,0.128 0.052,0.385 0.077,0.718 0.026,0.384 0.051,0.717 0.051,1.025 v 5.533 5.688 c 0,1.28 -0.076,1.742 -0.333,2.203 -0.307,0.589 -0.794,0.846 -1.665,0.871 v 0.487 H 7.737 V 17.524 C 6.892,17.499 6.405,17.242 6.072,16.653 5.79,16.217 5.739,15.705 5.739,14.373 V 8.762 3.203 C 5.739,1.922 5.815,1.358 6.072,0.897 6.379,0.308 6.892,0.077 7.711,0 L 7.737,-0.461 H 0 Z"
             style="fill:#000000;fill-opacity:1;fill-rule:nonzero;stroke:none"
             id="path891"
             inkscape:connector-curvature="0" />
        </g>
        <g
           style="fill:#000000;fill-opacity:1"
           id="g893"
           transform="translate(360.3062,122.0935)">
          <path
             d="m 0,0 0.256,-6.507 -0.461,-0.052 c -0.436,1.461 -0.666,2.024 -1.153,2.793 -1.179,1.87 -2.946,2.87 -5.047,2.87 -3.843,0 -6.303,-3.331 -6.303,-8.558 0,-1.152 0.154,-2.305 0.436,-3.279 0.897,-3.305 3.074,-5.123 6.174,-5.123 1.358,0 2.588,0.435 3.587,1.178 0.538,0.41 0.973,0.896 1.256,1.46 0.307,0.59 0.435,0.923 0.768,2.152 l 0.769,-0.205 c -0.333,-1.486 -0.513,-2.024 -1.025,-2.844 -1.204,-1.921 -3.485,-2.946 -6.507,-2.946 -5.56,0 -9.249,3.613 -9.249,9.172 0,5.918 3.919,10.017 9.556,10.017 1.589,0 2.588,-0.231 4.534,-0.973 0.436,-0.154 0.769,-0.257 0.974,-0.257 0.641,0 0.948,0.333 0.948,1.102 z"
             style="fill:#000000;fill-opacity:1;fill-rule:nonzero;stroke:none"
             id="path895"
             inkscape:connector-curvature="0" />
        </g>
        <g
           style="fill:#000000;fill-opacity:1"
           id="g897"
           transform="translate(362.9483,109.489)">
          <path
             d="m 0,0 c 0.179,-1.333 0.333,-1.845 0.717,-2.639 0.82,-1.768 2.536,-2.844 4.56,-2.844 2.076,0 3.51,1.333 3.51,3.228 0,0.384 -0.077,0.795 -0.179,1.204 C 8.198,0.205 7.276,0.973 4.535,2.306 2.536,3.279 1.87,3.766 1.178,4.637 0.461,5.559 0.128,6.559 0.128,7.711 c 0,2.947 2.229,4.996 5.38,4.996 0.999,0 1.972,-0.23 2.818,-0.615 0.41,-0.154 0.666,-0.281 0.717,-0.307 0.154,-0.077 0.308,-0.103 0.461,-0.103 0.462,0 0.718,0.333 0.744,1.025 h 0.46 L 11.144,6.789 10.683,6.712 c -0.282,1.435 -0.359,1.742 -0.589,2.357 -0.64,1.589 -2.178,2.639 -3.92,2.639 -1.691,0 -2.869,-1.025 -2.869,-2.587 0,-1.154 0.743,-2.076 2.331,-2.921 L 7.48,5.201 c 3.459,-1.87 4.561,-3.28 4.561,-5.816 0,-3.459 -2.587,-5.842 -6.379,-5.842 -1.281,0 -2.537,0.308 -3.536,0.846 -0.461,0.257 -0.717,0.359 -0.922,0.359 -0.487,0 -0.743,-0.359 -0.794,-1.102 H -0.051 L -0.513,0 Z"
             style="fill:#000000;fill-opacity:1;fill-rule:nonzero;stroke:none"
             id="path899"
             inkscape:connector-curvature="0" />
        </g>
        <g
           style="fill:#000000;fill-opacity:1"
           id="g901"
           transform="translate(385.1124,109.489)">
          <path
             d="m 0,0 c 0.179,-1.333 0.333,-1.845 0.717,-2.639 0.82,-1.768 2.537,-2.844 4.56,-2.844 2.076,0 3.51,1.333 3.51,3.228 0,0.384 -0.077,0.795 -0.179,1.204 C 8.198,0.205 7.275,0.973 4.534,2.306 2.536,3.279 1.87,3.766 1.179,4.637 0.461,5.559 0.128,6.559 0.128,7.711 c 0,2.947 2.228,4.996 5.38,4.996 0.999,0 1.972,-0.23 2.818,-0.615 0.41,-0.154 0.666,-0.281 0.717,-0.307 0.154,-0.077 0.308,-0.103 0.462,-0.103 0.461,0 0.717,0.333 0.743,1.025 h 0.461 L 11.145,6.789 10.684,6.712 c -0.283,1.435 -0.36,1.742 -0.59,2.357 -0.641,1.589 -2.178,2.639 -3.92,2.639 -1.691,0 -2.869,-1.025 -2.869,-2.587 0,-1.154 0.743,-2.076 2.331,-2.921 L 7.48,5.201 c 3.459,-1.87 4.561,-3.28 4.561,-5.816 0,-3.459 -2.588,-5.842 -6.379,-5.842 -1.281,0 -2.537,0.308 -3.536,0.846 -0.461,0.257 -0.717,0.359 -0.922,0.359 -0.487,0 -0.743,-0.359 -0.794,-1.102 H -0.052 L -0.513,0 Z"
             style="fill:#000000;fill-opacity:1;fill-rule:nonzero;stroke:none"
             id="path903"
             inkscape:connector-curvature="0" />
        </g>
        <g
           style="fill:#000000;fill-opacity:1"
           id="g905"
           transform="translate(403.3311,112.5374)">
          <path
             d="m 0,0 c 0.103,-5.047 2.484,-8.429 5.918,-8.429 3.561,0 5.969,3.51 5.969,8.634 0,4.97 -2.434,8.455 -5.969,8.455 C 2.459,8.66 0,5.175 0,0.231 Z m 5.943,9.659 c 5.585,0 9.889,-4.151 9.889,-9.531 0,-5.482 -4.252,-9.582 -9.889,-9.582 -5.662,0 -9.915,4.1 -9.915,9.582 0,5.38 4.305,9.531 9.915,9.531"
             style="fill:#000000;fill-opacity:1;fill-rule:nonzero;stroke:none"
             id="path907"
             inkscape:connector-curvature="0" />
        </g>
        <g
           style="fill:#000000;fill-opacity:1"
           id="g909"
           transform="translate(437.9464,122.0935)">
          <path
             d="m 0,0 0.257,-6.507 -0.462,-0.052 c -0.436,1.461 -0.666,2.024 -1.152,2.793 -1.179,1.87 -2.947,2.87 -5.047,2.87 -3.844,0 -6.303,-3.331 -6.303,-8.558 0,-1.152 0.153,-2.305 0.436,-3.279 0.896,-3.305 3.074,-5.123 6.173,-5.123 1.359,0 2.588,0.435 3.587,1.178 0.538,0.41 0.974,0.896 1.256,1.46 0.308,0.59 0.436,0.923 0.769,2.152 l 0.768,-0.205 c -0.333,-1.486 -0.512,-2.024 -1.025,-2.844 -1.204,-1.921 -3.484,-2.946 -6.507,-2.946 -5.56,0 -9.249,3.613 -9.249,9.172 0,5.918 3.92,10.017 9.557,10.017 1.588,0 2.587,-0.231 4.534,-0.973 0.435,-0.154 0.768,-0.257 0.973,-0.257 0.641,0 0.949,0.333 0.949,1.102 z"
             style="fill:#000000;fill-opacity:1;fill-rule:nonzero;stroke:none"
             id="path911"
             inkscape:connector-curvature="0" />
        </g>
        <g
           style="fill:#000000;fill-opacity:1"
           id="g913"
           transform="translate(439.461,103.9036)">
          <path
             d="M 0,0 C 0.897,0.077 1.358,0.308 1.691,0.897 1.819,1.102 1.896,1.307 1.922,1.486 1.947,1.614 1.974,1.871 1.999,2.204 2.024,2.588 2.05,2.921 2.05,3.229 v 5.533 5.688 c 0,1.28 -0.076,1.742 -0.333,2.203 -0.308,0.589 -0.794,0.846 -1.665,0.871 v 0.487 H 7.737 V 17.524 C 6.892,17.499 6.405,17.242 6.072,16.653 5.79,16.217 5.739,15.705 5.739,14.373 V 8.762 3.203 C 5.739,1.922 5.816,1.358 6.072,0.897 6.38,0.308 6.892,0.077 7.712,0 L 7.737,-0.461 H 0 Z"
             style="fill:#000000;fill-opacity:1;fill-rule:nonzero;stroke:none"
             id="path915"
             inkscape:connector-curvature="0" />
        </g>
        <g
           style="fill:#000000;fill-opacity:1"
           id="g917"
           transform="translate(449.838,104.8006)">
          <path
             d="m 0,0 c 0.257,0.436 0.333,0.948 0.333,2.332 v 5.533 5.662 c 0,1.384 -0.025,1.717 -0.333,2.203 -0.333,0.641 -0.717,0.82 -1.588,0.897 v 0.487 H 12.195 L 12.478,12.425 12.093,12.4 c -0.281,1.255 -0.461,1.665 -0.871,2.254 -0.743,1.051 -1.948,1.409 -4.791,1.409 H 4.074 V 8.685 h 1.05 c 1.435,0 1.947,0.103 2.46,0.461 0.743,0.461 1.024,1.204 1.204,2.741 H 9.224 V 4.458 H 8.763 C 8.686,6.892 7.789,7.66 5.124,7.66 H 4.074 V 3.228 c 0,-1.717 0.179,-2.178 0.897,-2.792 0.691,-0.539 1.767,-0.82 3.202,-0.82 1.434,0 2.588,0.281 3.459,0.871 0.563,0.358 0.999,0.82 1.306,1.358 0.384,0.64 0.564,1.178 0.794,2.51 L 14.168,4.33 13.938,-1.358 H -1.64 v 0.461 C -0.769,-0.82 -0.333,-0.589 0,0"
             style="fill:#000000;fill-opacity:1;fill-rule:nonzero;stroke:none"
             id="path919"
             inkscape:connector-curvature="0" />
        </g>
        <g
           style="fill:#000000;fill-opacity:1"
           id="g921"
           transform="translate(464.419,121.9143)">
          <path
             d="m 0,0 h 18.267 l 0.281,-5.482 -0.461,-0.052 c -0.153,1.153 -0.308,1.614 -0.897,2.383 -1.127,1.486 -2.587,2.126 -5.021,2.126 h -1.204 v -8.224 -5.533 c 0,-1.435 0.052,-1.794 0.358,-2.332 0.333,-0.615 0.743,-0.82 1.64,-0.897 l -0.025,-0.461 H 5.227 v 0.461 c 0.921,0.077 1.306,0.282 1.665,0.897 0.23,0.385 0.307,0.718 0.333,1.307 0.025,0.512 0.025,1.281 0.025,2.382 v 4.176 8.199 H 6.251 C 4.791,-1.05 3.689,-1.281 2.664,-1.768 2.075,-2.075 1.537,-2.485 1.127,-3.023 0.614,-3.715 0.384,-4.202 0.128,-5.482 h -0.436 z"
             style="fill:#000000;fill-opacity:1;fill-rule:nonzero;stroke:none"
             id="path923"
             inkscape:connector-curvature="0" />
        </g>
        <g
           style="fill:#000000;fill-opacity:1"
           id="g925"
           transform="translate(482.0225,121.9143)">
          <path
             d="M 0,0 H 8.608 V -0.487 C 7.481,-0.563 6.969,-0.896 6.969,-1.614 c 0,-0.256 0.102,-0.666 0.333,-1.051 l 0.563,-1.024 3.074,-5.662 3.152,5.662 c 0.64,1.178 0.846,1.716 0.846,2.101 0,0.742 -0.513,1.025 -1.82,1.101 V 0 h 5.688 v -0.487 c -0.82,-0.076 -1.23,-0.256 -1.87,-0.896 -0.589,-0.538 -0.922,-1.025 -1.665,-2.306 l -3.843,-6.687 v -2.946 c 0,-2.229 0.025,-2.69 0.153,-3.202 0.231,-0.949 0.794,-1.384 1.87,-1.487 v -0.461 H 5.713 v 0.461 c 0.897,0.077 1.281,0.282 1.64,0.897 0.231,0.385 0.307,0.743 0.334,1.307 0.025,0.666 0.025,1.383 0.025,4.79 l -4.15,7.328 C 2.844,-2.383 2.511,-1.921 1.922,-1.383 1.256,-0.743 0.846,-0.563 0,-0.487 Z"
             style="fill:#000000;fill-opacity:1;fill-rule:nonzero;stroke:none"
             id="path927"
             inkscape:connector-curvature="0" />
        </g>
        <g
           style="fill:#000000;fill-opacity:1"
           id="g929"
           transform="translate(149.0123,167.4641)">
          <path
             d="M 0,0 0.495,-11.426 H -0.18 c -1.934,6.343 -5.893,9.897 -11.021,9.897 -6.702,0 -11.066,-5.938 -11.066,-15.07 0,-8.906 4.409,-14.889 10.841,-14.889 3.554,0 5.803,1.934 5.803,4.993 v 1.754 c 0,2.429 -1.484,3.779 -4.363,3.869 v 0.81 H 4.453 v -0.81 c -1.664,-0.09 -2.429,-0.495 -3.104,-1.574 -0.224,-0.315 -0.359,-0.675 -0.45,-1.035 -0.179,-0.675 -0.224,-1.08 -0.224,-3.014 v -4.678 l -2.025,1.215 c -2.249,-1.71 -3.193,-2.205 -5.757,-2.879 -1.8,-0.45 -3.734,-0.675 -5.533,-0.675 -9.807,0 -16.239,6.342 -16.239,16.149 0,10.301 6.972,17.588 16.823,17.588 2.7,0 4.094,-0.315 7.917,-1.754 0.63,-0.225 1.215,-0.405 1.53,-0.405 1.125,0 1.754,0.72 1.799,1.934 z"
             style="fill:#000000;fill-opacity:1;fill-rule:nonzero;stroke:none"
             id="path931"
             inkscape:connector-curvature="0" />
        </g>
        <g
           style="fill:#000000;fill-opacity:1"
           id="g933"
           transform="translate(156.8375,137.1008)">
          <path
             d="m 0,0 c 0.495,0.944 0.585,1.574 0.585,4.093 v 9.717 9.986 1.574 c 0,0.99 -0.18,1.62 -0.54,2.249 -0.629,1.125 -1.304,1.44 -2.924,1.575 l 0.09,0.854 h 13.45 V 29.194 C 9.042,29.059 8.367,28.744 7.737,27.619 7.243,26.81 7.152,26 7.152,23.796 V 23.571 L 7.243,6.837 C 7.243,3.374 7.288,3.014 7.737,1.934 8.412,0.27 10.706,-0.72 13.9,-0.72 c 5.533,0 8.637,2.789 9.222,8.457 L 23.886,7.692 23.346,-2.384 H -2.879 v 0.809 C -1.304,-1.439 -0.629,-1.08 0,0"
             style="fill:#000000;fill-opacity:1;fill-rule:nonzero;stroke:none"
             id="path935"
             inkscape:connector-curvature="0" />
        </g>
        <g
           style="fill:#000000;fill-opacity:1"
           id="g937"
           transform="translate(190.0787,147.9866)">
          <path
             d="M 0,0 H 9.086 L 4.633,11.291 Z m -6.882,-10.886 c 0.854,0.99 1.304,1.754 2.159,4.094 l 0.63,1.529 10.166,24.426 h 2.204 l 10.526,-25.955 0.719,-1.8 c 0.27,-0.72 0.811,-1.619 1.395,-2.249 0.99,-1.124 1.665,-1.439 3.059,-1.619 v -0.81 H 9.042 v 0.81 c 2.563,0.18 3.598,0.944 3.598,2.564 0,0.674 -0.18,1.349 -0.899,3.104 -0.45,1.124 -1.17,2.789 -2.115,5.038 H -0.63 c -2.519,-6.208 -2.788,-7.063 -2.788,-8.098 0,-1.664 1.079,-2.428 3.643,-2.608 v -0.81 H -9.986 v 0.81 c 1.394,0.18 2.114,0.495 3.104,1.574"
             style="fill:#000000;fill-opacity:1;fill-rule:nonzero;stroke:none"
             id="path939"
             inkscape:connector-curvature="0" />
        </g>
        <g
           style="fill:#000000;fill-opacity:1"
           id="g941"
           transform="translate(214.7281,145.3323)">
          <path
             d="m 0,0 c 0.315,-2.339 0.584,-3.238 1.259,-4.633 1.44,-3.104 4.454,-4.993 8.008,-4.993 3.643,0 6.162,2.339 6.162,5.668 0,0.674 -0.135,1.394 -0.315,2.114 C 14.395,0.36 12.775,1.709 7.962,4.049 4.453,5.758 3.284,6.613 2.069,8.142 0.81,9.762 0.225,11.516 0.225,13.54 c 0,5.173 3.913,8.772 9.446,8.772 1.755,0 3.464,-0.405 4.949,-1.08 0.719,-0.27 1.169,-0.495 1.259,-0.54 0.27,-0.134 0.539,-0.179 0.809,-0.179 0.811,0 1.26,0.584 1.305,1.799 h 0.81 l 0.764,-10.391 -0.809,-0.135 c -0.495,2.519 -0.63,3.059 -1.035,4.138 -1.124,2.789 -3.823,4.634 -6.882,4.634 -2.969,0 -5.038,-1.8 -5.038,-4.544 0,-2.024 1.304,-3.643 4.093,-5.128 l 3.239,-1.754 c 6.073,-3.284 8.007,-5.758 8.007,-10.211 0,-6.073 -4.543,-10.256 -11.201,-10.256 -2.249,0 -4.453,0.539 -6.208,1.484 -0.809,0.45 -1.259,0.63 -1.619,0.63 -0.855,0 -1.304,-0.63 -1.394,-1.934 H -0.09 L -0.9,0 Z"
             style="fill:#000000;fill-opacity:1;fill-rule:nonzero;stroke:none"
             id="path943"
             inkscape:connector-curvature="0" />
        </g>
        <g
           style="fill:#000000;fill-opacity:1"
           id="g945"
           transform="translate(268.6168,167.4641)">
          <path
             d="M 0,0 0.495,-11.426 H -0.18 c -1.934,6.343 -5.893,9.897 -11.021,9.897 -6.702,0 -11.066,-5.938 -11.066,-15.07 0,-8.906 4.409,-14.889 10.841,-14.889 3.554,0 5.803,1.934 5.803,4.993 v 1.754 c 0,2.429 -1.484,3.779 -4.363,3.869 v 0.81 H 4.453 v -0.81 c -1.664,-0.09 -2.429,-0.495 -3.104,-1.574 -0.224,-0.315 -0.359,-0.675 -0.45,-1.035 -0.179,-0.675 -0.224,-1.08 -0.224,-3.014 v -4.678 l -2.025,1.215 c -2.249,-1.71 -3.193,-2.205 -5.757,-2.879 -1.8,-0.45 -3.734,-0.675 -5.533,-0.675 -9.807,0 -16.239,6.342 -16.239,16.149 0,10.301 6.972,17.588 16.823,17.588 2.7,0 4.094,-0.315 7.917,-1.754 0.63,-0.225 1.215,-0.405 1.53,-0.405 1.125,0 1.754,0.72 1.799,1.934 z"
             style="fill:#000000;fill-opacity:1;fill-rule:nonzero;stroke:none"
             id="path947"
             inkscape:connector-curvature="0" />
        </g>
        <g
           style="fill:#000000;fill-opacity:1"
           id="g949"
           transform="translate(281.6602,150.6853)">
          <path
             d="m 0,0 c 0.18,-8.861 4.363,-14.799 10.391,-14.799 6.253,0 10.481,6.162 10.481,15.159 0,8.727 -4.273,14.845 -10.481,14.845 C 4.318,15.205 0,9.087 0,0.405 Z m 10.436,16.958 c 9.806,0 17.363,-7.287 17.363,-16.733 0,-9.626 -7.467,-16.824 -17.363,-16.824 -9.941,0 -17.409,7.198 -17.409,16.824 0,9.446 7.558,16.733 17.409,16.733"
             style="fill:#000000;fill-opacity:1;fill-rule:nonzero;stroke:none"
             id="path951"
             inkscape:connector-curvature="0" />
        </g>
        <g
           style="fill:#000000;fill-opacity:1"
           id="g953"
           transform="translate(307.3443,167.1492)">
          <path
             d="m 0,0 h 14.665 v -0.854 c -2.16,-0.045 -3.149,-0.811 -3.149,-2.25 0,-0.72 0.135,-1.169 0.989,-3.374 l 6.793,-17.138 5.577,15.204 -0.764,2.024 c -0.45,1.35 -1.08,2.744 -1.574,3.554 -0.72,1.395 -1.485,1.799 -3.329,1.935 V 0 h 14.619 v -0.854 c -2.429,-0.271 -3.328,-1.035 -3.328,-2.79 0,-0.944 0.179,-1.799 0.944,-3.868 l 5.713,-16.149 6.702,17.183 c 0.405,0.99 0.63,1.62 0.675,1.8 0.18,0.449 0.27,1.034 0.27,1.439 0,1.574 -0.99,2.249 -3.374,2.385 V 0 h 9.942 v -0.81 c -0.45,-0.044 -0.855,-0.089 -1.08,-0.18 -0.72,-0.179 -1.574,-0.764 -2.159,-1.394 -0.72,-0.72 -1.17,-1.619 -2.204,-4.049 L 35.402,-32.792 H 33.603 L 25.82,-10.706 17.543,-32.792 H 15.789 L 5.398,-6.478 c -0.36,0.9 -0.585,1.485 -0.675,1.8 -0.36,0.809 -0.899,1.619 -1.484,2.249 C 2.204,-1.304 1.484,-0.99 0,-0.854 Z"
             style="fill:#000000;fill-opacity:1;fill-rule:nonzero;stroke:none"
             id="path955"
             inkscape:connector-curvature="0" />
        </g>
        <g
           style="fill:#000000;fill-opacity:1"
           id="g957"
           transform="translate(371.2173,167.1492)">
          <path
             d="m 0,0 h 13.584 v -0.854 c -1.619,-0.136 -2.338,-0.45 -2.968,-1.575 -0.495,-0.81 -0.585,-1.349 -0.585,-4.049 v -15.789 c 0,-1.349 0,-2.338 0.045,-2.879 0.045,-0.899 0.36,-1.844 0.81,-2.698 1.17,-2.025 3.913,-3.194 7.512,-3.194 2.384,0 4.363,0.539 5.982,1.619 0.856,0.585 1.62,1.395 2.07,2.384 0.585,1.26 0.809,2.564 0.809,5.353 v 15.204 1.8 c 0,0.945 -0.224,1.619 -0.539,2.249 -0.63,1.125 -1.304,1.439 -2.924,1.575 V 0 h 8.817 v -0.854 c -1.574,-0.136 -2.294,-0.45 -2.879,-1.575 -0.54,-0.855 -0.63,-1.44 -0.63,-4.049 v -15.429 c 0,-3.328 -0.27,-4.723 -1.125,-6.297 -1.799,-3.194 -5.803,-4.903 -11.471,-4.903 -2.968,0 -5.532,0.449 -7.781,1.304 -1.215,0.45 -2.339,1.17 -3.284,2.115 -1.44,1.439 -1.889,3.058 -1.889,6.612 v 16.598 c 0,0.9 0,1.485 -0.045,1.8 0,0.945 -0.18,1.619 -0.54,2.249 C 2.339,-1.304 1.62,-0.99 0,-0.854 Z"
             style="fill:#000000;fill-opacity:1;fill-rule:nonzero;stroke:none"
             id="path959"
             inkscape:connector-curvature="0" />
        </g>
        <g
           style="fill:#000000;fill-opacity:1"
           id="g961"
           transform="translate(408.461,137.1008)">
          <path
             d="m 0,0 c 0.54,0.944 0.585,1.484 0.63,4.093 v 9.717 7.691 c 0,2.925 -0.045,4.319 -0.225,5.129 -0.405,1.664 -1.349,2.429 -3.194,2.564 v 0.854 H 7.107 L 24.066,7.872 v 15.924 1.574 c 0,0.9 -0.18,1.62 -0.585,2.249 -0.54,1.125 -1.304,1.44 -2.834,1.575 v 0.854 h 8.727 v -0.854 c -2.609,-0.18 -3.419,-1.485 -3.419,-5.398 V -2.429 H 24.021 L 2.475,25.325 V 4.093 C 2.475,1.844 2.654,0.944 3.149,0 3.778,-1.08 4.453,-1.439 5.983,-1.575 v -0.809 h -8.817 v 0.809 C -1.305,-1.439 -0.585,-1.08 0,0"
             style="fill:#000000;fill-opacity:1;fill-rule:nonzero;stroke:none"
             id="path963"
             inkscape:connector-curvature="0" />
        </g>
        <g
           id="g965"
           transform="translate(439.588,135.5261)">
          <path
             d="m 0,0 c 1.574,0.135 2.384,0.54 2.969,1.575 0.225,0.36 0.36,0.719 0.405,1.034 0.045,0.225 0.09,0.675 0.135,1.26 0.045,0.674 0.09,1.259 0.09,1.799 v 9.716 9.987 c 0,2.249 -0.135,3.058 -0.585,3.868 -0.539,1.034 -1.395,1.485 -2.924,1.53 v 0.854 h 13.495 v -0.854 c -1.484,-0.045 -2.339,-0.496 -2.924,-1.53 -0.495,-0.765 -0.585,-1.664 -0.585,-4.004 V 15.384 5.623 c 0,-2.249 0.135,-3.239 0.585,-4.048 C 11.201,0.54 12.101,0.135 13.54,0 l 0.045,-0.81 H 0 Z"
             style="fill:#000000;fill-opacity:1;fill-rule:nonzero;stroke:none"
             id="path967"
             inkscape:connector-curvature="0" />
        </g>
        <g
           style="fill:#000000;fill-opacity:1"
           id="g969"
           transform="translate(452.002,167.1492)">
          <path
             d="m 0,0 h 14.574 v -0.854 c -2.159,-0.136 -3.148,-0.855 -3.148,-2.295 0,-0.629 0.224,-1.574 0.854,-3.329 l 6.478,-17.228 6.567,17.228 c 0.63,1.665 0.901,2.654 0.901,3.194 0,1.53 -1.125,2.294 -3.509,2.43 V 0 h 9.895 v -0.854 c -0.494,0 -0.809,-0.045 -1.079,-0.181 -0.63,-0.179 -1.529,-0.764 -2.069,-1.349 -0.225,-0.225 -0.45,-0.585 -0.765,-1.034 -0.45,-0.9 -0.675,-1.26 -1.349,-3.06 L 17.049,-32.792 H 15.204 L 5.218,-6.478 c -0.315,0.99 -0.584,1.575 -0.675,1.8 -0.27,0.809 -0.899,1.754 -1.349,2.294 C 2.339,-1.395 1.484,-0.99 0,-0.854 Z"
             style="fill:#000000;fill-opacity:1;fill-rule:nonzero;stroke:none"
             id="path971"
             inkscape:connector-curvature="0" />
        </g>
        <g
           style="fill:#000000;fill-opacity:1"
           id="g973"
           transform="translate(486.2325,137.1008)">
          <path
             d="m 0,0 c 0.45,0.765 0.585,1.664 0.585,4.093 v 9.717 9.941 c 0,2.429 -0.045,3.014 -0.585,3.868 -0.585,1.125 -1.26,1.44 -2.789,1.575 v 0.854 h 24.201 l 0.495,-8.232 -0.675,-0.045 c -0.495,2.205 -0.809,2.924 -1.529,3.959 -1.305,1.844 -3.419,2.474 -8.412,2.474 H 7.152 V 15.249 h 1.845 c 2.519,0 3.418,0.18 4.318,0.81 1.305,0.809 1.799,2.114 2.115,4.813 h 0.764 V 7.827 H 15.385 C 15.249,12.1 13.675,13.45 8.997,13.45 H 7.152 V 5.667 c 0,-3.013 0.316,-3.823 1.575,-4.902 1.214,-0.945 3.104,-1.44 5.623,-1.44 2.519,0 4.543,0.495 6.073,1.529 0.989,0.63 1.754,1.44 2.294,2.385 0.675,1.124 0.989,2.069 1.394,4.408 l 0.765,-0.045 -0.405,-9.986 h -27.35 v 0.809 C -1.35,-1.439 -0.585,-1.035 0,0"
             style="fill:#000000;fill-opacity:1;fill-rule:nonzero;stroke:none"
             id="path975"
             inkscape:connector-curvature="0" />
        </g>
        <g
           style="fill:#000000;fill-opacity:1"
           id="g977"
           transform="translate(522.6231,151.99)">
          <path
             d="m 0,0 h 3.284 c 3.328,0 4.813,0.315 6.117,1.305 1.305,1.124 2.025,2.968 2.025,5.307 0,2.385 -0.72,4.319 -2.025,5.353 -1.349,0.99 -2.609,1.35 -5.713,1.35 H 0 Z m -7.018,-14.889 c 0.496,0.854 0.63,1.574 0.63,3.688 v 0.405 9.716 9.987 c 0,2.428 -0.09,2.968 -0.63,3.823 -0.629,1.125 -1.304,1.439 -2.968,1.575 v 0.854 H 6.702 c 3.779,0 5.938,-0.45 7.782,-1.574 2.16,-1.305 3.509,-3.869 3.509,-6.613 0,-2.384 -0.944,-4.408 -2.609,-5.847 -1.44,-1.17 -2.564,-1.62 -5.398,-2.07 2.115,-0.314 3.014,-0.675 4.003,-1.484 1.26,-0.989 1.575,-1.485 3.509,-5.488 2.789,-5.803 5.264,-8.547 7.782,-8.547 h 0.406 v -0.809 H 15.249 l -5.128,10.211 c -1.619,3.104 -1.845,3.463 -2.879,4.183 -0.854,0.675 -2.384,1.08 -4.049,1.08 H 0 v -8.997 -1.799 c 0.045,-0.945 0.225,-1.619 0.585,-2.294 0.63,-1.08 1.35,-1.44 2.969,-1.575 v -0.809 h -13.54 v 0.809 c 1.619,0.135 2.339,0.495 2.968,1.575"
             style="fill:#000000;fill-opacity:1;fill-rule:nonzero;stroke:none"
             id="path979"
             inkscape:connector-curvature="0" />
        </g>
        <g
           style="fill:#000000;fill-opacity:1"
           id="g981"
           transform="translate(547.9014,145.3323)">
          <path
             d="m 0,0 c 0.314,-2.339 0.585,-3.238 1.26,-4.633 1.439,-3.104 4.453,-4.993 8.007,-4.993 3.643,0 6.162,2.339 6.162,5.668 0,0.674 -0.135,1.394 -0.315,2.114 C 14.395,0.36 12.775,1.709 7.962,4.049 4.453,5.758 3.283,6.613 2.069,8.142 0.81,9.762 0.225,11.516 0.225,13.54 c 0,5.173 3.914,8.772 9.446,8.772 1.755,0 3.464,-0.405 4.948,-1.08 0.72,-0.27 1.17,-0.495 1.26,-0.54 0.269,-0.134 0.54,-0.179 0.809,-0.179 0.81,0 1.26,0.584 1.305,1.799 h 0.81 l 0.764,-10.391 -0.809,-0.135 c -0.495,2.519 -0.63,3.059 -1.034,4.138 -1.125,2.789 -3.825,4.634 -6.883,4.634 -2.969,0 -5.038,-1.8 -5.038,-4.544 0,-2.024 1.304,-3.643 4.093,-5.128 l 3.239,-1.754 c 6.073,-3.284 8.007,-5.758 8.007,-10.211 0,-6.073 -4.543,-10.256 -11.201,-10.256 -2.249,0 -4.453,0.539 -6.208,1.484 -0.809,0.45 -1.259,0.63 -1.619,0.63 -0.854,0 -1.304,-0.63 -1.394,-1.934 H -0.09 L -0.899,0 Z"
             style="fill:#000000;fill-opacity:1;fill-rule:nonzero;stroke:none"
             id="path983"
             inkscape:connector-curvature="0" />
        </g>
        <g
           style="fill:#000000;fill-opacity:1"
           id="g985"
           transform="translate(571.7862,135.5261)">
          <path
             d="m 0,0 c 1.574,0.135 2.385,0.54 2.969,1.575 0.225,0.36 0.36,0.719 0.405,1.034 0.045,0.225 0.09,0.675 0.135,1.26 0.045,0.674 0.09,1.259 0.09,1.799 v 9.716 9.987 c 0,2.249 -0.135,3.058 -0.585,3.868 -0.539,1.034 -1.395,1.485 -2.924,1.53 v 0.854 h 13.495 v -0.854 c -1.484,-0.045 -2.339,-0.496 -2.924,-1.53 -0.495,-0.765 -0.585,-1.664 -0.585,-4.004 V 15.384 5.623 c 0,-2.249 0.135,-3.239 0.585,-4.048 C 11.201,0.54 12.101,0.135 13.54,0 l 0.045,-0.81 H 0 Z"
             style="fill:#000000;fill-opacity:1;fill-rule:nonzero;stroke:none"
             id="path987"
             inkscape:connector-curvature="0" />
        </g>
        <g
           style="fill:#000000;fill-opacity:1"
           id="g989"
           transform="translate(586.2247,167.1492)">
          <path
             d="m 0,0 h 32.073 l 0.494,-9.626 -0.809,-0.09 c -0.27,2.024 -0.54,2.834 -1.574,4.183 -1.98,2.609 -4.543,3.734 -8.817,3.734 h -2.114 v -14.44 -9.716 c 0,-2.519 0.09,-3.149 0.63,-4.093 0.584,-1.08 1.304,-1.44 2.879,-1.575 l -0.046,-0.81 H 9.177 v 0.81 c 1.619,0.135 2.294,0.495 2.924,1.575 0.404,0.674 0.539,1.259 0.585,2.294 0.044,0.899 0.044,2.249 0.044,4.183 v 7.332 14.395 h -1.754 c -2.564,0 -4.498,-0.405 -6.298,-1.26 C 3.644,-3.644 2.699,-4.363 1.979,-5.308 1.079,-6.522 0.675,-7.377 0.225,-9.626 H -0.54 Z"
             style="fill:#000000;fill-opacity:1;fill-rule:nonzero;stroke:none"
             id="path991"
             inkscape:connector-curvature="0" />
        </g>
        <g
           style="fill:#000000;fill-opacity:1"
           id="g993"
           transform="translate(617.126,167.1492)">
          <path
             d="m 0,0 h 15.114 v -0.854 c -1.979,-0.136 -2.879,-0.72 -2.879,-1.98 0,-0.45 0.18,-1.169 0.585,-1.844 l 0.99,-1.8 5.398,-9.94 5.532,9.94 c 1.125,2.07 1.486,3.015 1.486,3.689 0,1.305 -0.901,1.799 -3.195,1.935 V 0 h 9.987 v -0.854 c -1.44,-0.136 -2.16,-0.45 -3.285,-1.575 -1.034,-0.945 -1.619,-1.8 -2.923,-4.049 l -6.748,-11.74 v -5.173 c 0,-3.914 0.045,-4.723 0.27,-5.623 0.405,-1.664 1.395,-2.429 3.284,-2.609 v -0.81 H 10.031 v 0.81 c 1.574,0.135 2.249,0.495 2.879,1.575 0.405,0.674 0.54,1.304 0.585,2.294 0.045,1.169 0.045,2.429 0.045,8.411 L 6.253,-6.478 C 4.993,-4.183 4.408,-3.374 3.374,-2.429 2.204,-1.304 1.484,-0.99 0,-0.854 Z"
             style="fill:#000000;fill-opacity:1;fill-rule:nonzero;stroke:none"
             id="path995"
             inkscape:connector-curvature="0" />
        </g>
      </g>
    </g>
    <path
       inkscape:connector-curvature="0"
       style="fill:#000000;fill-opacity:1;fill-rule:nonzero;stroke:none;stroke-width:0.35277775"
       d="m -136.81876,38.139135 -6.03581,18.534788 -2.59674,1.548741 0.0775,2.296502 h 2.43086 l -1.26297,8.939505 -1.12551,-6.276104 -2.65979,12.724804 h 2.91766 l 0.24391,33.868219 -1.05937,-3.77444 -1.88051,14.72365 -2.67374,-11.07427 -0.69453,13.04572 h -6.63318 l -5.43326,-7.845 -5.34386,11.13265 -11.81272,-0.0599 -2.51716,-5.1015 -1.76578,5.16144 -18.79162,-0.061 -2.43758,-1.07384 -4.41575,-13.74903 -1.11311,7.04815 -1.65571,-5.3356 -1.46813,7.96851 -9.49348,0.35812 -5.81618,-8.02225 v 24.68842 h 0.55862 v -22.96656 l 4.98058,6.86986 10.23865,-0.38654 1.13843,-6.17947 1.69499,5.46169 1.12086,-7.09983 3.77497,11.75432 2.77502,1.22215 19.30786,0.063 1.4609,-4.27003 2.07532,4.20646 12.51139,0.0636 5.08134,-10.5854 13.94643,20.13779 1.61024,-12.60751 3.22667,13.38575 v -23.26524 l 6.27766,22.36142 -0.005,0.0145 0.0103,0.004 0.0455,0.16227 0.23513,-0.0661 0.23461,0.0806 0.0563,-0.16175 0.0119,-0.004 -0.005,-0.017 7.41505,-21.38164 -2.8975,21.87774 7.65276,-18.91978 0.19482,0.69556 0.26459,0.94517 4.89634,17.49092 9.47229,-20.63079 5.03018,10.48464 12.513453,-0.0636 2.074291,-4.20853 1.460376,4.27209 19.310967,-0.0636 2.772953,-1.22422 3.774451,-11.75432 1.121893,7.10138 1.693439,-5.46117 1.139465,6.1774 10.237618,0.38809 4.981092,-6.86883 v 22.96603 h 0.557588 v -24.68738 l -5.813599,8.02225 -9.493479,-0.36019 -1.467609,-7.96902 -1.65778,5.33766 -1.111561,-7.04866 -4.416784,13.74799 -2.437578,1.0759 -18.792649,0.06 -1.763719,-5.16144 -2.51871,5.10149 -11.811158,0.06 -5.39399,-11.236 -3.64784,7.94783 h -8.36797 l -0.54983,-10.28671 -0.004,-0.10594 -0.0424,-0.83974 -0.004,0.007 -0.88884,1.96474 -1.11569,2.74298 -2.71922,-9.71362 -0.96635,2.78692 0.22531,-33.344743 h 2.91766 l -2.66341,-12.724803 -1.12551,6.276103 -1.25935,-8.939505 h 2.43085 l 0.0739,-2.296502 -2.59622,-1.54874 z m 0,1.806091 5.5671,17.099216 2.4939,1.488797 -0.0496,1.428855 h -2.53266 l 1.84123,13.028144 1.23145,-6.879167 1.93322,9.239229 -3.0024,-0.0072 v 35.48568 l -8.39846,24.21713 -6.59805,-23.50244 V 75.300692 l -2.97036,0.04961 1.9296,-9.239229 1.23507,6.879167 1.83761,-13.028144 h -2.53266 l -0.046,-1.428855 2.4908,-1.488797 z m 8.93589,68.389624 2.43344,8.69353 -6.65747,16.36334 3.1967,-22.09374 0.11007,-0.31729 z m -17.80047,0.46457 0.8692,3.09645 0.15658,21.71909 -2.74402,-11.36468 z m -4.38216,4.29432 2.13786,8.86871 -1.61179,12.61938 -7.84294,-11.32438 h 6.77375 z m 26.64179,0.13074 0.3948,10.03297 h 8.63979 l -5.42551,11.81789 -4.7625,-17.00723 -0.26459,-0.9524 -0.1142,-0.40876 0.49506,-1.22473 1.0051,-2.18746 z"
       id="path904" />
    <g
       style="opacity:0.7;fill:#ff0418;fill-opacity:1;filter:url(#filter1248)"
       transform="translate(3.27971,92.281514)"
       id="g1413">
      <g
         aria-label="PHYSOC"
         style="font-style:normal;font-variant:normal;font-weight:normal;font-stretch:normal;font-size:32.69683075px;line-height:1.25;font-family:Clip;-inkscape-font-specification:Clip;letter-spacing:0px;word-spacing:0px;fill:#ff0418;fill-opacity:1;stroke:none;stroke-width:0.26458332"
         id="text1411">
        <path
           inkscape:connector-curvature="0"
           d="m 59.78027,-17.26063 h 1.24529 q 5.587837,0 7.471736,3.400598 0.862124,1.564595 0.862124,3.19305 v 0.9738804 q 0,4.6937833 -5.571872,6.5617175 -1.54863,0.3672007 -2.921641,0.3672007 h -1.30915 q -1.836004,-0.2873745 -1.836004,-1.5645944 v -9.9623152 q 0,-0.478958 0.702471,-0.590715 0.574749,0 0.654575,0.973881 0,1.117567 -0.06386,1.516698 0.06386,2.2511 0.06386,4.1190346 v 3.0812931 q 0,0.2235135 -0.06386,0.5907142 0,0.4949227 0.814228,0.4949227 0.191583,0 0.494923,0.047896 5.316428,0 7.248223,-3.5123549 0.494923,-1.2772199 0.494923,-2.6023357 0,-4.677818 -4.709749,-5.523976 -1.213359,-0.223514 -2.985502,-0.27141 -4.055173,0.143688 -4.055173,0.542819 l -0.06386,0.319305 V 5.0907193 q -0.09579,0.5428185 -0.542819,0.5428185 h -0.20755 Q 54.958765,5.521781 54.958765,5.0907193 V -15.472522 q 0,-1.165463 1.740212,-1.58056 1.899865,-0.207548 3.081293,-0.207548 z"
           style="fill:#ff0418;fill-opacity:1;stroke-width:0.26458332"
           id="path826" />
        <path
           inkscape:connector-curvature="0"
           d="m 73.127218,-17.26063 h 0.207549 q 0.606679,0 0.606679,1.037741 V 3.6378816 q 0,0.63861 0.542819,0.63861 h 0.319305 q 0.590714,0 0.590714,-0.9738802 v -8.4296517 q 0,-1.532664 2.059517,-2.1712739 0.431062,-0.1117568 0.925984,-0.1117568 h 0.542819 q 0.94195,0 4.055173,0.702471 0.255444,0.063861 0.702471,0.063861 h 0.542819 q 1.341081,0 1.564594,-0.9259845 V -14.70619 q 0,-2.027587 1.468803,-2.490579 l 0.319305,-0.06386 h 0.478958 q 1.580559,0 1.899864,1.947761 V 5.0907193 q -0.111756,0.5428185 -0.542818,0.5428185 h -0.207548 q -0.60668,0 -0.60668,-1.021776 V -15.249008 q 0,-0.654576 -0.542818,-0.654576 h -0.319305 q -0.590715,0 -0.590715,0.973881 v 7.3599795 q 0,1.7721427 -2.602335,2.2670654 h -0.814228 q -0.989845,0 -4.055173,-0.7024709 l -1.021776,-0.1117568 q -1.644421,0 -1.899865,0.9898455 v 8.0624509 q 0,2.2351349 -1.468803,2.6502314 l -0.319305,0.047896 h -0.478957 q -1.58056,0 -1.899865,-1.9477605 V -16.717811 q 0.111757,-0.542819 0.542818,-0.542819 z"
           style="fill:#ff0418;fill-opacity:1;stroke-width:0.26458332"
           id="path828" />
        <path
           inkscape:connector-curvature="0"
           d="m 95.302951,-17.196769 q 1.452837,0 2.426717,2.538475 4.677822,8.8926437 4.805542,9.0682614 6.17855,-10.7126824 6.68944,-11.4949794 0.19158,-0.111757 0.33527,-0.111757 h 0.20755 q 0.54281,0.111757 0.54281,0.542819 v 0.207548 q 0,0.175618 -5.61976,9.7707325 -1.67635,3.0014669 -1.9318,3.1291889 -0.19158,0 -0.27141,0.063861 -0.59071,0 -1.45283,-2.107413 L 95.686117,-15.68007 q -0.207549,-0.159653 -0.542819,-0.223514 -0.494923,0 -0.702471,0.750367 0.175618,0.510888 5.715563,10.5370647 0.17561,0.6865057 0.17561,1.0217759 v 8.6371999 q 0,0.3512355 -0.431058,0.5907143 h -0.33527 q -0.510888,0 -0.590714,-0.7503668 v -8.4296516 q 0,-0.7344015 -1.564595,-3.2409457 l -4.214825,-7.7591107 q -0.0479,-0.30334 -0.0479,-0.494923 v -0.367201 q 0,-1.101602 1.516699,-1.788108 z"
           style="fill:#ff0418;fill-opacity:1;stroke-width:0.26458332"
           id="path830" />
        <path
           inkscape:connector-curvature="0"
           d="m 121.27841,-17.579935 h 0.94195 q 2.53848,0 4.77361,1.293185 l 0.0958,0.383166 v 0.0479 q 0,0.558784 -0.71843,0.654575 -2.47462,-1.085637 -4.598,-1.085637 -4.91729,0 -6.37013,3.448494 -0.33527,1.037741 -0.33527,1.8839 v 0.223513 q 0,2.9695365 3.16112,3.9753472 0.95791,0.1596525 3.87955,0.2714093 3.22498,0.6066795 4.21483,1.7242469 1.66039,1.5486292 1.66039,3.5442854 v 0.60667946 q 0,3.30480664 -3.60815,5.58783724 -2.17127,0.9738803 -4.19886,0.9738803 H 119.171 q -2.53848,0 -4.98116,-1.1814285 -0.67054,-0.702471 -0.67054,-1.2452895 V 3.1589241 q 0,-1.2772199 1.38898,-1.6763512 0.20755,-0.047896 0.49492,-0.047896 0.19158,0 2.55444,0.702471 0.84616,0.1596524 1.70828,0.1596524 h 0.28738 q 3.24094,0 3.76779,-2.65023135 0,-1.02177595 0.60668,-1.02177595 h 0.11176 q 0.55878,0 0.65458,0.70247096 0,2.93760584 -3.25691,4.03920814 -0.95792,0.2714092 -1.99566,0.2714092 h -0.22351 q -1.89987,0 -4.21483,-0.8621235 h -0.11176 q -0.44702,0 -0.44702,0.5428185 0,0.8780887 4.55009,1.341081 5.3324,0 6.92892,-3.71990315 0.22351,-0.67054048 0.33527,-1.88389943 0,-3.51235482 -4.8215,-4.19886062 -3.25692,-0.095791 -4.32659,-0.4310617 -3.83166,-1.4847682 -3.83166,-5.1567754 v -0.175618 q 0,-3.432528 2.93761,-5.428184 2.13934,-1.24529 4.66185,-1.24529 z"
           style="fill:#ff0418;fill-opacity:1;stroke-width:0.26458332"
           id="path832" />
        <path
           inkscape:connector-curvature="0"
           d="m 141.04339,-17.26063 h 0.95791 q 5.39626,0 8.20614,5.10888 1.37301,3.0333973 1.37301,5.6836287 v 0.5268533 q -0.33527,1.9956561 -1.94776,1.9956561 h -0.20755 q -1.38897,0 -1.94776,-1.6763512 0,-4.5021999 -2.53847,-6.9608489 -1.48477,-1.197393 -3.46446,-1.197393 -3.95938,0 -5.42818,4.1988601 -0.73441,2.2511002 -0.73441,4.1669301 -0.3193,0.3672007 -0.57474,0.3672007 -0.68651,-0.095792 -0.68651,-0.574749 v -0.1117567 q 0,-4.1030691 2.36286,-7.1524322 2.02758,-2.219169 5.01308,-2.219169 5.3324,0 6.99278,6.2583776 0.25545,1.2293242 0.3672,3.1132236 0.27141,0.4789575 0.57475,0.4789575 h 0.20755 q 0.60668,0 0.75037,-0.7982625 0,-3.9274513 -2.31496,-7.1524322 -2.39479,-2.746022 -6.0668,-2.746022 h -0.3672 q -0.0479,0 -0.0479,-0.0479 l -0.0958,0.0479 h -0.38316 q -5.34836,0 -7.67929,5.747489 -0.89405,2.793919 -0.89405,4.6778184 0,3.3207719 1.78811,6.4180303 2.42672,3.4325286 6.48189,3.4325286 h 0.30334 q 0.12772,0 0.22351,0.047896 0.0798,-0.047896 0.20755,-0.047896 h 0.15965 q 4.82151,0 7.35998,-4.53413081 0.39913,-0.63860997 0.95792,-2.36285689 0.3193,-0.2075483 0.52685,-0.2075483 0.62265,0.1436873 0.62265,0.6226448 v 0.047896 q -0.95792,3.6400769 -3.41657,5.5878373 -2.69812,2.1553087 -6.00293,2.1553087 h -0.89406 q -5.22063,0 -7.99859,-4.6778181 -1.58055,-3.0812931 -1.58055,-6.1625863 V -5.893372 q 0,-3.7677988 2.36285,-7.519633 2.93761,-3.847625 7.47174,-3.847625 z"
           style="fill:#ff0418;fill-opacity:1;stroke-width:0.26458332"
           id="path834" />
        <path
           inkscape:connector-curvature="0"
           d="m 165.94918,-17.26063 h 1.00581 q 2.17128,0 4.69379,1.005811 0.27141,0.271409 0.27141,0.478957 v 0.30334 q -0.22352,0.431062 -0.57475,0.431062 h -0.11176 q -2.55444,-0.957915 -4.85344,-0.957915 -6.41803,0 -9.29177,5.44415 -1.05371,2.2511001 -1.05371,5.3802889 0,3.7039379 2.53848,6.7533005 2.88971,2.7939187 7.16839,2.7939187 2.41076,0 4.53413,-0.7503668 0.11176,-0.1596524 0.11176,-0.2554439 -0.0639,-0.4789575 -0.47896,-0.4789575 -2.17127,0.4310617 -3.57621,0.4310617 h -0.38317 q -5.6517,0 -7.64735,-4.8055401 -0.68651,-1.7561774 -0.68651,-3.8476251 V -5.813546 q 0,-0.4789575 0.68651,-0.574749 0.51089,0 0.63861,0.7822972 v 0.2075482 q 0,5.01308835 3.59218,6.7054048 1.5167,0.6865057 3.36867,0.6865057 h 0.47895 q 1.27722,0 3.36867,-0.4150965 h 0.15965 q 1.80408,0.2235135 1.80408,1.788108 0,1.6284554 -2.79392,1.9956561 -1.4688,0.2714093 -2.58637,0.2714093 h -1.16546 q -4.03921,0 -7.32805,-2.9535712 -3.06533,-3.38463284 -3.06533,-7.5994587 v -1.1016022 q 0,-5.4281847 4.21482,-8.9245747 3.12919,-2.314961 6.96085,-2.314961 z"
           style="fill:#ff0418;fill-opacity:1;stroke-width:0.26458332"
           id="path836" />
      </g>
    </g>
    <g
       id="g1419"
       transform="translate(54.689544,42.084484)"
       style="opacity:0.9;fill:#ff0418;fill-opacity:1;filter:url(#filter1204)">
      <g
         aria-label="PHYSOC"
         style="font-style:normal;font-variant:normal;font-weight:normal;font-stretch:normal;font-size:32.69683075px;line-height:1.25;font-family:Clip;-inkscape-font-specification:Clip;letter-spacing:0px;word-spacing:0px;fill:#ff0418;fill-opacity:1;stroke:none;stroke-width:0.26458332"
         id="text1417">
        <path
           inkscape:connector-curvature="0"
           d="m 59.78027,-17.26063 h 1.24529 q 5.587837,0 7.471736,3.400598 0.862124,1.564595 0.862124,3.19305 v 0.9738804 q 0,4.6937833 -5.571872,6.5617175 -1.54863,0.3672007 -2.921641,0.3672007 h -1.30915 q -1.836004,-0.2873745 -1.836004,-1.5645944 v -9.9623152 q 0,-0.478958 0.702471,-0.590715 0.574749,0 0.654575,0.973881 0,1.117567 -0.06386,1.516698 0.06386,2.2511 0.06386,4.1190346 v 3.0812931 q 0,0.2235135 -0.06386,0.5907142 0,0.4949227 0.814228,0.4949227 0.191583,0 0.494923,0.047896 5.316428,0 7.248223,-3.5123549 0.494923,-1.2772199 0.494923,-2.6023357 0,-4.677818 -4.709749,-5.523976 -1.213359,-0.223514 -2.985502,-0.27141 -4.055173,0.143688 -4.055173,0.542819 l -0.06386,0.319305 V 5.0907193 q -0.09579,0.5428185 -0.542819,0.5428185 h -0.20755 Q 54.958765,5.521781 54.958765,5.0907193 V -15.472522 q 0,-1.165463 1.740212,-1.58056 1.899865,-0.207548 3.081293,-0.207548 z"
           style="fill:#ff0418;fill-opacity:1;stroke-width:0.26458332"
           id="path839" />
        <path
           inkscape:connector-curvature="0"
           d="m 73.127218,-17.26063 h 0.207549 q 0.606679,0 0.606679,1.037741 V 3.6378816 q 0,0.63861 0.542819,0.63861 h 0.319305 q 0.590714,0 0.590714,-0.9738802 v -8.4296517 q 0,-1.532664 2.059517,-2.1712739 0.431062,-0.1117568 0.925984,-0.1117568 h 0.542819 q 0.94195,0 4.055173,0.702471 0.255444,0.063861 0.702471,0.063861 h 0.542819 q 1.341081,0 1.564594,-0.9259845 V -14.70619 q 0,-2.027587 1.468803,-2.490579 l 0.319305,-0.06386 h 0.478958 q 1.580559,0 1.899864,1.947761 V 5.0907193 q -0.111756,0.5428185 -0.542818,0.5428185 h -0.207548 q -0.60668,0 -0.60668,-1.021776 V -15.249008 q 0,-0.654576 -0.542818,-0.654576 h -0.319305 q -0.590715,0 -0.590715,0.973881 v 7.3599795 q 0,1.7721427 -2.602335,2.2670654 h -0.814228 q -0.989845,0 -4.055173,-0.7024709 l -1.021776,-0.1117568 q -1.644421,0 -1.899865,0.9898455 v 8.0624509 q 0,2.2351349 -1.468803,2.6502314 l -0.319305,0.047896 h -0.478957 q -1.58056,0 -1.899865,-1.9477605 V -16.717811 q 0.111757,-0.542819 0.542818,-0.542819 z"
           style="fill:#ff0418;fill-opacity:1;stroke-width:0.26458332"
           id="path841" />
        <path
           inkscape:connector-curvature="0"
           d="m 95.302951,-17.196769 q 1.452837,0 2.426717,2.538475 4.677822,8.8926437 4.805542,9.0682614 6.17855,-10.7126824 6.68944,-11.4949794 0.19158,-0.111757 0.33527,-0.111757 h 0.20755 q 0.54281,0.111757 0.54281,0.542819 v 0.207548 q 0,0.175618 -5.61976,9.7707325 -1.67635,3.0014669 -1.9318,3.1291889 -0.19158,0 -0.27141,0.063861 -0.59071,0 -1.45283,-2.107413 L 95.686117,-15.68007 q -0.207549,-0.159653 -0.542819,-0.223514 -0.494923,0 -0.702471,0.750367 0.175618,0.510888 5.715563,10.5370647 0.17561,0.6865057 0.17561,1.0217759 v 8.6371999 q 0,0.3512355 -0.431058,0.5907143 h -0.33527 q -0.510888,0 -0.590714,-0.7503668 v -8.4296516 q 0,-0.7344015 -1.564595,-3.2409457 l -4.214825,-7.7591107 q -0.0479,-0.30334 -0.0479,-0.494923 v -0.367201 q 0,-1.101602 1.516699,-1.788108 z"
           style="fill:#ff0418;fill-opacity:1;stroke-width:0.26458332"
           id="path843" />
        <path
           inkscape:connector-curvature="0"
           d="m 121.27841,-17.579935 h 0.94195 q 2.53848,0 4.77361,1.293185 l 0.0958,0.383166 v 0.0479 q 0,0.558784 -0.71843,0.654575 -2.47462,-1.085637 -4.598,-1.085637 -4.91729,0 -6.37013,3.448494 -0.33527,1.037741 -0.33527,1.8839 v 0.223513 q 0,2.9695365 3.16112,3.9753472 0.95791,0.1596525 3.87955,0.2714093 3.22498,0.6066795 4.21483,1.7242469 1.66039,1.5486292 1.66039,3.5442854 v 0.60667946 q 0,3.30480664 -3.60815,5.58783724 -2.17127,0.9738803 -4.19886,0.9738803 H 119.171 q -2.53848,0 -4.98116,-1.1814285 -0.67054,-0.702471 -0.67054,-1.2452895 V 3.1589241 q 0,-1.2772199 1.38898,-1.6763512 0.20755,-0.047896 0.49492,-0.047896 0.19158,0 2.55444,0.702471 0.84616,0.1596524 1.70828,0.1596524 h 0.28738 q 3.24094,0 3.76779,-2.65023135 0,-1.02177595 0.60668,-1.02177595 h 0.11176 q 0.55878,0 0.65458,0.70247096 0,2.93760584 -3.25691,4.03920814 -0.95792,0.2714092 -1.99566,0.2714092 h -0.22351 q -1.89987,0 -4.21483,-0.8621235 h -0.11176 q -0.44702,0 -0.44702,0.5428185 0,0.8780887 4.55009,1.341081 5.3324,0 6.92892,-3.71990315 0.22351,-0.67054048 0.33527,-1.88389943 0,-3.51235482 -4.8215,-4.19886062 -3.25692,-0.095791 -4.32659,-0.4310617 -3.83166,-1.4847682 -3.83166,-5.1567754 v -0.175618 q 0,-3.432528 2.93761,-5.428184 2.13934,-1.24529 4.66185,-1.24529 z"
           style="fill:#ff0418;fill-opacity:1;stroke-width:0.26458332"
           id="path845" />
        <path
           inkscape:connector-curvature="0"
           d="m 141.04339,-17.26063 h 0.95791 q 5.39626,0 8.20614,5.10888 1.37301,3.0333973 1.37301,5.6836287 v 0.5268533 q -0.33527,1.9956561 -1.94776,1.9956561 h -0.20755 q -1.38897,0 -1.94776,-1.6763512 0,-4.5021999 -2.53847,-6.9608489 -1.48477,-1.197393 -3.46446,-1.197393 -3.95938,0 -5.42818,4.1988601 -0.73441,2.2511002 -0.73441,4.1669301 -0.3193,0.3672007 -0.57474,0.3672007 -0.68651,-0.095792 -0.68651,-0.574749 v -0.1117567 q 0,-4.1030691 2.36286,-7.1524322 2.02758,-2.219169 5.01308,-2.219169 5.3324,0 6.99278,6.2583776 0.25545,1.2293242 0.3672,3.1132236 0.27141,0.4789575 0.57475,0.4789575 h 0.20755 q 0.60668,0 0.75037,-0.7982625 0,-3.9274513 -2.31496,-7.1524322 -2.39479,-2.746022 -6.0668,-2.746022 h -0.3672 q -0.0479,0 -0.0479,-0.0479 l -0.0958,0.0479 h -0.38316 q -5.34836,0 -7.67929,5.747489 -0.89405,2.793919 -0.89405,4.6778184 0,3.3207719 1.78811,6.4180303 2.42672,3.4325286 6.48189,3.4325286 h 0.30334 q 0.12772,0 0.22351,0.047896 0.0798,-0.047896 0.20755,-0.047896 h 0.15965 q 4.82151,0 7.35998,-4.53413081 0.39913,-0.63860997 0.95792,-2.36285689 0.3193,-0.2075483 0.52685,-0.2075483 0.62265,0.1436873 0.62265,0.6226448 v 0.047896 q -0.95792,3.6400769 -3.41657,5.5878373 -2.69812,2.1553087 -6.00293,2.1553087 h -0.89406 q -5.22063,0 -7.99859,-4.6778181 -1.58055,-3.0812931 -1.58055,-6.1625863 V -5.893372 q 0,-3.7677988 2.36285,-7.519633 2.93761,-3.847625 7.47174,-3.847625 z"
           style="fill:#ff0418;fill-opacity:1;stroke-width:0.26458332"
           id="path847" />
        <path
           inkscape:connector-curvature="0"
           d="m 165.94918,-17.26063 h 1.00581 q 2.17128,0 4.69379,1.005811 0.27141,0.271409 0.27141,0.478957 v 0.30334 q -0.22352,0.431062 -0.57475,0.431062 h -0.11176 q -2.55444,-0.957915 -4.85344,-0.957915 -6.41803,0 -9.29177,5.44415 -1.05371,2.2511001 -1.05371,5.3802889 0,3.7039379 2.53848,6.7533005 2.88971,2.7939187 7.16839,2.7939187 2.41076,0 4.53413,-0.7503668 0.11176,-0.1596524 0.11176,-0.2554439 -0.0639,-0.4789575 -0.47896,-0.4789575 -2.17127,0.4310617 -3.57621,0.4310617 h -0.38317 q -5.6517,0 -7.64735,-4.8055401 -0.68651,-1.7561774 -0.68651,-3.8476251 V -5.813546 q 0,-0.4789575 0.68651,-0.574749 0.51089,0 0.63861,0.7822972 v 0.2075482 q 0,5.01308835 3.59218,6.7054048 1.5167,0.6865057 3.36867,0.6865057 h 0.47895 q 1.27722,0 3.36867,-0.4150965 h 0.15965 q 1.80408,0.2235135 1.80408,1.788108 0,1.6284554 -2.79392,1.9956561 -1.4688,0.2714093 -2.58637,0.2714093 h -1.16546 q -4.03921,0 -7.32805,-2.9535712 -3.06533,-3.38463284 -3.06533,-7.5994587 v -1.1016022 q 0,-5.4281847 4.21482,-8.9245747 3.12919,-2.314961 6.96085,-2.314961 z"
           style="fill:#ff0418;fill-opacity:1;stroke-width:0.26458332"
           id="path849-1" />
      </g>
    </g>
    <path
       inkscape:connector-curvature="0"
       d="m 54.605094,39.843723 h 1.24529 q 5.58783,0 7.47173,3.4006 0.86213,1.56459 0.86213,3.19305 v 0.97388 q 0,4.69378 -5.57188,6.56171 -1.54863,0.3672 -2.92164,0.3672 h -1.30915 q -1.836,-0.28737 -1.836,-1.56459 v -9.96231 q 0,-0.47896 0.70247,-0.59072 0.57475,0 0.65458,0.97388 0,1.11757 -0.0639,1.5167 0.0639,2.2511 0.0639,4.11903 v 3.0813 q 0,0.22351 -0.0639,0.59071 0,0.49492 0.81422,0.49492 0.19159,0 0.49493,0.0479 5.31642,0 7.24822,-3.51236 0.49492,-1.27721 0.49492,-2.60233 0,-4.67782 -4.70975,-5.52398 -1.21336,-0.22351 -2.9855,-0.27141 -4.05517,0.14369 -4.05517,0.54282 l -0.0639,0.31931 v 20.19604 q -0.0958,0.54282 -0.54282,0.54282 h -0.20755 q -0.54282,-0.11176 -0.54282,-0.54282 v -20.56324 q 0,-1.16547 1.74021,-1.58056 1.89987,-0.20755 3.0813,-0.20755 z"
       style="font-style:normal;font-variant:normal;font-weight:normal;font-stretch:normal;font-size:32.69683075px;line-height:1.25;font-family:Clip;-inkscape-font-specification:Clip;letter-spacing:0px;word-spacing:0px;fill:#ffe7e9;fill-opacity:1;stroke:none;stroke-width:0.26458332"
       id="path852" />
    <path
       inkscape:connector-curvature="0"
       d="m 102.15888,63.845211 h 0.20755 q 0.60668,0 0.60668,1.03774 v 19.86077 q 0,0.63861 0.54282,0.63861 h 0.31931 q 0.59071,0 0.59071,-0.97388 v -8.42965 q 0,-1.53267 2.05952,-2.17128 0.43106,-0.11175 0.92598,-0.11175 h 0.54282 q 0.94195,0 4.05517,0.70247 0.25545,0.0639 0.70247,0.0639 h 0.54282 q 1.34108,0 1.5646,-0.92599 v -7.13646 q 0,-2.02759 1.4688,-2.49058 l 0.31931,-0.0639 h 0.47895 q 1.58056,0 1.89987,1.94776 v 20.40359 q -0.11176,0.54282 -0.54282,0.54282 h -0.20755 q -0.60668,0 -0.60668,-1.02178 v -19.86077 q 0,-0.65458 -0.54282,-0.65458 h -0.3193 q -0.59072,0 -0.59072,0.97389 v 7.35997 q 0,1.77215 -2.60233,2.26707 h -0.81423 q -0.98984,0 -4.05517,-0.70247 l -1.02178,-0.11176 q -1.64442,0 -1.89986,0.98985 v 8.06245 q 0,2.23513 -1.46881,2.65023 l -0.3193,0.0479 h -0.47896 q -1.58056,0 -1.89986,-1.94777 v -20.40358 q 0.11175,-0.54282 0.54281,-0.54282 z"
       style="font-style:normal;font-variant:normal;font-weight:normal;font-stretch:normal;font-size:32.69683075px;line-height:1.25;font-family:Clip;-inkscape-font-specification:Clip;letter-spacing:0px;word-spacing:0px;fill:#ffe7e9;fill-opacity:1;stroke:none;stroke-width:0.26458332"
       id="path854" />
    <path
       inkscape:connector-curvature="0"
       d="m 124.33462,63.909071 q 1.45283,0 2.42671,2.53847 4.67783,8.89265 4.80555,9.06827 6.17855,-10.71269 6.68944,-11.49498 0.19158,-0.11176 0.33527,-0.11176 h 0.20755 q 0.54281,0.11176 0.54281,0.54282 v 0.20755 q 0,0.17561 -5.61976,9.77073 -1.67635,3.00147 -1.9318,3.12919 -0.19158,0 -0.27141,0.0639 -0.59071,0 -1.45283,-2.10741 l -5.34837,-10.09004 q -0.20754,-0.15966 -0.54282,-0.22352 -0.49492,0 -0.70247,0.75037 0.17562,0.51089 5.71557,10.53707 0.17561,0.6865 0.17561,1.02177 v 8.6372 q 0,0.35124 -0.43106,0.59072 h -0.33527 q -0.51089,0 -0.59071,-0.75037 v -8.42965 q 0,-0.7344 -1.5646,-3.24095 l -4.21483,-7.75911 q -0.0479,-0.30334 -0.0479,-0.49492 v -0.3672 q 0,-1.1016 1.5167,-1.78811 z"
       style="font-style:normal;font-variant:normal;font-weight:normal;font-stretch:normal;font-size:32.69683075px;line-height:1.25;font-family:Clip;-inkscape-font-specification:Clip;letter-spacing:0px;word-spacing:0px;fill:#ffe7e9;fill-opacity:1;stroke:none;stroke-width:0.26458332"
       id="path856" />
    <path
       inkscape:connector-curvature="0"
       d="m 150.31008,63.525901 h 0.94195 q 2.53848,0 4.77361,1.29319 l 0.0958,0.38316 v 0.0479 q 0,0.55879 -0.71843,0.65458 -2.47462,-1.08564 -4.598,-1.08564 -4.91729,0 -6.37013,3.4485 -0.33527,1.03774 -0.33527,1.8839 v 0.22351 q 0,2.96954 3.16112,3.97535 0.95791,0.15965 3.87955,0.27141 3.22498,0.60668 4.21483,1.72424 1.66039,1.54863 1.66039,3.54429 v 0.60668 q 0,3.3048 -3.60815,5.58784 -2.17127,0.97388 -4.19886,0.97388 h -1.00582 q -2.53848,0 -4.98116,-1.18143 -0.67054,-0.70247 -0.67054,-1.24529 v -0.36721 q 0,-1.27722 1.38898,-1.67635 0.20755,-0.0479 0.49492,-0.0479 0.19158,0 2.55444,0.70248 0.84616,0.15965 1.70828,0.15965 h 0.28738 q 3.24094,0 3.76779,-2.65023 0,-1.02178 0.60668,-1.02178 h 0.11176 q 0.55878,0 0.65458,0.70247 0,2.93761 -3.25691,4.03921 -0.95792,0.27141 -1.99566,0.27141 h -0.22351 q -1.89987,0 -4.21483,-0.86212 h -0.11176 q -0.44702,0 -0.44702,0.54282 0,0.87808 4.55009,1.34108 5.3324,0 6.92892,-3.71991 0.22351,-0.67054 0.33527,-1.8839 0,-3.51235 -4.8215,-4.19886 -3.25692,-0.0958 -4.32659,-0.43106 -3.83166,-1.48477 -3.83166,-5.15677 v -0.17562 q 0,-3.43253 2.93761,-5.42819 2.13934,-1.24529 4.66185,-1.24529 z"
       style="font-style:normal;font-variant:normal;font-weight:normal;font-stretch:normal;font-size:32.69683075px;line-height:1.25;font-family:Clip;-inkscape-font-specification:Clip;letter-spacing:0px;word-spacing:0px;fill:#ffe7e9;fill-opacity:1;stroke:none;stroke-width:0.26458332"
       id="path858" />
    <path
       inkscape:connector-curvature="0"
       d="m 170.07506,63.845211 h 0.95791 q 5.39626,0 8.20614,5.10888 1.37301,3.0334 1.37301,5.68363 v 0.52685 q -0.33527,1.99566 -1.94776,1.99566 h -0.20755 q -1.38897,0 -1.94776,-1.67635 0,-4.5022 -2.53847,-6.96085 -1.48477,-1.1974 -3.46446,-1.1974 -3.95938,0 -5.42818,4.19886 -0.73441,2.2511 -0.73441,4.16693 -0.3193,0.3672 -0.57474,0.3672 -0.68651,-0.0958 -0.68651,-0.57474 v -0.11176 q 0,-4.10307 2.36286,-7.15243 2.02758,-2.21917 5.01308,-2.21917 5.3324,0 6.99278,6.25837 0.25545,1.22933 0.3672,3.11323 0.27141,0.47896 0.57475,0.47896 h 0.20755 q 0.60668,0 0.75037,-0.79827 0,-3.92745 -2.31496,-7.15243 -2.39479,-2.74602 -6.0668,-2.74602 h -0.3672 q -0.0479,0 -0.0479,-0.0479 l -0.0958,0.0479 h -0.38316 q -5.34836,0 -7.67929,5.74749 -0.89405,2.79392 -0.89405,4.67782 0,3.32077 1.78811,6.41803 2.42672,3.43253 6.48189,3.43253 h 0.30334 q 0.12772,0 0.22351,0.0479 0.0798,-0.0479 0.20755,-0.0479 h 0.15965 q 4.82151,0 7.35998,-4.53414 0.39913,-0.63861 0.95792,-2.36285 0.3193,-0.20755 0.52685,-0.20755 0.62265,0.14369 0.62265,0.62264 v 0.0479 q -0.95792,3.64008 -3.41657,5.58784 -2.69812,2.15531 -6.00293,2.15531 h -0.89406 q -5.22063,0 -7.99859,-4.67782 -1.58055,-3.0813 -1.58055,-6.16259 v -0.6865 q 0,-3.7678 2.36285,-7.51964 2.93761,-3.84762 7.47174,-3.84762 z"
       style="font-style:normal;font-variant:normal;font-weight:normal;font-stretch:normal;font-size:32.69683075px;line-height:1.25;font-family:Clip;-inkscape-font-specification:Clip;letter-spacing:0px;word-spacing:0px;fill:#ffe7e9;fill-opacity:1;stroke:none;stroke-width:0.26458332"
       id="path860" />
    <path
       inkscape:connector-curvature="0"
       d="m 194.98085,63.845211 h 1.00581 q 2.17128,0 4.69379,1.00581 0.27141,0.27141 0.27141,0.47896 v 0.30334 q -0.22352,0.43106 -0.57475,0.43106 h -0.11176 q -2.55444,-0.95792 -4.85344,-0.95792 -6.41803,0 -9.29177,5.44415 -1.05371,2.2511 -1.05371,5.38029 0,3.70394 2.53848,6.7533 2.88971,2.79392 7.16839,2.79392 2.41076,0 4.53413,-0.75037 0.11176,-0.15965 0.11176,-0.25544 -0.0639,-0.47896 -0.47896,-0.47896 -2.17127,0.43107 -3.57621,0.43107 h -0.38317 q -5.6517,0 -7.64735,-4.80555 -0.68651,-1.75617 -0.68651,-3.84762 v -0.47896 q 0,-0.47896 0.68651,-0.57475 0.51089,0 0.63861,0.7823 v 0.20755 q 0,5.01309 3.59218,6.7054 1.5167,0.68651 3.36867,0.68651 h 0.47895 q 1.27722,0 3.36867,-0.4151 h 0.15965 q 1.80408,0.22352 1.80408,1.78811 0,1.62845 -2.79392,1.99566 -1.4688,0.27141 -2.58637,0.27141 h -1.16546 q -4.03921,0 -7.32805,-2.95358 -3.06533,-3.38463 -3.06533,-7.59945 v -1.10161 q 0,-5.42818 4.21482,-8.92457 3.12919,-2.31496 6.96085,-2.31496 z"
       style="font-style:normal;font-variant:normal;font-weight:normal;font-stretch:normal;font-size:32.69683075px;line-height:1.25;font-family:Clip;-inkscape-font-specification:Clip;letter-spacing:0px;word-spacing:0px;fill:#ffe7e9;fill-opacity:1;stroke:none;stroke-width:0.26458332"
       id="path862" />
    <circle
       style="opacity:0.7;fill:none;fill-opacity:1;stroke:#ff0517;stroke-width:0.95216709;stroke-linecap:round;stroke-linejoin:round;stroke-miterlimit:4;stroke-dasharray:none;stroke-dashoffset:3779.52758789;stroke-opacity:0.65098039;filter:url(#filter1287)"
       id="circle1365"
       cx="4.7676678"
       cy="111.87334"
       r="2.3632271" />
    <g
       id="g1433"
       transform="translate(0.75595238)">
      <path
         style="opacity:0.7;fill:#ff0517;fill-opacity:1;fill-rule:nonzero;stroke:#ff0517;stroke-width:1;stroke-linecap:round;stroke-linejoin:round;stroke-miterlimit:4;stroke-dasharray:none;stroke-opacity:0.65098039;filter:url(#filter1251)"
         d="m 122.69994,109.23283 -6.0358,18.53479 -2.59674,1.54874 0.0775,2.2965 h 2.43086 l -1.26297,8.93951 -1.12551,-6.27611 -2.65979,12.72481 h 2.91765 l 0.24391,33.86821 -1.05936,-3.77444 -1.88051,14.72365 -2.67374,-11.07426 -0.69453,13.04571 h -6.63318 l -5.433265,-7.845 -5.343858,11.13266 -11.812717,-0.0599 -2.517159,-5.10149 -1.765784,5.16144 -18.791616,-0.061 -2.437578,-1.07384 -4.415751,-13.74903 -1.11311,7.04815 -1.655713,-5.33559 -1.468127,7.9685 -9.493478,0.35812 -5.816182,-8.02225 v 24.68842 h 0.558622 v -22.96656 l 4.980575,6.86987 10.238651,-0.38654 1.138432,-6.17947 1.694987,5.46168 1.120862,-7.09983 3.774963,11.75432 2.775024,1.22215 19.307865,0.063 1.460894,-4.27003 2.075325,4.20647 12.511381,0.0636 5.081344,-10.5854 13.946433,20.13779 1.61024,-12.6075 3.22667,13.38574 v -23.26524 l 6.27766,22.36142 -0.005,0.0145 0.0104,0.004 0.0455,0.16226 0.23513,-0.0661 0.23461,0.0806 0.0563,-0.16174 0.0119,-0.004 -0.005,-0.0171 7.41505,-21.38164 -2.8975,21.87773 7.65276,-18.91978 0.19482,0.69557 0.26459,0.94516 4.89634,17.49092 9.47229,-20.63078 5.03018,10.48463 12.51345,-0.0636 2.07429,-4.20853 1.46038,4.27209 19.31097,-0.0636 2.77295,-1.22422 3.77445,-11.75432 1.12189,7.10138 1.69344,-5.46117 1.13947,6.1774 10.23761,0.3881 4.9811,-6.86884 v 22.96604 h 0.55758 v -24.68738 l -5.8136,8.02225 -9.49347,-0.36019 -1.46761,-7.96902 -1.65778,5.33766 -1.11156,-7.04866 -4.41679,13.74799 -2.43758,1.07591 -18.79265,0.0599 -1.76371,-5.16144 -2.51871,5.1015 -11.81117,0.0599 -5.39398,-11.236 -3.64784,7.94783 h -8.36797 l -0.54983,-10.28671 -0.004,-0.10594 -0.0424,-0.83974 -0.004,0.007 -0.88884,1.96474 -1.11569,2.74298 -2.71921,-9.71362 -0.96635,2.78691 0.22531,-33.34473 h 2.91765 l -2.6634,-12.7248 -1.12552,6.2761 -1.25935,-8.93951 h 2.43086 l 0.0739,-2.2965 -2.59623,-1.54874 z m 0,1.80609 5.56711,17.09922 2.4939,1.48879 -0.0496,1.42886 h -2.53266 l 1.84123,13.02814 1.23145,-6.87917 1.93322,9.23923 -3.0024,-0.007 v 35.48569 l -8.39846,24.21713 -6.59805,-23.50245 V 146.3946 l -2.97036,0.0496 1.9296,-9.23923 1.23507,6.87917 1.83761,-13.02814 h -2.53266 l -0.046,-1.42886 2.4908,-1.48879 z m 8.93589,68.38962 2.43345,8.69353 -6.65748,16.36334 3.19671,-22.09374 0.11007,-0.31729 z m -17.80046,0.46458 0.8692,3.09645 0.15658,21.71909 -2.74402,-11.36469 z m -4.38216,4.29431 2.13785,8.86871 -1.61178,12.61938 -7.84294,-11.32437 h 6.77375 z m 26.64178,0.13074 0.39481,10.03298 h 8.63978 l -5.42551,11.81788 -4.7625,-17.00723 -0.26458,-0.9524 -0.1142,-0.40876 0.49506,-1.22473 1.0051,-2.18746 z"
         id="path1217"
         inkscape:connector-curvature="0" />
      <path
         inkscape:connector-curvature="0"
         id="path1194"
         d="m 122.69994,109.23283 -6.0358,18.53479 -2.59674,1.54874 0.0775,2.2965 h 2.43086 l -1.26297,8.93951 -1.12551,-6.27611 -2.65979,12.72481 h 2.91765 l 0.24391,33.86821 -1.05936,-3.77444 -1.88051,14.72365 -2.67374,-11.07426 -0.69453,13.04571 h -6.63318 l -5.433265,-7.845 -5.343858,11.13266 -11.812717,-0.0599 -2.517159,-5.10149 -1.765784,5.16144 -18.791616,-0.061 -2.437578,-1.07384 -4.415751,-13.74903 -1.11311,7.04815 -1.655713,-5.33559 -1.468127,7.9685 -9.493478,0.35812 -5.816182,-8.02225 v 24.68842 h 0.558622 v -22.96656 l 4.980575,6.86987 10.238651,-0.38654 1.138432,-6.17947 1.694987,5.46168 1.120862,-7.09983 3.774963,11.75432 2.775024,1.22215 19.307865,0.063 1.460894,-4.27003 2.075325,4.20647 12.511381,0.0636 5.081344,-10.5854 13.946433,20.13779 1.61024,-12.6075 3.22667,13.38574 v -23.26524 l 6.27766,22.36142 -0.005,0.0145 0.0104,0.004 0.0455,0.16226 0.23513,-0.0661 0.23461,0.0806 0.0563,-0.16174 0.0119,-0.004 -0.005,-0.0171 7.41505,-21.38164 -2.8975,21.87773 7.65276,-18.91978 0.19482,0.69557 0.26459,0.94516 4.89634,17.49092 9.47229,-20.63078 5.03018,10.48463 12.51345,-0.0636 2.07429,-4.20853 1.46038,4.27209 19.31097,-0.0636 2.77295,-1.22422 3.77445,-11.75432 1.12189,7.10138 1.69344,-5.46117 1.13947,6.1774 10.23761,0.3881 4.9811,-6.86884 v 22.96604 h 0.55758 v -24.68738 l -5.8136,8.02225 -9.49347,-0.36019 -1.46761,-7.96902 -1.65778,5.33766 -1.11156,-7.04866 -4.41679,13.74799 -2.43758,1.07591 -18.79265,0.0599 -1.76371,-5.16144 -2.51871,5.1015 -11.81117,0.0599 -5.39398,-11.236 -3.64784,7.94783 h -8.36797 l -0.54983,-10.28671 -0.004,-0.10594 -0.0424,-0.83974 -0.004,0.007 -0.88884,1.96474 -1.11569,2.74298 -2.71921,-9.71362 -0.96635,2.78691 0.22531,-33.34473 h 2.91765 l -2.6634,-12.7248 -1.12552,6.2761 -1.25935,-8.93951 h 2.43086 l 0.0739,-2.2965 -2.59623,-1.54874 z m 0,1.80609 5.56711,17.09922 2.4939,1.48879 -0.0496,1.42886 h -2.53266 l 1.84123,13.02814 1.23145,-6.87917 1.93322,9.23923 -3.0024,-0.007 v 35.48569 l -8.39846,24.21713 -6.59805,-23.50245 V 146.3946 l -2.97036,0.0496 1.9296,-9.23923 1.23507,6.87917 1.83761,-13.02814 h -2.53266 l -0.046,-1.42886 2.4908,-1.48879 z m 8.93589,68.38962 2.43345,8.69353 -6.65748,16.36334 3.19671,-22.09374 0.11007,-0.31729 z m -17.80046,0.46458 0.8692,3.09645 0.15658,21.71909 -2.74402,-11.36469 z m -4.38216,4.29431 2.13785,8.86871 -1.61178,12.61938 -7.84294,-11.32437 h 6.77375 z m 26.64178,0.13074 0.39481,10.03298 h 8.63978 l -5.42551,11.81788 -4.7625,-17.00723 -0.26458,-0.9524 -0.1142,-0.40876 0.49506,-1.22473 1.0051,-2.18746 z"
         style="opacity:0.9;fill:#ff0517;fill-opacity:1;fill-rule:nonzero;stroke:#ff0517;stroke-width:1;stroke-linecap:round;stroke-linejoin:round;stroke-miterlimit:4;stroke-dasharray:none;stroke-opacity:0.65098039;filter:url(#filter1213)" />
      <path
         style="fill:#b3000f;fill-opacity:1;fill-rule:nonzero;stroke:#ffe7e9;stroke-width:1;stroke-linecap:round;stroke-linejoin:round;stroke-miterlimit:4;stroke-dasharray:none;stroke-opacity:1"
         d="m 122.69994,109.23283 -6.0358,18.53479 -2.59674,1.54874 0.0775,2.2965 h 2.43086 l -1.26297,8.93951 -1.12551,-6.27611 -2.65979,12.72481 h 2.91765 l 0.24391,33.86821 -1.05936,-3.77444 -1.88051,14.72365 -2.67374,-11.07426 -0.69453,13.04571 h -6.63318 l -5.433265,-7.845 -5.343858,11.13266 -11.812717,-0.0599 -2.517159,-5.10149 -1.765784,5.16144 -18.791616,-0.061 -2.437578,-1.07384 -4.415751,-13.74903 -1.11311,7.04815 -1.655713,-5.33559 -1.468127,7.9685 -9.493478,0.35812 -5.816182,-8.02225 v 24.68842 h 0.558622 v -22.96656 l 4.980575,6.86987 10.238651,-0.38654 1.138432,-6.17947 1.694987,5.46168 1.120862,-7.09983 3.774963,11.75432 2.775024,1.22215 19.307865,0.063 1.460894,-4.27003 2.075325,4.20647 12.511381,0.0636 5.081344,-10.5854 13.946433,20.13779 1.61024,-12.6075 3.22667,13.38574 v -23.26524 l 6.27766,22.36142 -0.005,0.0145 0.0104,0.004 0.0455,0.16226 0.23513,-0.0661 0.23461,0.0806 0.0563,-0.16174 0.0119,-0.004 -0.005,-0.0171 7.41505,-21.38164 -2.8975,21.87773 7.65276,-18.91978 0.19482,0.69557 0.26459,0.94516 4.89634,17.49092 9.47229,-20.63078 5.03018,10.48463 12.51345,-0.0636 2.07429,-4.20853 1.46038,4.27209 19.31097,-0.0636 2.77295,-1.22422 3.77445,-11.75432 1.12189,7.10138 1.69344,-5.46117 1.13947,6.1774 10.23761,0.3881 4.9811,-6.86884 v 22.96604 h 0.55758 v -24.68738 l -5.8136,8.02225 -9.49347,-0.36019 -1.46761,-7.96902 -1.65778,5.33766 -1.11156,-7.04866 -4.41679,13.74799 -2.43758,1.07591 -18.79265,0.0599 -1.76371,-5.16144 -2.51871,5.1015 -11.81117,0.0599 -5.39398,-11.236 -3.64784,7.94783 h -8.36797 l -0.54983,-10.28671 -0.004,-0.10594 -0.0424,-0.83974 -0.004,0.007 -0.88884,1.96474 -1.11569,2.74298 -2.71921,-9.71362 -0.96635,2.78691 0.22531,-33.34473 h 2.91765 l -2.6634,-12.7248 -1.12552,6.2761 -1.25935,-8.93951 h 2.43086 l 0.0739,-2.2965 -2.59623,-1.54874 z m 0,1.80609 5.56711,17.09922 2.4939,1.48879 -0.0496,1.42886 h -2.53266 l 1.84123,13.02814 1.23145,-6.87917 1.93322,9.23923 -3.0024,-0.007 v 35.48569 l -8.39846,24.21713 -6.59805,-23.50245 V 146.3946 l -2.97036,0.0496 1.9296,-9.23923 1.23507,6.87917 1.83761,-13.02814 h -2.53266 l -0.046,-1.42886 2.4908,-1.48879 z m 8.93589,68.38962 2.43345,8.69353 -6.65748,16.36334 3.19671,-22.09374 0.11007,-0.31729 z m -17.80046,0.46458 0.8692,3.09645 0.15658,21.71909 -2.74402,-11.36469 z m -4.38216,4.29431 2.13785,8.86871 -1.61178,12.61938 -7.84294,-11.32437 h 6.77375 z m 26.64178,0.13074 0.39481,10.03298 h 8.63978 l -5.42551,11.81788 -4.7625,-17.00723 -0.26458,-0.9524 -0.1142,-0.40876 0.49506,-1.22473 1.0051,-2.18746 z"
         id="path827"
         inkscape:connector-curvature="0" />
      <g
         transform="translate(0.75595238,5.0081845)"
         id="g1423">
        <circle
           style="opacity:0.7;fill:none;fill-opacity:1;stroke:#ff0517;stroke-width:0.95216709;stroke-linecap:round;stroke-linejoin:round;stroke-miterlimit:4;stroke-dasharray:none;stroke-dashoffset:3779.52758789;stroke-opacity:0.65098039;filter:url(#filter1287)"
           id="path1255"
           cx="110.44253"
           cy="206.6026"
           r="2.3632271" />
        <path
           style="color:#000000;font-style:normal;font-variant:normal;font-weight:normal;font-stretch:normal;font-size:medium;line-height:normal;font-family:sans-serif;font-variant-ligatures:normal;font-variant-position:normal;font-variant-caps:normal;font-variant-numeric:normal;font-variant-alternates:normal;font-feature-settings:normal;text-indent:0;text-align:start;text-decoration:none;text-decoration-line:none;text-decoration-style:solid;text-decoration-color:#000000;letter-spacing:normal;word-spacing:normal;text-transform:none;writing-mode:lr-tb;direction:ltr;text-orientation:mixed;dominant-baseline:auto;baseline-shift:baseline;text-anchor:start;white-space:normal;shape-padding:0;clip-rule:nonzero;display:inline;overflow:visible;visibility:visible;opacity:0.7;isolation:auto;mix-blend-mode:normal;color-interpolation:sRGB;color-interpolation-filters:linearRGB;solid-color:#000000;solid-opacity:1;vector-effect:none;fill:#ff0517;fill-opacity:0.65098039;fill-rule:nonzero;stroke:none;stroke-width:1.10000002;stroke-linecap:round;stroke-linejoin:round;stroke-miterlimit:4;stroke-dasharray:none;stroke-dashoffset:3779.52758789;stroke-opacity:0.65098039;filter:url(#filter1371);color-rendering:auto;image-rendering:auto;shape-rendering:auto;text-rendering:auto;enable-background:accumulate"
           d="m 110.44336,203.76367 c -1.56247,0 -2.83984,1.27738 -2.83984,2.83985 0,1.56246 1.27737,2.83789 2.83984,2.83789 1.56247,0 2.83789,-1.27543 2.83789,-2.83789 0,-1.56247 -1.27542,-2.83985 -2.83789,-2.83985 z m 0,0.95117 c 1.04788,0 1.88672,0.8408 1.88672,1.88868 0,1.04788 -0.83884,1.88671 -1.88672,1.88671 -1.04788,0 -1.88867,-0.83883 -1.88867,-1.88671 0,-1.04788 0.84079,-1.88868 1.88867,-1.88868 z"
           id="circle1291"
           inkscape:connector-curvature="0" />
        <path
           inkscape:connector-curvature="0"
           id="path1375"
           d="m 110.44336,203.76367 c -1.56247,0 -2.83984,1.27738 -2.83984,2.83985 0,1.56246 1.27737,2.83789 2.83984,2.83789 1.56247,0 2.83789,-1.27543 2.83789,-2.83789 0,-1.56247 -1.27542,-2.83985 -2.83789,-2.83985 z m 0,0.95117 c 1.04788,0 1.88672,0.8408 1.88672,1.88868 0,1.04788 -0.83884,1.88671 -1.88672,1.88671 -1.04788,0 -1.88867,-0.83883 -1.88867,-1.88671 0,-1.04788 0.84079,-1.88868 1.88867,-1.88868 z"
           style="color:#000000;font-style:normal;font-variant:normal;font-weight:normal;font-stretch:normal;font-size:medium;line-height:normal;font-family:sans-serif;font-variant-ligatures:normal;font-variant-position:normal;font-variant-caps:normal;font-variant-numeric:normal;font-variant-alternates:normal;font-feature-settings:normal;text-indent:0;text-align:start;text-decoration:none;text-decoration-line:none;text-decoration-style:solid;text-decoration-color:#000000;letter-spacing:normal;word-spacing:normal;text-transform:none;writing-mode:lr-tb;direction:ltr;text-orientation:mixed;dominant-baseline:auto;baseline-shift:baseline;text-anchor:start;white-space:normal;shape-padding:0;clip-rule:nonzero;display:inline;overflow:visible;visibility:visible;opacity:0.9;isolation:auto;mix-blend-mode:normal;color-interpolation:sRGB;color-interpolation-filters:linearRGB;solid-color:#000000;solid-opacity:1;vector-effect:none;fill:#ff0517;fill-opacity:0.65098039;fill-rule:nonzero;stroke:none;stroke-width:1.10000002;stroke-linecap:round;stroke-linejoin:round;stroke-miterlimit:4;stroke-dasharray:none;stroke-dashoffset:3779.52758789;stroke-opacity:0.65098039;filter:url(#filter1409);color-rendering:auto;image-rendering:auto;shape-rendering:auto;text-rendering:auto;enable-background:accumulate" />
        <path
           style="color:#000000;font-style:normal;font-variant:normal;font-weight:normal;font-stretch:normal;font-size:medium;line-height:normal;font-family:sans-serif;font-variant-ligatures:normal;font-variant-position:normal;font-variant-caps:normal;font-variant-numeric:normal;font-variant-alternates:normal;font-feature-settings:normal;text-indent:0;text-align:start;text-decoration:none;text-decoration-line:none;text-decoration-style:solid;text-decoration-color:#000000;letter-spacing:normal;word-spacing:normal;text-transform:none;writing-mode:lr-tb;direction:ltr;text-orientation:mixed;dominant-baseline:auto;baseline-shift:baseline;text-anchor:start;white-space:normal;shape-padding:0;clip-rule:nonzero;display:inline;overflow:visible;visibility:visible;opacity:1;isolation:auto;mix-blend-mode:normal;color-interpolation:sRGB;color-interpolation-filters:linearRGB;solid-color:#000000;solid-opacity:1;vector-effect:none;fill:#ffe7e9;fill-opacity:1;fill-rule:nonzero;stroke:none;stroke-width:1.10000002;stroke-linecap:round;stroke-linejoin:round;stroke-miterlimit:4;stroke-dasharray:none;stroke-dashoffset:3779.52758789;stroke-opacity:0.65098039;color-rendering:auto;image-rendering:auto;shape-rendering:auto;text-rendering:auto;enable-background:accumulate"
           d="m 110.44336,203.76367 c -1.56247,0 -2.83984,1.27738 -2.83984,2.83985 0,1.56246 1.27737,2.83789 2.83984,2.83789 1.56247,0 2.83789,-1.27543 2.83789,-2.83789 0,-1.56247 -1.27542,-2.83985 -2.83789,-2.83985 z m 0,0.95117 c 1.04788,0 1.88672,0.8408 1.88672,1.88868 0,1.04788 -0.83884,1.88671 -1.88672,1.88671 -1.04788,0 -1.88867,-0.83883 -1.88867,-1.88671 0,-1.04788 0.84079,-1.88868 1.88867,-1.88868 z"
           id="path1413"
           inkscape:connector-curvature="0" />
      </g>
    </g>
  </g>
</svg>
