<?xml version="1.0" encoding="UTF-8" standalone="no"?>
<!-- Created with Inkscape (http://www.inkscape.org/) -->

<svg
   width="32.277557mm"
   height="42.778919mm"
   viewBox="0 0 32.277557 42.778919"
   version="1.1"
   id="svg8"
   inkscape:version="1.1 (c4e8f9ed74, 2021-05-24)"
   sodipodi:docname="EventBeerBackup.svg"
   xmlns:inkscape="http://www.inkscape.org/namespaces/inkscape"
   xmlns:sodipodi="http://sodipodi.sourceforge.net/DTD/sodipodi-0.dtd"
   xmlns="http://www.w3.org/2000/svg"
   xmlns:svg="http://www.w3.org/2000/svg"
   xmlns:rdf="http://www.w3.org/1999/02/22-rdf-syntax-ns#"
   xmlns:cc="http://creativecommons.org/ns#"
   xmlns:dc="http://purl.org/dc/elements/1.1/">
  <defs
     id="defs2" />
  <sodipodi:namedview
     id="base"
     pagecolor="#ffffff"
     bordercolor="#666666"
     borderopacity="1.0"
     inkscape:pageopacity="0.0"
     inkscape:pageshadow="2"
     inkscape:zoom="0.49497475"
     inkscape:cx="306.07622"
     inkscape:cy="-54.548237"
     inkscape:document-units="mm"
     inkscape:current-layer="layer1"
     showgrid="false"
     fit-margin-top="0"
     fit-margin-left="0"
     fit-margin-right="0"
     fit-margin-bottom="0"
     inkscape:window-width="1920"
     inkscape:window-height="972"
     inkscape:window-x="0"
     inkscape:window-y="27"
     inkscape:window-maximized="1"
     inkscape:pagecheckerboard="0" />
  <metadata
     id="metadata5">
    <rdf:RDF>
      <cc:Work
         rdf:about="">
        <dc:format>image/svg+xml</dc:format>
        <dc:type
           rdf:resource="http://purl.org/dc/dcmitype/StillImage" />
      </cc:Work>
    </rdf:RDF>
  </metadata>
  <g
     inkscape:label="Layer 1"
     inkscape:groupmode="layer"
     id="layer1"
     transform="translate(-98.76564,-120.70886)">
    <path
       inkscape:connector-curvature="0"
       id="path2273"
       d="m 101.16506,129.79912 v 33.60022 h 15.77529 l 5.86878,-5.86961 v -27.73061 z"
       style="fill:#d08770;fill-opacity:1;stroke:none;stroke-width:3.8849659;stroke-miterlimit:4;stroke-dasharray:none;stroke-opacity:1" />
    <rect
       ry="0"
       rx="0"
       y="134.79524"
       x="121.38581"
       height="2.9943433"
       width="8.7526913"
       id="rect2275"
       style="opacity:1;fill:#d08770;fill-opacity:1;stroke:none;stroke-width:0.48751035;stroke-linejoin:round;stroke-miterlimit:4;stroke-dasharray:none;stroke-dashoffset:3779.52758789;stroke-opacity:1" />
    <rect
       transform="rotate(90)"
       style="opacity:1;fill:#d08770;fill-opacity:1;stroke:none;stroke-width:0.64201343;stroke-linejoin:round;stroke-miterlimit:4;stroke-dasharray:none;stroke-dashoffset:3779.52758789;stroke-opacity:1"
       id="rect2277"
       width="15.179665"
       height="2.9943433"
       x="135.75652"
       y="-130.13791"
       rx="0"
       ry="0" />
    <rect
       style="opacity:1;fill:#d08770;fill-opacity:1;stroke:none;stroke-width:0.48751035;stroke-linejoin:round;stroke-miterlimit:4;stroke-dasharray:none;stroke-dashoffset:3779.52758789;stroke-opacity:1"
       id="rect2279"
       width="8.7526913"
       height="2.9943433"
       x="121.38004"
       y="147.96227"
       rx="0"
       ry="0" />
    <path
       style="opacity:1;fill:#d08770;fill-opacity:1;stroke:none;stroke-width:0.70281243;stroke-linejoin:round;stroke-miterlimit:4;stroke-dasharray:none;stroke-dashoffset:3779.52758789;stroke-opacity:1"
       d="m 112.78762,120.98175 a 1.8595246,1.8595246 0 0 0 -1.3282,0.5606 1.8595246,1.8595246 0 0 0 -1.2948,-0.52754 1.8595246,1.8595246 0 0 0 -1.73753,1.20331 3.453403,3.453403 0 0 0 -1.68278,-0.4394 3.453403,3.453403 0 0 0 -3.23134,2.24707 2.1882452,2.1882452 0 0 0 -1.55592,2.09277 2.1882452,2.1882452 0 0 0 0.31953,1.13456 1.8595246,1.8595246 0 0 0 -0.39632,0.93421 h 20.16031 a 1.8595246,1.8595246 0 0 0 -1.06509,-1.30182 1.8595246,1.8595246 0 0 0 0.1469,-0.72387 1.8595246,1.8595246 0 0 0 -1.62433,-1.8427 3.453403,3.453403 0 0 0 -2.59296,-1.17895 3.453403,3.453403 0 0 0 -0.49783,0.0394 1.8595246,1.8595246 0 0 0 -1.52751,-0.80299 1.8595246,1.8595246 0 0 0 -0.28749,0.0237 1.8595246,1.8595246 0 0 0 -1.80464,-1.41834 z m -10.21421,8.89905 a 1.8595246,1.8595246 0 0 0 1.14922,0.3983 1.8595246,1.8595246 0 0 0 1.1439,-0.3983 z m 7.01559,0 a 3.453403,3.453403 0 0 0 1.60497,0.3983 3.453403,3.453403 0 0 0 1.59932,-0.3983 z m 6.27504,0 a 3.453403,3.453403 0 0 0 1.04105,0.16593 3.453403,3.453403 0 0 0 1.04573,-0.16593 z m 3.03001,0 a 1.8595246,1.8595246 0 0 0 1.33186,0.56459 1.8595246,1.8595246 0 0 0 1.33454,-0.56459 z"
       id="circle2281"
       inkscape:connector-curvature="0" />
  </g>
</svg>
